{"glyphs":{"0":{"ha":1025,"x_min":74,"x_max":951,"o":"m 514 -17 q 742 25 644 -17 q 896 147 840 67 q 951 343 951 226 q 896 541 951 460 q 742 664 840 622 q 514 706 644 706 q 284 664 383 706 q 129 541 185 622 q 74 343 74 460 q 129 147 74 226 q 284 25 185 67 q 514 -17 383 -17 m 514 122 q 383 148 442 122 q 291 223 325 174 q 257 343 257 272 q 292 465 257 415 q 385 542 326 515 q 514 568 443 568 q 643 542 586 568 q 734 465 700 515 q 768 343 768 414 q 734 223 768 272 q 642 148 700 174 q 514 122 585 122 "},"1":{"ha":542,"x_min":35,"x_max":411,"o":"m 35 536 l 231 536 l 231 0 l 411 0 l 411 690 l 35 690 l 35 536 "},"2":{"ha":867,"x_min":43,"x_max":811,"o":"m 525 210 q 647 273 596 243 q 731 333 699 303 q 779 398 764 364 q 794 474 794 432 q 767 571 794 528 q 690 644 740 614 q 569 691 639 675 q 415 707 500 707 q 215 672 300 707 q 87 576 131 638 q 47 435 43 515 l 222 435 q 278 527 225 493 q 419 561 332 561 q 528 547 486 561 q 589 509 569 533 q 608 451 608 485 q 572 376 608 410 q 465 309 535 342 q 296 236 396 276 q 71 139 196 196 l 71 0 l 811 0 l 811 139 l 293 139 l 300 104 l 525 210 "},"3":{"ha":890,"x_min":46,"x_max":840,"o":"m 465 256 q 608 267 543 257 q 721 299 672 276 q 796 362 769 322 q 822 463 822 401 q 776 592 822 536 q 644 678 731 647 q 439 708 558 708 q 290 689 360 708 q 166 633 219 669 q 84 544 113 596 q 60 428 56 493 l 235 428 q 290 519 238 485 q 439 554 342 554 q 588 522 542 554 q 633 432 633 489 q 610 367 633 392 q 538 333 588 343 q 410 322 489 322 l 292 322 l 292 183 l 410 183 q 586 156 524 183 q 649 64 649 129 q 594 -39 649 -4 q 439 -74 540 -74 q 326 -57 374 -74 q 252 -10 278 -40 q 225 60 226 19 l 50 60 q 93 -90 46 -25 q 230 -191 140 -154 q 439 -228 319 -228 q 651 -194 561 -228 q 791 -100 742 -160 q 840 38 840 -40 q 813 147 840 104 q 735 215 785 190 q 616 249 685 239 q 465 263 547 260 l 465 256 "},"4":{"ha":988,"x_min":65,"x_max":932,"o":"m 772 696 l 592 696 l 65 124 l 65 -15 l 614 -15 l 614 124 l 203 124 l 229 63 l 646 531 l 592 550 l 592 -201 l 772 -201 l 772 696 m 750 -15 l 932 -15 l 932 124 l 750 124 l 750 -15 "},"5":{"ha":951,"x_min":81,"x_max":886,"o":"m 561 360 q 438 342 497 360 q 333 293 378 325 q 269 214 289 261 l 289 204 l 317 540 l 792 540 l 792 694 l 149 694 l 107 172 l 264 143 q 324 196 286 176 q 406 223 361 215 q 493 231 450 231 q 573 222 535 231 q 641 193 611 213 q 688 144 671 174 q 706 75 706 115 q 688 6 706 35 q 638 -42 669 -24 q 569 -69 607 -60 q 489 -78 531 -78 q 377 -62 429 -78 q 292 -17 325 -47 q 253 56 258 13 l 81 56 q 117 -63 83 -11 q 208 -151 151 -115 q 339 -207 265 -187 q 496 -226 413 -226 q 701 -191 614 -226 q 838 -89 789 -156 q 886 74 886 -22 q 861 199 886 144 q 792 288 836 253 q 688 342 747 324 q 561 360 629 360 "},"6":{"ha":957,"x_min":36,"x_max":908,"o":"m 544 592 q 417 570 474 592 q 312 507 361 549 q 214 406 263 465 q 111 274 165 347 l 165 321 l 633 899 l 406 899 q 390 876 406 899 q 347 815 374 853 q 287 729 319 776 q 221 635 254 682 q 159 546 188 588 q 110 476 131 504 q 86 439 90 447 q 48 353 58 393 q 38 281 38 314 q 92 119 36 186 q 249 17 147 51 q 489 -18 351 -18 q 713 20 619 -18 q 856 127 806 58 q 907 288 906 196 q 863 448 908 379 q 736 554 818 517 q 544 592 654 592 m 479 129 q 294 170 367 129 q 222 289 221 211 q 294 406 224 358 q 485 453 365 453 q 658 410 592 453 q 722 290 724 368 q 653 171 721 213 q 479 129 586 129 "},"7":{"ha":893,"x_min":46,"x_max":839,"o":"m 46 536 l 725 536 l 688 606 l 188 -208 l 406 -208 l 839 536 l 839 690 l 46 690 l 46 536 "},"8":{"ha":938,"x_min":58,"x_max":879,"o":"m 468 461 q 679 483 593 461 q 809 551 765 504 q 853 672 853 597 q 810 798 853 743 q 683 885 768 853 q 468 917 599 917 q 254 885 339 917 q 127 798 169 853 q 85 672 85 743 q 128 551 85 597 q 258 483 172 504 q 468 461 343 461 m 468 526 q 357 542 400 526 q 293 586 314 558 q 272 649 272 614 q 293 711 272 685 q 357 752 314 738 q 468 767 400 767 q 582 752 538 767 q 648 711 626 738 q 669 649 669 685 q 648 586 669 614 q 582 542 626 558 q 468 526 538 526 m 468 -18 q 698 17 607 -18 q 834 113 789 53 q 879 247 879 174 q 831 387 879 333 q 690 465 782 440 q 468 489 599 489 q 247 465 339 489 q 107 387 156 440 q 58 247 58 333 q 103 113 58 174 q 240 17 149 53 q 468 -18 331 -18 m 469 135 q 341 151 390 135 q 269 198 292 168 q 246 265 246 228 q 269 336 246 306 q 341 383 292 367 q 469 400 390 400 q 597 383 547 400 q 672 336 647 367 q 696 265 696 306 q 672 198 696 228 q 597 151 647 168 q 469 135 547 135 "},"9":{"ha":968,"x_min":50,"x_max":931,"o":"m 414 103 q 543 124 485 103 q 651 187 601 146 q 751 285 701 228 q 856 415 801 343 l 800 374 l 332 -208 l 561 -208 q 577 -185 561 -208 q 619 -124 593 -162 q 678 -40 646 -86 q 742 55 710 7 q 803 144 775 103 q 851 215 832 186 q 874 250 869 243 q 917 338 904 297 q 929 414 929 378 q 877 576 931 510 q 724 676 824 642 q 486 711 625 711 q 251 674 349 711 q 103 569 154 638 q 50 407 51 501 q 96 247 50 315 q 224 141 142 179 q 414 103 307 103 m 486 565 q 621 547 563 565 q 713 494 679 529 q 744 406 746 458 q 672 288 743 333 q 481 242 600 242 q 301 284 367 242 q 236 404 235 326 q 305 525 238 485 q 486 565 372 565 "},"A":{"ha":1096,"x_min":24,"x_max":1072,"o":"m 247 196 l 842 196 l 842 350 l 247 350 l 247 196 m 24 0 l 224 0 l 590 810 l 501 810 l 871 0 l 1072 0 l 646 899 l 446 899 l 24 0 "},"Á":{"ha":1096,"x_min":24,"x_max":1072,"o":"m 247 196 l 842 196 l 842 350 l 247 350 l 247 196 m 24 0 l 224 0 l 590 810 l 501 810 l 871 0 l 1072 0 l 646 899 l 446 899 l 24 0 m 450 1007 l 622 1007 l 878 1226 l 639 1226 l 450 1007 "},"Ă":{"ha":1096,"x_min":24,"x_max":1072,"o":"m 247 196 l 842 196 l 842 350 l 247 350 l 247 196 m 24 0 l 224 0 l 590 810 l 501 810 l 871 0 l 1072 0 l 646 899 l 446 899 l 24 0 m 839 1186 l 707 1186 q 659 1113 697 1139 q 547 1088 621 1088 q 437 1113 475 1088 q 388 1186 399 1139 l 256 1186 q 299 1078 265 1126 q 393 1003 332 1031 q 547 976 454 976 q 702 1003 640 976 q 797 1078 764 1031 q 839 1186 831 1126 "},"Â":{"ha":1096,"x_min":24,"x_max":1072,"o":"m 247 196 l 842 196 l 842 350 l 247 350 l 247 196 m 24 0 l 224 0 l 590 810 l 501 810 l 871 0 l 1072 0 l 646 899 l 446 899 l 24 0 m 642 1226 l 453 1226 l 226 1007 l 422 1007 l 604 1189 l 490 1190 l 671 1007 l 867 1007 l 642 1226 "},"Ä":{"ha":1096,"x_min":24,"x_max":1072,"o":"m 247 196 l 842 196 l 842 350 l 247 350 l 247 196 m 24 0 l 224 0 l 590 810 l 501 810 l 871 0 l 1072 0 l 646 899 l 446 899 l 24 0 m 294 908 l 85 908 l 85 750 l 294 750 l 294 908 m 1014 908 l 804 908 l 804 750 l 1014 750 l 1014 908 "},"À":{"ha":1096,"x_min":24,"x_max":1072,"o":"m 247 196 l 842 196 l 842 350 l 247 350 l 247 196 m 24 0 l 224 0 l 590 810 l 501 810 l 871 0 l 1072 0 l 646 899 l 446 899 l 24 0 m 469 1007 l 642 1007 l 453 1226 l 214 1226 l 469 1007 "},"Ā":{"ha":1096,"x_min":24,"x_max":1072,"o":"m 247 196 l 842 196 l 842 350 l 247 350 l 247 196 m 24 0 l 224 0 l 590 810 l 501 810 l 871 0 l 1072 0 l 646 899 l 446 899 l 24 0 m 335 1018 l 761 1018 l 761 1131 l 335 1131 l 335 1018 "},"Ą":{"ha":1096,"x_min":24,"x_max":1072,"o":"m 1042 -300 l 1042 -204 q 953 -192 992 -204 q 894 -156 915 -179 q 874 -100 874 -133 q 910 -26 874 -53 q 1004 10 947 0 l 1004 40 q 867 15 928 33 q 769 -37 806 -3 q 733 -126 733 -71 q 817 -253 733 -207 q 1042 -300 900 -300 m 247 196 l 842 196 l 842 350 l 247 350 l 247 196 m 24 0 l 224 0 l 590 810 l 501 810 l 871 0 l 1072 0 l 646 899 l 446 899 l 24 0 "},"Å":{"ha":1096,"x_min":24,"x_max":1072,"o":"m 247 196 l 842 196 l 842 350 l 247 350 l 247 196 m 24 0 l 224 0 l 590 810 l 501 810 l 871 0 l 1072 0 l 646 899 l 446 899 l 24 0 m 547 974 q 690 1016 638 974 q 743 1129 743 1058 q 690 1241 743 1199 q 547 1283 638 1283 q 403 1241 457 1283 q 350 1129 350 1199 q 403 1016 350 1058 q 547 974 457 974 m 547 1054 q 476 1073 497 1054 q 454 1129 454 1092 q 476 1184 454 1165 q 547 1203 497 1203 q 617 1184 596 1203 q 639 1129 639 1165 q 617 1073 639 1092 q 547 1054 596 1054 "},"Ã":{"ha":1096,"x_min":24,"x_max":1072,"o":"m 247 196 l 842 196 l 842 350 l 247 350 l 247 196 m 24 0 l 224 0 l 590 810 l 501 810 l 871 0 l 1072 0 l 646 899 l 446 899 l 24 0 m 668 1006 q 768 1033 726 1006 q 835 1104 810 1060 q 872 1199 861 1149 l 743 1199 q 726 1161 736 1181 q 698 1128 715 1142 q 650 1115 681 1115 q 593 1128 619 1115 q 538 1158 567 1140 q 477 1188 510 1175 q 401 1200 444 1200 q 303 1173 344 1200 q 235 1102 261 1146 q 199 1007 210 1058 l 326 1007 q 344 1046 335 1026 q 372 1078 354 1065 q 418 1090 389 1090 q 479 1078 451 1090 q 535 1048 507 1065 q 594 1018 563 1031 q 668 1006 626 1006 "},"Æ":{"ha":1608,"x_min":24,"x_max":1525,"o":"m 832 375 l 1399 375 l 1399 521 l 832 521 l 832 744 l 1524 744 l 1524 899 l 556 899 l 24 0 l 222 0 l 688 804 l 647 814 l 647 0 l 1525 0 l 1525 154 l 832 154 l 832 375 m 256 228 l 774 228 l 774 364 l 256 364 l 256 228 "},"B":{"ha":1083,"x_min":107,"x_max":1026,"o":"m 107 0 l 675 0 q 858 31 779 3 q 982 113 938 58 q 1026 251 1026 168 q 1000 355 1026 315 q 928 417 974 394 q 822 447 882 439 q 693 457 761 456 l 688 447 q 849 474 781 453 q 956 538 918 494 q 993 658 993 582 q 899 838 993 778 q 625 899 806 899 l 107 899 l 107 0 m 292 153 l 292 369 l 638 369 q 736 365 690 369 q 810 339 782 360 q 838 272 838 318 q 790 181 838 210 q 656 153 743 153 l 292 153 m 292 518 l 292 746 l 628 746 q 753 720 706 746 q 800 632 800 694 q 753 544 800 569 q 618 518 706 518 l 292 518 "},"C":{"ha":1229,"x_min":74,"x_max":1156,"o":"m 1156 324 l 972 324 q 910 226 953 268 q 802 163 868 185 q 644 140 736 140 q 444 176 531 140 q 311 279 358 211 q 264 447 264 347 q 311 617 264 549 q 444 722 358 686 q 644 757 531 757 q 803 735 736 757 q 912 670 869 713 q 972 569 954 628 l 1156 569 q 1081 756 1144 679 q 906 875 1017 833 q 644 917 796 917 q 413 887 518 917 q 233 798 308 857 q 115 651 157 739 q 74 447 74 564 q 115 244 74 331 q 233 99 157 157 q 413 11 308 40 q 644 -18 518 -18 q 906 22 796 -18 q 1079 139 1015 63 q 1156 324 1143 215 "},"Ć":{"ha":1229,"x_min":74,"x_max":1156,"o":"m 1156 324 l 972 324 q 910 226 953 268 q 802 163 868 185 q 644 140 736 140 q 444 176 531 140 q 311 279 358 211 q 264 447 264 347 q 311 617 264 549 q 444 722 358 686 q 644 757 531 757 q 803 735 736 757 q 912 670 869 713 q 972 569 954 628 l 1156 569 q 1081 756 1144 679 q 906 875 1017 833 q 644 917 796 917 q 413 887 518 917 q 233 798 308 857 q 115 651 157 739 q 74 447 74 564 q 115 244 74 331 q 233 99 157 157 q 413 11 308 40 q 644 -18 518 -18 q 906 22 796 -18 q 1079 139 1015 63 q 1156 324 1143 215 m 533 1013 l 706 1013 l 961 1232 l 722 1232 l 533 1013 "},"Č":{"ha":1229,"x_min":74,"x_max":1156,"o":"m 1156 324 l 972 324 q 910 226 953 268 q 802 163 868 185 q 644 140 736 140 q 444 176 531 140 q 311 279 358 211 q 264 447 264 347 q 311 617 264 549 q 444 722 358 686 q 644 757 531 757 q 803 735 736 757 q 912 670 869 713 q 972 569 954 628 l 1156 569 q 1081 756 1144 679 q 906 875 1017 833 q 644 917 796 917 q 413 887 518 917 q 233 798 308 857 q 115 651 157 739 q 74 447 74 564 q 115 244 74 331 q 233 99 157 157 q 413 11 308 40 q 644 -18 518 -18 q 906 22 796 -18 q 1079 139 1015 63 q 1156 324 1143 215 m 692 1051 l 515 1232 l 319 1232 l 540 1013 l 729 1013 l 950 1232 l 754 1232 l 578 1051 l 692 1051 "},"Ç":{"ha":1229,"x_min":74,"x_max":1156,"o":"m 511 -161 l 381 -161 q 403 -244 378 -204 q 477 -308 428 -283 q 596 -332 526 -332 q 760 -288 706 -332 q 815 -186 815 -244 q 796 -117 815 -144 q 744 -74 776 -90 q 674 -50 713 -57 l 561 -89 q 629 -111 608 -97 q 656 -139 650 -125 q 663 -162 663 -153 q 647 -201 663 -185 q 592 -218 631 -218 q 543 -207 560 -218 q 520 -182 526 -196 q 511 -161 514 -168 m 561 24 l 561 -89 l 713 -99 l 713 24 l 561 24 m 1156 324 l 972 324 q 910 226 953 268 q 802 163 868 185 q 644 140 736 140 q 444 176 531 140 q 311 279 358 211 q 264 447 264 347 q 311 617 264 549 q 444 722 358 686 q 644 757 531 757 q 803 735 736 757 q 912 670 869 713 q 972 569 954 628 l 1156 569 q 1081 756 1144 679 q 906 875 1017 833 q 644 917 796 917 q 413 887 518 917 q 233 798 308 857 q 115 651 157 739 q 74 447 74 564 q 115 244 74 331 q 233 99 157 157 q 413 11 308 40 q 644 -18 518 -18 q 906 22 796 -18 q 1079 139 1015 63 q 1156 324 1143 215 "},"Ċ":{"ha":1229,"x_min":74,"x_max":1156,"o":"m 1156 324 l 972 324 q 910 226 953 268 q 802 163 868 185 q 644 140 736 140 q 444 176 531 140 q 311 279 358 211 q 264 447 264 347 q 311 617 264 549 q 444 722 358 686 q 644 757 531 757 q 803 735 736 757 q 912 670 869 713 q 972 569 954 628 l 1156 569 q 1081 756 1144 679 q 906 875 1017 833 q 644 917 796 917 q 413 887 518 917 q 233 798 308 857 q 115 651 157 739 q 74 447 74 564 q 115 244 74 331 q 233 99 157 157 q 413 11 308 40 q 644 -18 518 -18 q 906 22 796 -18 q 1079 139 1015 63 q 1156 324 1143 215 m 736 1174 l 526 1174 l 526 1015 l 736 1015 l 736 1174 "},"D":{"ha":1221,"x_min":107,"x_max":1147,"o":"m 621 899 l 107 899 l 107 0 l 621 0 q 866 37 765 0 q 1028 137 967 74 q 1119 282 1090 200 q 1147 453 1147 364 q 1122 622 1147 542 q 1035 765 1096 703 q 874 863 975 826 q 621 899 772 899 m 292 158 l 292 740 l 617 740 q 783 717 717 740 q 888 653 849 693 q 943 561 926 613 q 960 453 960 510 q 943 343 960 396 q 888 249 926 290 q 783 183 849 207 q 617 158 717 158 l 292 158 "},"Ð":{"ha":1221,"x_min":-7,"x_max":1147,"o":"m 621 899 l 107 899 l 107 0 l 621 0 q 866 37 765 0 q 1028 137 967 74 q 1119 282 1090 200 q 1147 453 1147 364 q 1122 622 1147 542 q 1035 765 1096 703 q 874 863 975 826 q 621 899 772 899 m 292 158 l 292 740 l 617 740 q 783 717 717 740 q 888 653 849 693 q 943 561 926 613 q 960 453 960 510 q 943 343 960 396 q 888 249 926 290 q 783 183 849 207 q 617 158 717 158 l 292 158 m -7 501 l -7 406 l 492 406 l 492 501 l -7 501 "},"Ď":{"ha":1221,"x_min":107,"x_max":1147,"o":"m 621 899 l 107 899 l 107 0 l 621 0 q 866 37 765 0 q 1028 137 967 74 q 1119 282 1090 200 q 1147 453 1147 364 q 1122 622 1147 542 q 1035 765 1096 703 q 874 863 975 826 q 621 899 772 899 m 292 158 l 292 740 l 617 740 q 783 717 717 740 q 888 653 849 693 q 943 561 926 613 q 960 453 960 510 q 943 343 960 396 q 888 249 926 290 q 783 183 849 207 q 617 158 717 158 l 292 158 m 631 1075 l 454 1256 l 258 1256 l 479 1036 l 668 1036 l 889 1256 l 693 1256 l 517 1075 l 631 1075 "},"Đ":{"ha":1221,"x_min":-7,"x_max":1147,"o":"m 621 899 l 107 899 l 107 0 l 621 0 q 866 37 765 0 q 1028 137 967 74 q 1119 282 1090 200 q 1147 453 1147 364 q 1122 622 1147 542 q 1035 765 1096 703 q 874 863 975 826 q 621 899 772 899 m 292 158 l 292 740 l 617 740 q 783 717 717 740 q 888 653 849 693 q 943 561 926 613 q 960 453 960 510 q 943 343 960 396 q 888 249 926 290 q 783 183 849 207 q 617 158 717 158 l 292 158 m -7 501 l -7 406 l 492 406 l 492 501 l -7 501 "},"E":{"ha":1068,"x_min":107,"x_max":985,"o":"m 292 375 l 858 375 l 858 521 l 292 521 l 292 744 l 983 744 l 983 899 l 107 899 l 107 0 l 985 0 l 985 154 l 292 154 l 292 375 "},"É":{"ha":1068,"x_min":107,"x_max":985,"o":"m 292 375 l 858 375 l 858 521 l 292 521 l 292 744 l 983 744 l 983 899 l 107 899 l 107 0 l 985 0 l 985 154 l 292 154 l 292 375 m 454 1007 l 626 1007 l 882 1226 l 643 1226 l 454 1007 "},"Ě":{"ha":1068,"x_min":107,"x_max":985,"o":"m 292 375 l 858 375 l 858 521 l 292 521 l 292 744 l 983 744 l 983 899 l 107 899 l 107 0 l 985 0 l 985 154 l 292 154 l 292 375 m 613 1046 l 436 1226 l 240 1226 l 461 1007 l 650 1007 l 871 1226 l 675 1226 l 499 1046 l 613 1046 "},"Ê":{"ha":1068,"x_min":107,"x_max":985,"o":"m 292 375 l 858 375 l 858 521 l 292 521 l 292 744 l 983 744 l 983 899 l 107 899 l 107 0 l 985 0 l 985 154 l 292 154 l 292 375 m 646 1226 l 457 1226 l 231 1007 l 426 1007 l 608 1189 l 494 1190 l 675 1007 l 871 1007 l 646 1226 "},"Ë":{"ha":1068,"x_min":107,"x_max":985,"o":"m 292 375 l 858 375 l 858 521 l 292 521 l 292 744 l 983 744 l 983 899 l 107 899 l 107 0 l 985 0 l 985 154 l 292 154 l 292 375 m 506 1167 l 296 1167 l 296 1008 l 506 1008 l 506 1167 m 807 1167 l 597 1167 l 597 1008 l 807 1008 l 807 1167 "},"Ė":{"ha":1068,"x_min":107,"x_max":985,"o":"m 292 375 l 858 375 l 858 521 l 292 521 l 292 744 l 983 744 l 983 899 l 107 899 l 107 0 l 985 0 l 985 154 l 292 154 l 292 375 m 657 1168 l 447 1168 l 447 1010 l 657 1010 l 657 1168 "},"È":{"ha":1068,"x_min":107,"x_max":985,"o":"m 292 375 l 858 375 l 858 521 l 292 521 l 292 744 l 983 744 l 983 899 l 107 899 l 107 0 l 985 0 l 985 154 l 292 154 l 292 375 m 474 1007 l 646 1007 l 457 1226 l 218 1226 l 474 1007 "},"Ē":{"ha":1068,"x_min":107,"x_max":985,"o":"m 292 375 l 858 375 l 858 521 l 292 521 l 292 744 l 983 744 l 983 899 l 107 899 l 107 0 l 985 0 l 985 154 l 292 154 l 292 375 m 339 1018 l 765 1018 l 765 1131 l 339 1131 l 339 1018 "},"Ę":{"ha":1068,"x_min":107,"x_max":985,"o":"m 911 -310 l 911 -214 q 823 -201 861 -214 q 764 -166 785 -189 q 743 -110 743 -143 q 780 -36 743 -62 q 874 0 817 -10 l 874 31 q 736 6 797 24 q 639 -47 675 -12 q 603 -136 603 -81 q 686 -263 603 -217 q 911 -310 769 -310 m 292 375 l 858 375 l 858 521 l 292 521 l 292 744 l 983 744 l 983 899 l 107 899 l 107 0 l 985 0 l 985 154 l 292 154 l 292 375 "},"F":{"ha":1029,"x_min":107,"x_max":983,"o":"m 983 899 l 107 899 l 107 0 l 292 0 l 292 358 l 858 358 l 858 503 l 292 503 l 292 744 l 983 744 l 983 899 "},"G":{"ha":1269,"x_min":74,"x_max":1182,"o":"m 624 -18 q 934 82 817 -18 q 1069 361 1051 182 l 997 335 q 926 237 976 281 q 802 167 876 193 q 631 142 728 142 q 423 178 504 142 q 303 281 342 214 q 264 442 264 349 q 308 608 264 538 q 438 718 353 679 q 644 757 524 757 q 806 734 739 757 q 913 670 872 711 q 972 574 954 629 l 1150 574 q 1078 756 1142 679 q 906 874 1015 832 q 644 917 796 917 q 412 885 517 917 q 231 793 307 854 q 115 644 156 732 q 74 442 74 556 q 113 243 74 329 q 224 99 151 157 q 398 11 297 40 q 624 -18 499 -18 m 1022 0 l 1182 0 l 1182 438 l 646 438 l 646 319 l 1057 319 q 1042 213 1050 271 q 1028 99 1033 156 q 1022 0 1022 43 "},"Ğ":{"ha":1269,"x_min":74,"x_max":1182,"o":"m 624 -18 q 934 82 817 -18 q 1069 361 1051 182 l 997 335 q 926 237 976 281 q 802 167 876 193 q 631 142 728 142 q 423 178 504 142 q 303 281 342 214 q 264 442 264 349 q 308 608 264 538 q 438 718 353 679 q 644 757 524 757 q 806 734 739 757 q 913 670 872 711 q 972 574 954 629 l 1150 574 q 1078 756 1142 679 q 906 874 1015 832 q 644 917 796 917 q 412 885 517 917 q 231 793 307 854 q 115 644 156 732 q 74 442 74 556 q 113 243 74 329 q 224 99 151 157 q 398 11 297 40 q 624 -18 499 -18 m 1022 0 l 1182 0 l 1182 438 l 646 438 l 646 319 l 1057 319 q 1042 213 1050 271 q 1028 99 1033 156 q 1022 0 1022 43 m 922 1192 l 790 1192 q 742 1119 781 1144 q 631 1093 704 1093 q 520 1119 558 1093 q 471 1192 482 1144 l 339 1192 q 382 1084 349 1132 q 476 1009 415 1036 q 631 982 538 982 q 785 1009 724 982 q 881 1084 847 1036 q 922 1192 914 1132 "},"Ģ":{"ha":1269,"x_min":74,"x_max":1182,"o":"m 624 -18 q 934 82 817 -18 q 1069 361 1051 182 l 997 335 q 926 237 976 281 q 802 167 876 193 q 631 142 728 142 q 423 178 504 142 q 303 281 342 214 q 264 442 264 349 q 308 608 264 538 q 438 718 353 679 q 644 757 524 757 q 806 734 739 757 q 913 670 872 711 q 972 574 954 629 l 1150 574 q 1078 756 1142 679 q 906 874 1015 832 q 644 917 796 917 q 412 885 517 917 q 231 793 307 854 q 115 644 156 732 q 74 442 74 556 q 113 243 74 329 q 224 99 151 157 q 398 11 297 40 q 624 -18 499 -18 m 1022 0 l 1182 0 l 1182 438 l 646 438 l 646 319 l 1057 319 q 1042 213 1050 271 q 1028 99 1033 156 q 1022 0 1022 43 m 554 -346 l 554 -346 q 690 -280 643 -328 q 736 -157 736 -232 l 736 -85 l 524 -85 l 524 -212 l 610 -228 q 588 -266 608 -247 q 538 -299 567 -285 l 554 -346 "},"Ġ":{"ha":1269,"x_min":74,"x_max":1182,"o":"m 624 -18 q 934 82 817 -18 q 1069 361 1051 182 l 997 335 q 926 237 976 281 q 802 167 876 193 q 631 142 728 142 q 423 178 504 142 q 303 281 342 214 q 264 442 264 349 q 308 608 264 538 q 438 718 353 679 q 644 757 524 757 q 806 734 739 757 q 913 670 872 711 q 972 574 954 629 l 1150 574 q 1078 756 1142 679 q 906 874 1015 832 q 644 917 796 917 q 412 885 517 917 q 231 793 307 854 q 115 644 156 732 q 74 442 74 556 q 113 243 74 329 q 224 99 151 157 q 398 11 297 40 q 624 -18 499 -18 m 1022 0 l 1182 0 l 1182 438 l 646 438 l 646 319 l 1057 319 q 1042 213 1050 271 q 1028 99 1033 156 q 1022 0 1022 43 m 736 1174 l 526 1174 l 526 1015 l 736 1015 l 736 1174 "},"H":{"ha":1243,"x_min":107,"x_max":1136,"o":"m 269 528 l 269 374 l 982 374 l 982 528 l 269 528 m 951 899 l 951 0 l 1136 0 l 1136 899 l 951 899 m 107 899 l 107 0 l 292 0 l 292 899 l 107 899 "},"Ħ":{"ha":1243,"x_min":51,"x_max":1192,"o":"m 51 654 l 1192 654 l 1192 758 l 51 758 l 51 654 m 269 528 l 269 374 l 982 374 l 982 528 l 269 528 m 951 899 l 951 0 l 1136 0 l 1136 899 l 951 899 m 107 899 l 107 0 l 292 0 l 292 899 l 107 899 "},"I":{"ha":450,"x_min":133,"x_max":318,"o":"m 133 899 l 133 0 l 318 0 l 318 899 l 133 899 "},"Ĳ":{"ha":1047,"x_min":133,"x_max":940,"o":"m 133 899 l 133 401 l 314 401 l 314 899 l 133 899 m 756 351 q 733 247 756 293 q 664 173 711 200 q 540 146 617 146 q 388 187 451 146 q 310 307 325 228 l 135 307 q 172 165 138 225 q 264 65 207 104 q 392 6 321 25 q 540 -14 464 -14 q 713 14 639 -14 q 838 91 788 42 q 915 204 889 140 q 940 339 940 268 l 940 899 l 756 899 l 756 351 "},"Í":{"ha":450,"x_min":128,"x_max":556,"o":"m 133 899 l 133 0 l 318 0 l 318 899 l 133 899 m 128 1007 l 300 1007 l 556 1226 l 317 1226 l 128 1007 "},"Î":{"ha":450,"x_min":-96,"x_max":544,"o":"m 133 899 l 133 0 l 318 0 l 318 899 l 133 899 m 319 1226 l 131 1226 l -96 1007 l 100 1007 l 282 1189 l 168 1190 l 349 1007 l 544 1007 l 319 1226 "},"Ï":{"ha":450,"x_min":-31,"x_max":481,"o":"m 133 899 l 133 0 l 318 0 l 318 899 l 133 899 m 179 1167 l -31 1167 l -31 1008 l 179 1008 l 179 1167 m 481 1167 l 271 1167 l 271 1008 l 481 1008 l 481 1167 "},"İ":{"ha":450,"x_min":121,"x_max":331,"o":"m 133 899 l 133 0 l 318 0 l 318 899 l 133 899 m 331 1168 l 121 1168 l 121 1010 l 331 1010 l 331 1168 "},"Ì":{"ha":450,"x_min":-108,"x_max":319,"o":"m 133 899 l 133 0 l 318 0 l 318 899 l 133 899 m 147 1007 l 319 1007 l 131 1226 l -108 1226 l 147 1007 "},"Ī":{"ha":450,"x_min":13,"x_max":439,"o":"m 133 899 l 133 0 l 318 0 l 318 899 l 133 899 m 13 1018 l 439 1018 l 439 1131 l 13 1131 l 13 1018 "},"Į":{"ha":450,"x_min":-25,"x_max":318,"o":"m 283 -310 l 283 -214 q 195 -201 233 -214 q 136 -166 157 -189 q 115 -110 115 -143 q 152 -36 115 -62 q 246 0 189 -10 l 246 31 q 108 6 169 24 q 11 -47 47 -12 q -25 -136 -25 -81 q 58 -263 -25 -217 q 283 -310 142 -310 m 133 899 l 133 0 l 318 0 l 318 899 l 133 899 "},"J":{"ha":949,"x_min":36,"x_max":842,"o":"m 657 351 q 635 247 657 293 q 565 173 613 200 q 442 146 518 146 q 290 187 353 146 q 211 307 226 228 l 36 307 q 74 165 39 225 q 165 65 108 104 q 294 6 222 25 q 442 -14 365 -14 q 615 14 540 -14 q 740 91 689 42 q 816 204 790 140 q 842 339 842 268 l 842 899 l 657 899 l 657 351 "},"K":{"ha":1131,"x_min":107,"x_max":1096,"o":"m 492 438 l 1032 899 l 769 899 l 290 472 l 829 0 l 1096 0 l 490 515 l 492 438 m 107 899 l 107 0 l 292 0 l 292 899 l 107 899 "},"Ķ":{"ha":1131,"x_min":107,"x_max":1096,"o":"m 492 438 l 1032 899 l 769 899 l 290 472 l 829 0 l 1096 0 l 490 515 l 492 438 m 107 899 l 107 0 l 292 0 l 292 899 l 107 899 m 458 -346 l 458 -346 q 594 -280 547 -328 q 640 -157 640 -232 l 640 -85 l 428 -85 l 428 -212 l 514 -228 q 492 -266 513 -247 q 442 -299 471 -285 l 458 -346 "},"L":{"ha":954,"x_min":107,"x_max":889,"o":"m 292 899 l 107 899 l 107 0 l 889 0 l 889 154 l 292 154 l 292 899 "},"Ĺ":{"ha":954,"x_min":101,"x_max":889,"o":"m 292 899 l 107 899 l 107 0 l 889 0 l 889 154 l 292 154 l 292 899 m 101 1007 l 274 1007 l 529 1226 l 290 1226 l 101 1007 "},"Ľ":{"ha":954,"x_min":107,"x_max":889,"o":"m 292 899 l 107 899 l 107 0 l 889 0 l 889 154 l 292 154 l 292 899 m 667 676 l 725 849 l 725 968 l 513 968 l 513 849 l 571 676 l 667 676 "},"Ļ":{"ha":954,"x_min":107,"x_max":889,"o":"m 292 899 l 107 899 l 107 0 l 889 0 l 889 154 l 292 154 l 292 899 m 465 -346 l 465 -346 q 601 -280 554 -328 q 647 -157 647 -232 l 647 -85 l 435 -85 l 435 -212 l 521 -228 q 499 -266 519 -247 q 449 -299 478 -285 l 465 -346 "},"Ŀ":{"ha":954,"x_min":107,"x_max":889,"o":"m 292 899 l 107 899 l 107 0 l 889 0 l 889 154 l 292 154 l 292 899 m 699 586 l 489 586 l 489 428 l 699 428 l 699 586 "},"Ł":{"ha":954,"x_min":-43,"x_max":889,"o":"m 292 899 l 107 899 l 107 0 l 889 0 l 889 154 l 292 154 l 292 899 m 524 703 l -43 314 l 6 240 l 575 629 l 524 703 "},"M":{"ha":1526,"x_min":107,"x_max":1419,"o":"m 806 92 l 292 899 l 107 899 l 107 0 l 292 0 l 292 650 l 247 638 l 660 0 l 867 0 l 1279 640 l 1235 653 l 1235 0 l 1419 0 l 1419 899 l 1235 899 l 718 92 l 806 92 "},"N":{"ha":1251,"x_min":107,"x_max":1144,"o":"m 1018 183 l 292 899 l 107 899 l 107 0 l 292 0 l 292 733 l 233 710 l 960 0 l 1144 0 l 1144 899 l 960 899 l 960 160 l 1018 183 "},"Ń":{"ha":1251,"x_min":107,"x_max":1144,"o":"m 1018 183 l 292 899 l 107 899 l 107 0 l 292 0 l 292 733 l 233 710 l 960 0 l 1144 0 l 1144 899 l 960 899 l 960 160 l 1018 183 m 538 1007 l 710 1007 l 965 1226 l 726 1226 l 538 1007 "},"Ň":{"ha":1251,"x_min":107,"x_max":1144,"o":"m 1018 183 l 292 899 l 107 899 l 107 0 l 292 0 l 292 733 l 233 710 l 960 0 l 1144 0 l 1144 899 l 960 899 l 960 160 l 1018 183 m 696 1046 l 519 1226 l 324 1226 l 544 1007 l 733 1007 l 954 1226 l 758 1226 l 582 1046 l 696 1046 "},"Ņ":{"ha":1251,"x_min":107,"x_max":1144,"o":"m 1018 183 l 292 899 l 107 899 l 107 0 l 292 0 l 292 733 l 233 710 l 960 0 l 1144 0 l 1144 899 l 960 899 l 960 160 l 1018 183 m 563 -346 l 563 -346 q 698 -280 651 -328 q 744 -157 744 -232 l 744 -85 l 532 -85 l 532 -212 l 618 -228 q 596 -266 617 -247 q 546 -299 575 -285 l 563 -346 "},"Ñ":{"ha":1251,"x_min":107,"x_max":1144,"o":"m 1018 183 l 292 899 l 107 899 l 107 0 l 292 0 l 292 733 l 233 710 l 960 0 l 1144 0 l 1144 899 l 960 899 l 960 160 l 1018 183 m 756 1006 q 856 1033 814 1006 q 923 1104 897 1060 q 960 1199 949 1149 l 831 1199 q 813 1161 824 1181 q 785 1128 803 1142 q 738 1115 768 1115 q 681 1128 707 1115 q 626 1158 654 1140 q 565 1188 597 1175 q 489 1200 532 1200 q 390 1173 432 1200 q 323 1102 349 1146 q 286 1007 297 1058 l 414 1007 q 432 1046 422 1026 q 459 1078 442 1065 q 506 1090 476 1090 q 567 1078 539 1090 q 622 1048 594 1065 q 682 1018 650 1031 q 756 1006 714 1006 "},"Ŋ":{"ha":1251,"x_min":107,"x_max":1144,"o":"m 1018 183 l 292 899 l 107 899 l 107 0 l 292 0 l 292 733 l 233 710 l 960 0 q 935 -89 960 -58 q 871 -131 911 -119 q 785 -142 831 -142 l 785 -292 q 882 -285 832 -292 q 978 -263 932 -279 q 1063 -219 1025 -247 q 1122 -149 1100 -192 q 1144 -46 1144 -106 l 1144 899 l 960 899 l 960 160 l 1018 183 "},"O":{"ha":1283,"x_min":74,"x_max":1210,"o":"m 642 -18 q 949 38 822 -18 q 1142 199 1075 94 q 1210 449 1210 303 q 1142 700 1210 596 q 949 860 1075 804 q 642 917 822 917 q 335 860 463 917 q 141 700 208 804 q 74 449 74 596 q 141 199 74 303 q 335 38 208 94 q 642 -18 463 -18 m 642 142 q 446 175 532 142 q 311 276 360 208 q 263 449 263 344 q 311 621 263 553 q 446 723 360 689 q 642 757 532 757 q 837 723 753 757 q 969 621 921 689 q 1017 449 1017 553 q 969 276 1017 344 q 837 175 921 208 q 642 142 753 142 "},"Ó":{"ha":1283,"x_min":74,"x_max":1210,"o":"m 642 -18 q 949 38 822 -18 q 1142 199 1075 94 q 1210 449 1210 303 q 1142 700 1210 596 q 949 860 1075 804 q 642 917 822 917 q 335 860 463 917 q 141 700 208 804 q 74 449 74 596 q 141 199 74 303 q 335 38 208 94 q 642 -18 463 -18 m 642 142 q 446 175 532 142 q 311 276 360 208 q 263 449 263 344 q 311 621 263 553 q 446 723 360 689 q 642 757 532 757 q 837 723 753 757 q 969 621 921 689 q 1017 449 1017 553 q 969 276 1017 344 q 837 175 921 208 q 642 142 753 142 m 544 1013 l 717 1013 l 972 1232 l 733 1232 l 544 1013 "},"Ô":{"ha":1283,"x_min":74,"x_max":1210,"o":"m 642 -18 q 949 38 822 -18 q 1142 199 1075 94 q 1210 449 1210 303 q 1142 700 1210 596 q 949 860 1075 804 q 642 917 822 917 q 335 860 463 917 q 141 700 208 804 q 74 449 74 596 q 141 199 74 303 q 335 38 208 94 q 642 -18 463 -18 m 642 142 q 446 175 532 142 q 311 276 360 208 q 263 449 263 344 q 311 621 263 553 q 446 723 360 689 q 642 757 532 757 q 837 723 753 757 q 969 621 921 689 q 1017 449 1017 553 q 969 276 1017 344 q 837 175 921 208 q 642 142 753 142 m 736 1232 l 547 1232 l 321 1013 l 517 1013 l 699 1194 l 585 1196 l 765 1013 l 961 1013 l 736 1232 "},"Ö":{"ha":1285,"x_min":74,"x_max":1210,"o":"m 642 -18 q 949 38 822 -18 q 1142 199 1075 94 q 1210 449 1210 303 q 1142 700 1210 596 q 949 860 1075 804 q 642 917 822 917 q 335 860 463 917 q 141 700 208 804 q 74 449 74 596 q 141 199 74 303 q 335 38 208 94 q 642 -18 463 -18 m 642 142 q 446 175 532 142 q 311 276 360 208 q 263 449 263 344 q 311 621 263 553 q 446 723 360 689 q 642 757 532 757 q 837 723 753 757 q 969 621 921 689 q 1017 449 1017 553 q 969 276 1017 344 q 837 175 921 208 q 642 142 753 142 m 315 1060 l 106 1060 l 106 901 l 315 901 l 315 1060 m 1194 1060 l 985 1060 l 985 901 l 1194 901 l 1194 1060 "},"Ȯ":{"ha":1283,"x_min":74,"x_max":1210,"o":"m 642 -18 q 949 38 822 -18 q 1142 199 1075 94 q 1210 449 1210 303 q 1142 700 1210 596 q 949 860 1075 804 q 642 917 822 917 q 335 860 463 917 q 141 700 208 804 q 74 449 74 596 q 141 199 74 303 q 335 38 208 94 q 642 -18 463 -18 m 642 142 q 446 175 532 142 q 311 276 360 208 q 263 449 263 344 q 311 621 263 553 q 446 723 360 689 q 642 757 532 757 q 837 723 753 757 q 969 621 921 689 q 1017 449 1017 553 q 969 276 1017 344 q 837 175 921 208 q 642 142 753 142 m 747 1174 l 538 1174 l 538 1015 l 747 1015 l 747 1174 "},"Ò":{"ha":1283,"x_min":74,"x_max":1210,"o":"m 642 -18 q 949 38 822 -18 q 1142 199 1075 94 q 1210 449 1210 303 q 1142 700 1210 596 q 949 860 1075 804 q 642 917 822 917 q 335 860 463 917 q 141 700 208 804 q 74 449 74 596 q 141 199 74 303 q 335 38 208 94 q 642 -18 463 -18 m 642 142 q 446 175 532 142 q 311 276 360 208 q 263 449 263 344 q 311 621 263 553 q 446 723 360 689 q 642 757 532 757 q 837 723 753 757 q 969 621 921 689 q 1017 449 1017 553 q 969 276 1017 344 q 837 175 921 208 q 642 142 753 142 m 564 1013 l 736 1013 l 547 1232 l 308 1232 l 564 1013 "},"Ő":{"ha":1283,"x_min":74,"x_max":1210,"o":"m 642 -18 q 949 38 822 -18 q 1142 199 1075 94 q 1210 449 1210 303 q 1142 700 1210 596 q 949 860 1075 804 q 642 917 822 917 q 335 860 463 917 q 141 700 208 804 q 74 449 74 596 q 141 199 74 303 q 335 38 208 94 q 642 -18 463 -18 m 642 142 q 446 175 532 142 q 311 276 360 208 q 263 449 263 344 q 311 621 263 553 q 446 723 360 689 q 642 757 532 757 q 837 723 753 757 q 969 621 921 689 q 1017 449 1017 553 q 969 276 1017 344 q 837 175 921 208 q 642 142 753 142 m 697 1013 l 839 1013 l 1054 1232 l 865 1232 l 697 1013 m 397 1013 l 539 1013 l 746 1232 l 557 1232 l 397 1013 "},"Ō":{"ha":1283,"x_min":74,"x_max":1210,"o":"m 642 -18 q 949 38 822 -18 q 1142 199 1075 94 q 1210 449 1210 303 q 1142 700 1210 596 q 949 860 1075 804 q 642 917 822 917 q 335 860 463 917 q 141 700 208 804 q 74 449 74 596 q 141 199 74 303 q 335 38 208 94 q 642 -18 463 -18 m 642 142 q 446 175 532 142 q 311 276 360 208 q 263 449 263 344 q 311 621 263 553 q 446 723 360 689 q 642 757 532 757 q 837 723 753 757 q 969 621 921 689 q 1017 449 1017 553 q 969 276 1017 344 q 837 175 921 208 q 642 142 753 142 m 429 1024 l 856 1024 l 856 1136 l 429 1136 l 429 1024 "},"Ø":{"ha":1283,"x_min":74,"x_max":1210,"o":"m 642 -18 q 949 38 822 -18 q 1142 199 1075 94 q 1210 449 1210 303 q 1142 700 1210 596 q 949 860 1075 804 q 642 917 822 917 q 335 860 463 917 q 141 700 208 804 q 74 449 74 596 q 141 199 74 303 q 335 38 208 94 q 642 -18 463 -18 m 642 142 q 446 175 532 142 q 311 276 360 208 q 263 449 263 344 q 311 621 263 553 q 446 723 360 689 q 642 757 532 757 q 837 723 753 757 q 969 621 921 689 q 1017 449 1017 553 q 969 276 1017 344 q 837 175 921 208 q 642 142 753 142 m 879 963 l 329 -33 l 401 -78 l 954 921 l 879 963 "},"Õ":{"ha":1283,"x_min":74,"x_max":1210,"o":"m 642 -18 q 949 38 822 -18 q 1142 199 1075 94 q 1210 449 1210 303 q 1142 700 1210 596 q 949 860 1075 804 q 642 917 822 917 q 335 860 463 917 q 141 700 208 804 q 74 449 74 596 q 141 199 74 303 q 335 38 208 94 q 642 -18 463 -18 m 642 142 q 446 175 532 142 q 311 276 360 208 q 263 449 263 344 q 311 621 263 553 q 446 723 360 689 q 642 757 532 757 q 837 723 753 757 q 969 621 921 689 q 1017 449 1017 553 q 969 276 1017 344 q 837 175 921 208 q 642 142 753 142 m 763 1011 q 863 1038 821 1011 q 930 1110 904 1065 q 967 1204 956 1154 l 838 1204 q 820 1167 831 1186 q 792 1134 810 1147 q 744 1121 775 1121 q 688 1133 714 1121 q 633 1163 661 1146 q 572 1193 604 1181 q 496 1206 539 1206 q 397 1178 439 1206 q 330 1108 356 1151 q 293 1013 304 1064 l 421 1013 q 439 1051 429 1032 q 466 1083 449 1071 q 513 1096 483 1096 q 574 1083 546 1096 q 629 1053 601 1071 q 689 1024 657 1036 q 763 1011 721 1011 "},"Œ":{"ha":1774,"x_min":74,"x_max":1690,"o":"m 1690 156 l 1063 156 l 754 0 l 1690 0 l 1690 156 m 1563 521 l 1172 521 l 1172 375 l 1563 375 l 1563 521 m 1689 899 l 754 899 l 1001 743 l 1689 743 l 1689 899 m 642 -18 q 949 38 822 -18 q 1142 199 1075 94 q 1210 449 1210 303 q 1142 700 1210 596 q 949 860 1075 804 q 642 917 822 917 q 335 860 463 917 q 141 700 208 804 q 74 449 74 596 q 141 199 74 303 q 335 38 208 94 q 642 -18 463 -18 m 642 142 q 446 175 532 142 q 311 276 360 208 q 263 449 263 344 q 311 621 263 553 q 446 723 360 689 q 642 757 532 757 q 837 723 753 757 q 969 621 921 689 q 1017 449 1017 553 q 969 276 1017 344 q 837 175 921 208 q 642 142 753 142 "},"P":{"ha":1089,"x_min":104,"x_max":1022,"o":"m 267 292 l 661 292 q 802 308 736 292 q 917 359 868 324 q 994 451 967 394 q 1022 589 1022 508 q 994 729 1022 671 q 917 825 967 788 q 802 881 868 863 q 661 899 736 899 l 104 899 l 104 0 l 289 0 l 289 740 l 678 740 q 794 701 751 740 q 838 589 838 663 q 794 478 838 518 q 678 439 751 439 l 267 439 l 267 292 "},"Þ":{"ha":1054,"x_min":104,"x_max":988,"o":"m 626 750 l 250 750 l 250 600 l 643 600 q 758 561 714 600 q 803 449 803 522 q 758 338 803 378 q 643 299 714 299 l 250 299 l 250 149 l 626 149 q 767 165 701 149 q 883 218 833 182 q 960 311 932 254 q 988 449 988 368 q 960 588 988 531 q 883 681 932 644 q 767 733 833 717 q 626 750 701 750 m 104 899 l 104 0 l 289 0 l 289 899 l 104 899 "},"Q":{"ha":1283,"x_min":74,"x_max":1210,"o":"m 551 60 l 551 -278 l 732 -278 l 732 60 l 551 60 m 642 -18 q 949 38 822 -18 q 1142 199 1075 94 q 1210 449 1210 303 q 1142 700 1210 596 q 949 860 1075 804 q 642 917 822 917 q 335 860 463 917 q 141 700 208 804 q 74 449 74 596 q 141 199 74 303 q 335 38 208 94 q 642 -18 463 -18 m 642 142 q 446 175 532 142 q 311 276 360 208 q 263 449 263 344 q 311 621 263 553 q 446 723 360 689 q 642 757 532 757 q 837 723 753 757 q 969 621 921 689 q 1017 449 1017 553 q 969 276 1017 344 q 837 175 921 208 q 642 142 753 142 "},"R":{"ha":1147,"x_min":107,"x_max":1061,"o":"m 107 0 l 292 0 l 292 332 l 640 332 q 774 321 728 332 q 839 281 821 310 q 857 201 857 253 l 857 0 l 1042 0 l 1042 214 q 1010 327 1042 289 q 917 380 979 365 q 757 396 854 394 l 776 385 q 886 403 835 389 q 977 446 938 418 q 1039 518 1017 474 q 1061 626 1061 563 q 1018 781 1061 721 q 898 870 975 842 q 717 899 821 899 l 107 899 l 107 0 m 292 476 l 292 740 l 717 740 q 835 708 794 740 q 876 615 876 676 q 835 514 876 551 q 717 476 794 476 l 292 476 "},"Ŕ":{"ha":1147,"x_min":107,"x_max":1061,"o":"m 107 0 l 292 0 l 292 332 l 640 332 q 774 321 728 332 q 839 281 821 310 q 857 201 857 253 l 857 0 l 1042 0 l 1042 214 q 1010 327 1042 289 q 917 380 979 365 q 757 396 854 394 l 776 385 q 886 403 835 389 q 977 446 938 418 q 1039 518 1017 474 q 1061 626 1061 563 q 1018 781 1061 721 q 898 870 975 842 q 717 899 821 899 l 107 899 l 107 0 m 292 476 l 292 740 l 717 740 q 835 708 794 740 q 876 615 876 676 q 835 514 876 551 q 717 476 794 476 l 292 476 m 469 1007 l 642 1007 l 897 1226 l 658 1226 l 469 1007 "},"Ř":{"ha":1147,"x_min":107,"x_max":1061,"o":"m 107 0 l 292 0 l 292 332 l 640 332 q 774 321 728 332 q 839 281 821 310 q 857 201 857 253 l 857 0 l 1042 0 l 1042 214 q 1010 327 1042 289 q 917 380 979 365 q 757 396 854 394 l 776 385 q 886 403 835 389 q 977 446 938 418 q 1039 518 1017 474 q 1061 626 1061 563 q 1018 781 1061 721 q 898 870 975 842 q 717 899 821 899 l 107 899 l 107 0 m 292 476 l 292 740 l 717 740 q 835 708 794 740 q 876 615 876 676 q 835 514 876 551 q 717 476 794 476 l 292 476 m 628 1046 l 451 1226 l 256 1226 l 476 1007 l 665 1007 l 886 1226 l 690 1226 l 514 1046 l 628 1046 "},"Ŗ":{"ha":1147,"x_min":107,"x_max":1061,"o":"m 107 0 l 292 0 l 292 332 l 640 332 q 774 321 728 332 q 839 281 821 310 q 857 201 857 253 l 857 0 l 1042 0 l 1042 214 q 1010 327 1042 289 q 917 380 979 365 q 757 396 854 394 l 776 385 q 886 403 835 389 q 977 446 938 418 q 1039 518 1017 474 q 1061 626 1061 563 q 1018 781 1061 721 q 898 870 975 842 q 717 899 821 899 l 107 899 l 107 0 m 292 476 l 292 740 l 717 740 q 835 708 794 740 q 876 615 876 676 q 835 514 876 551 q 717 476 794 476 l 292 476 m 486 -353 l 486 -353 q 622 -287 575 -335 q 668 -164 668 -239 l 668 -92 l 456 -92 l 456 -219 l 542 -235 q 519 -273 540 -254 q 469 -306 499 -292 l 486 -353 "},"S":{"ha":964,"x_min":44,"x_max":908,"o":"m 47 303 q 59 225 44 268 q 108 139 74 182 q 199 60 143 96 q 331 2 254 24 q 507 -19 407 -19 q 735 14 647 -19 q 866 108 824 47 q 908 250 908 168 q 883 363 908 317 q 812 438 858 408 q 701 487 765 468 q 557 517 636 506 q 415 542 472 529 q 325 568 358 554 q 278 601 292 582 q 264 644 264 619 q 322 735 264 708 q 468 761 379 761 q 627 725 564 761 q 696 607 690 689 l 876 607 q 774 834 879 751 q 475 917 669 917 q 257 883 346 917 q 123 790 168 850 q 78 651 78 731 q 108 541 78 588 q 190 463 138 494 q 310 410 242 431 q 454 379 378 390 q 611 352 551 365 q 699 319 671 339 q 726 261 726 299 q 704 194 726 222 q 636 151 682 167 q 519 136 590 136 q 379 158 442 136 q 278 217 317 179 q 235 303 240 256 l 47 303 "},"Ś":{"ha":964,"x_min":44,"x_max":908,"o":"m 47 303 q 59 225 44 268 q 108 139 74 182 q 199 60 143 96 q 331 2 254 24 q 507 -19 407 -19 q 735 14 647 -19 q 866 108 824 47 q 908 250 908 168 q 883 363 908 317 q 812 438 858 408 q 701 487 765 468 q 557 517 636 506 q 415 542 472 529 q 325 568 358 554 q 278 601 292 582 q 264 644 264 619 q 322 735 264 708 q 468 761 379 761 q 627 725 564 761 q 696 607 690 689 l 876 607 q 774 834 879 751 q 475 917 669 917 q 257 883 346 917 q 123 790 168 850 q 78 651 78 731 q 108 541 78 588 q 190 463 138 494 q 310 410 242 431 q 454 379 378 390 q 611 352 551 365 q 699 319 671 339 q 726 261 726 299 q 704 194 726 222 q 636 151 682 167 q 519 136 590 136 q 379 158 442 136 q 278 217 317 179 q 235 303 240 256 l 47 303 m 374 1013 l 546 1013 l 801 1232 l 563 1232 l 374 1013 "},"Š":{"ha":964,"x_min":44,"x_max":908,"o":"m 47 303 q 59 225 44 268 q 108 139 74 182 q 199 60 143 96 q 331 2 254 24 q 507 -19 407 -19 q 735 14 647 -19 q 866 108 824 47 q 908 250 908 168 q 883 363 908 317 q 812 438 858 408 q 701 487 765 468 q 557 517 636 506 q 415 542 472 529 q 325 568 358 554 q 278 601 292 582 q 264 644 264 619 q 322 735 264 708 q 468 761 379 761 q 627 725 564 761 q 696 607 690 689 l 876 607 q 774 834 879 751 q 475 917 669 917 q 257 883 346 917 q 123 790 168 850 q 78 651 78 731 q 108 541 78 588 q 190 463 138 494 q 310 410 242 431 q 454 379 378 390 q 611 352 551 365 q 699 319 671 339 q 726 261 726 299 q 704 194 726 222 q 636 151 682 167 q 519 136 590 136 q 379 158 442 136 q 278 217 317 179 q 235 303 240 256 l 47 303 m 532 1051 l 356 1232 l 160 1232 l 381 1013 l 569 1013 l 790 1232 l 594 1232 l 418 1051 l 532 1051 "},"Ş":{"ha":964,"x_min":44,"x_max":908,"o":"m 346 -168 l 215 -168 q 238 -251 213 -211 q 312 -315 263 -290 q 431 -339 361 -339 q 595 -295 540 -339 q 650 -193 650 -251 q 631 -124 650 -151 q 579 -81 611 -97 q 508 -57 547 -64 l 396 -96 q 464 -118 443 -104 q 491 -146 485 -132 q 497 -169 497 -160 q 481 -208 497 -192 q 426 -225 465 -225 q 378 -214 394 -225 q 355 -189 361 -203 q 346 -168 349 -175 m 396 17 l 396 -96 l 547 -106 l 547 17 l 396 17 m 47 303 q 59 225 44 268 q 108 139 74 182 q 199 60 143 96 q 331 2 254 24 q 507 -19 407 -19 q 735 14 647 -19 q 866 108 824 47 q 908 250 908 168 q 883 363 908 317 q 812 438 858 408 q 701 487 765 468 q 557 517 636 506 q 415 542 472 529 q 325 568 358 554 q 278 601 292 582 q 264 644 264 619 q 322 735 264 708 q 468 761 379 761 q 627 725 564 761 q 696 607 690 689 l 876 607 q 774 834 879 751 q 475 917 669 917 q 257 883 346 917 q 123 790 168 850 q 78 651 78 731 q 108 541 78 588 q 190 463 138 494 q 310 410 242 431 q 454 379 378 390 q 611 352 551 365 q 699 319 671 339 q 726 261 726 299 q 704 194 726 222 q 636 151 682 167 q 519 136 590 136 q 379 158 442 136 q 278 217 317 179 q 235 303 240 256 l 47 303 "},"Ș":{"ha":964,"x_min":44,"x_max":908,"o":"m 47 303 q 59 225 44 268 q 108 139 74 182 q 199 60 143 96 q 331 2 254 24 q 507 -19 407 -19 q 735 14 647 -19 q 866 108 824 47 q 908 250 908 168 q 883 363 908 317 q 812 438 858 408 q 701 487 765 468 q 557 517 636 506 q 415 542 472 529 q 325 568 358 554 q 278 601 292 582 q 264 644 264 619 q 322 735 264 708 q 468 761 379 761 q 627 725 564 761 q 696 607 690 689 l 876 607 q 774 834 879 751 q 475 917 669 917 q 257 883 346 917 q 123 790 168 850 q 78 651 78 731 q 108 541 78 588 q 190 463 138 494 q 310 410 242 431 q 454 379 378 390 q 611 352 551 365 q 699 319 671 339 q 726 261 726 299 q 704 194 726 222 q 636 151 682 167 q 519 136 590 136 q 379 158 442 136 q 278 217 317 179 q 235 303 240 256 l 47 303 m 401 -353 l 401 -353 q 537 -287 490 -335 q 583 -164 583 -239 l 583 -92 l 371 -92 l 371 -219 l 457 -235 q 435 -273 456 -254 q 385 -306 414 -292 l 401 -353 "},"T":{"ha":1003,"x_min":28,"x_max":975,"o":"m 28 899 l 28 744 l 975 744 l 975 899 l 28 899 m 410 764 l 410 0 l 594 0 l 594 764 l 410 764 "},"Ŧ":{"ha":1003,"x_min":28,"x_max":975,"o":"m 111 397 l 892 397 l 892 501 l 111 501 l 111 397 m 28 899 l 28 744 l 975 744 l 975 899 l 28 899 m 410 764 l 410 0 l 594 0 l 594 764 l 410 764 "},"Ť":{"ha":1003,"x_min":28,"x_max":975,"o":"m 28 899 l 28 744 l 975 744 l 975 899 l 28 899 m 410 764 l 410 0 l 594 0 l 594 764 l 410 764 m 563 1046 l 386 1226 l 190 1226 l 411 1007 l 600 1007 l 821 1226 l 625 1226 l 449 1046 l 563 1046 "},"Ţ":{"ha":1003,"x_min":28,"x_max":975,"o":"m 369 -161 l 239 -161 q 261 -244 236 -204 q 335 -308 286 -283 q 454 -332 385 -332 q 619 -288 564 -332 q 674 -186 674 -244 q 654 -117 674 -144 q 603 -74 635 -90 q 532 -50 571 -57 l 419 -89 q 488 -111 467 -97 q 515 -139 508 -125 q 521 -162 521 -153 q 505 -201 521 -185 q 450 -218 489 -218 q 401 -207 418 -218 q 378 -182 385 -196 q 369 -161 372 -168 m 419 24 l 419 -89 l 571 -99 l 571 24 l 419 24 m 28 899 l 28 744 l 975 744 l 975 899 l 28 899 m 410 764 l 410 0 l 594 0 l 594 764 l 410 764 "},"Ț":{"ha":1003,"x_min":28,"x_max":975,"o":"m 28 899 l 28 744 l 975 744 l 975 899 l 28 899 m 410 764 l 410 0 l 594 0 l 594 764 l 410 764 m 425 -346 l 425 -346 q 560 -280 514 -328 q 607 -157 607 -232 l 607 -85 l 394 -85 l 394 -212 l 481 -228 q 458 -266 479 -247 q 408 -299 438 -285 l 425 -346 "},"U":{"ha":1224,"x_min":107,"x_max":1117,"o":"m 932 397 q 890 237 932 292 q 776 162 847 182 q 614 142 704 142 q 448 162 521 142 q 333 237 375 182 q 292 397 292 292 l 292 899 l 107 899 l 107 378 q 133 222 107 289 q 204 110 158 156 q 313 35 250 64 q 453 -6 376 7 q 614 -18 529 -18 q 770 -6 696 -18 q 908 35 844 7 q 1018 110 971 64 q 1091 222 1065 156 q 1117 378 1117 289 l 1117 899 l 932 899 l 932 397 "},"Ú":{"ha":1224,"x_min":107,"x_max":1117,"o":"m 932 397 q 890 237 932 292 q 776 162 847 182 q 614 142 704 142 q 448 162 521 142 q 333 237 375 182 q 292 397 292 292 l 292 899 l 107 899 l 107 378 q 133 222 107 289 q 204 110 158 156 q 313 35 250 64 q 453 -6 376 7 q 614 -18 529 -18 q 770 -6 696 -18 q 908 35 844 7 q 1018 110 971 64 q 1091 222 1065 156 q 1117 378 1117 289 l 1117 899 l 932 899 l 932 397 m 517 1007 l 689 1007 l 944 1226 l 706 1226 l 517 1007 "},"Û":{"ha":1224,"x_min":107,"x_max":1117,"o":"m 932 397 q 890 237 932 292 q 776 162 847 182 q 614 142 704 142 q 448 162 521 142 q 333 237 375 182 q 292 397 292 292 l 292 899 l 107 899 l 107 378 q 133 222 107 289 q 204 110 158 156 q 313 35 250 64 q 453 -6 376 7 q 614 -18 529 -18 q 770 -6 696 -18 q 908 35 844 7 q 1018 110 971 64 q 1091 222 1065 156 q 1117 378 1117 289 l 1117 899 l 932 899 l 932 397 m 708 1226 l 519 1226 l 293 1007 l 489 1007 l 671 1189 l 557 1190 l 738 1007 l 933 1007 l 708 1226 "},"Ü":{"ha":1224,"x_min":107,"x_max":1117,"o":"m 932 397 q 890 237 932 292 q 776 162 847 182 q 614 142 704 142 q 448 162 521 142 q 333 237 375 182 q 292 397 292 292 l 292 899 l 107 899 l 107 378 q 133 222 107 289 q 204 110 158 156 q 313 35 250 64 q 453 -6 376 7 q 614 -18 529 -18 q 770 -6 696 -18 q 908 35 844 7 q 1018 110 971 64 q 1091 222 1065 156 q 1117 378 1117 289 l 1117 899 l 932 899 l 932 397 m 565 899 l 356 899 l 356 740 l 565 740 l 565 899 m 867 899 l 657 899 l 657 740 l 867 740 l 867 899 "},"Ù":{"ha":1224,"x_min":107,"x_max":1117,"o":"m 932 397 q 890 237 932 292 q 776 162 847 182 q 614 142 704 142 q 448 162 521 142 q 333 237 375 182 q 292 397 292 292 l 292 899 l 107 899 l 107 378 q 133 222 107 289 q 204 110 158 156 q 313 35 250 64 q 453 -6 376 7 q 614 -18 529 -18 q 770 -6 696 -18 q 908 35 844 7 q 1018 110 971 64 q 1091 222 1065 156 q 1117 378 1117 289 l 1117 899 l 932 899 l 932 397 m 536 1007 l 708 1007 l 519 1226 l 281 1226 l 536 1007 "},"Ű":{"ha":1224,"x_min":107,"x_max":1117,"o":"m 932 397 q 890 237 932 292 q 776 162 847 182 q 614 142 704 142 q 448 162 521 142 q 333 237 375 182 q 292 397 292 292 l 292 899 l 107 899 l 107 378 q 133 222 107 289 q 204 110 158 156 q 313 35 250 64 q 453 -6 376 7 q 614 -18 529 -18 q 770 -6 696 -18 q 908 35 844 7 q 1018 110 971 64 q 1091 222 1065 156 q 1117 378 1117 289 l 1117 899 l 932 899 l 932 397 m 682 919 l 824 919 l 1039 1139 l 850 1139 l 682 919 m 382 919 l 524 919 l 731 1139 l 542 1139 l 382 919 "},"Ū":{"ha":1224,"x_min":107,"x_max":1117,"o":"m 932 397 q 890 237 932 292 q 776 162 847 182 q 614 142 704 142 q 448 162 521 142 q 333 237 375 182 q 292 397 292 292 l 292 899 l 107 899 l 107 378 q 133 222 107 289 q 204 110 158 156 q 313 35 250 64 q 453 -6 376 7 q 614 -18 529 -18 q 770 -6 696 -18 q 908 35 844 7 q 1018 110 971 64 q 1091 222 1065 156 q 1117 378 1117 289 l 1117 899 l 932 899 l 932 397 m 401 1018 l 828 1018 l 828 1131 l 401 1131 l 401 1018 "},"Ų":{"ha":1224,"x_min":107,"x_max":1117,"o":"m 893 -317 l 893 -221 q 805 -208 843 -221 q 746 -172 767 -196 q 725 -115 725 -149 q 762 -40 725 -69 q 856 13 799 -10 l 856 39 q 718 3 779 25 q 621 -53 657 -18 q 585 -143 585 -87 q 668 -270 585 -224 q 893 -317 751 -317 m 932 397 q 890 237 932 292 q 776 162 847 182 q 614 142 704 142 q 448 162 521 142 q 333 237 375 182 q 292 397 292 292 l 292 899 l 107 899 l 107 378 q 133 222 107 289 q 204 110 158 156 q 313 35 250 64 q 453 -6 376 7 q 614 -18 529 -18 q 770 -6 696 -18 q 908 35 844 7 q 1018 110 971 64 q 1091 222 1065 156 q 1117 378 1117 289 l 1117 899 l 932 899 l 932 397 "},"Ů":{"ha":1224,"x_min":107,"x_max":1117,"o":"m 932 397 q 890 237 932 292 q 776 162 847 182 q 614 142 704 142 q 448 162 521 142 q 333 237 375 182 q 292 397 292 292 l 292 899 l 107 899 l 107 378 q 133 222 107 289 q 204 110 158 156 q 313 35 250 64 q 453 -6 376 7 q 614 -18 529 -18 q 770 -6 696 -18 q 908 35 844 7 q 1018 110 971 64 q 1091 222 1065 156 q 1117 378 1117 289 l 1117 899 l 932 899 l 932 397 m 614 974 q 757 1016 704 974 q 810 1129 810 1058 q 757 1241 810 1199 q 614 1283 704 1283 q 470 1241 524 1283 q 417 1129 417 1199 q 470 1016 417 1058 q 614 974 524 974 m 614 1054 q 542 1073 564 1054 q 521 1129 521 1092 q 542 1184 521 1165 q 614 1203 564 1203 q 684 1184 663 1203 q 706 1129 706 1165 q 684 1073 706 1092 q 614 1054 663 1054 "},"V":{"ha":1076,"x_min":28,"x_max":1049,"o":"m 425 0 l 656 0 l 1049 899 l 847 899 l 508 88 l 572 88 l 232 899 l 28 899 l 425 0 "},"W":{"ha":1806,"x_min":28,"x_max":1778,"o":"m 407 0 l 633 0 l 935 779 l 876 779 l 1176 0 l 1403 0 l 1778 899 l 1578 899 l 1257 103 l 1317 101 l 1011 899 l 799 899 l 493 101 l 553 103 l 232 899 l 28 899 l 407 0 "},"Ẃ":{"ha":1806,"x_min":28,"x_max":1778,"o":"m 407 0 l 633 0 l 935 779 l 876 779 l 1176 0 l 1403 0 l 1778 899 l 1578 899 l 1257 103 l 1317 101 l 1011 899 l 799 899 l 493 101 l 553 103 l 232 899 l 28 899 l 407 0 m 811 1029 l 983 1029 l 1239 1249 l 1000 1249 l 811 1029 "},"Ŵ":{"ha":1806,"x_min":28,"x_max":1778,"o":"m 407 0 l 633 0 l 935 779 l 876 779 l 1176 0 l 1403 0 l 1778 899 l 1578 899 l 1257 103 l 1317 101 l 1011 899 l 799 899 l 493 101 l 553 103 l 232 899 l 28 899 l 407 0 m 1003 1249 l 814 1249 l 588 1029 l 783 1029 l 965 1211 l 851 1213 l 1032 1029 l 1228 1029 l 1003 1249 "},"Ẅ":{"ha":1806,"x_min":28,"x_max":1778,"o":"m 407 0 l 633 0 l 935 779 l 876 779 l 1176 0 l 1403 0 l 1778 899 l 1578 899 l 1257 103 l 1317 101 l 1011 899 l 799 899 l 493 101 l 553 103 l 232 899 l 28 899 l 407 0 m 604 940 l 394 940 l 394 782 l 604 782 l 604 940 m 1414 940 l 1204 940 l 1204 782 l 1414 782 l 1414 940 "},"Ẁ":{"ha":1806,"x_min":28,"x_max":1778,"o":"m 407 0 l 633 0 l 935 779 l 876 779 l 1176 0 l 1403 0 l 1778 899 l 1578 899 l 1257 103 l 1317 101 l 1011 899 l 799 899 l 493 101 l 553 103 l 232 899 l 28 899 l 407 0 m 831 1029 l 1003 1029 l 814 1249 l 575 1249 l 831 1029 "},"X":{"ha":1083,"x_min":54,"x_max":1029,"o":"m 800 899 l 496 525 l 492 521 l 54 0 l 279 0 l 594 397 l 600 403 l 1025 899 l 800 899 m 293 899 l 68 899 l 479 406 l 483 403 l 794 0 l 1029 0 l 596 518 l 593 522 l 293 899 "},"Y":{"ha":1028,"x_min":26,"x_max":1001,"o":"m 1001 899 l 788 899 l 461 361 l 572 361 l 240 899 l 26 899 l 421 283 l 421 0 l 607 0 l 607 283 l 1001 899 "},"Ý":{"ha":1028,"x_min":26,"x_max":1001,"o":"m 1001 899 l 788 899 l 461 361 l 572 361 l 240 899 l 26 899 l 421 283 l 421 0 l 607 0 l 607 283 l 1001 899 m 417 1007 l 589 1007 l 844 1226 l 606 1226 l 417 1007 "},"Ŷ":{"ha":1028,"x_min":26,"x_max":1001,"o":"m 1001 899 l 788 899 l 461 361 l 572 361 l 240 899 l 26 899 l 421 283 l 421 0 l 607 0 l 607 283 l 1001 899 m 608 1226 l 419 1226 l 193 1007 l 389 1007 l 571 1189 l 457 1190 l 638 1007 l 833 1007 l 608 1226 "},"Ÿ":{"ha":1028,"x_min":26,"x_max":1001,"o":"m 1001 899 l 788 899 l 461 361 l 572 361 l 240 899 l 26 899 l 421 283 l 421 0 l 607 0 l 607 283 l 1001 899 m 468 1167 l 258 1167 l 258 1008 l 468 1008 l 468 1167 m 769 1167 l 560 1167 l 560 1008 l 769 1008 l 769 1167 "},"Ỳ":{"ha":1028,"x_min":26,"x_max":1001,"o":"m 1001 899 l 788 899 l 461 361 l 572 361 l 240 899 l 26 899 l 421 283 l 421 0 l 607 0 l 607 283 l 1001 899 m 436 1007 l 608 1007 l 419 1226 l 181 1226 l 436 1007 "},"Z":{"ha":1140,"x_min":88,"x_max":1053,"o":"m 88 899 l 88 744 l 906 744 l 889 796 l 88 154 l 88 0 l 1053 0 l 1053 154 l 235 154 l 251 103 l 1053 744 l 1053 899 l 88 899 "},"Ź":{"ha":1140,"x_min":88,"x_max":1053,"o":"m 88 899 l 88 744 l 906 744 l 889 796 l 88 154 l 88 0 l 1053 0 l 1053 154 l 235 154 l 251 103 l 1053 744 l 1053 899 l 88 899 m 474 1029 l 646 1029 l 901 1249 l 663 1249 l 474 1029 "},"Ž":{"ha":1140,"x_min":88,"x_max":1053,"o":"m 88 899 l 88 744 l 906 744 l 889 796 l 88 154 l 88 0 l 1053 0 l 1053 154 l 235 154 l 251 103 l 1053 744 l 1053 899 l 88 899 m 632 1068 l 456 1249 l 260 1249 l 481 1029 l 669 1029 l 890 1249 l 694 1249 l 518 1068 l 632 1068 "},"Ż":{"ha":1140,"x_min":88,"x_max":1053,"o":"m 88 899 l 88 744 l 906 744 l 889 796 l 88 154 l 88 0 l 1053 0 l 1053 154 l 235 154 l 251 103 l 1053 744 l 1053 899 l 88 899 m 676 1190 l 467 1190 l 467 1032 l 676 1032 l 676 1190 "},"a":{"ha":1004,"x_min":50,"x_max":924,"o":"m 419 -15 q 576 17 511 -15 q 682 103 642 50 q 742 220 722 157 q 761 344 761 283 q 728 528 761 446 q 622 658 694 610 q 429 706 549 706 q 235 660 321 706 q 100 535 150 615 q 50 344 50 454 q 99 156 50 238 q 233 30 149 75 q 419 -15 317 -15 m 478 124 q 351 151 406 124 q 265 228 296 179 q 235 344 235 278 q 299 505 235 444 q 478 565 363 565 q 619 540 560 565 q 710 465 678 514 q 743 344 743 415 q 711 229 743 279 q 619 151 679 179 q 478 124 560 124 m 743 690 l 743 178 q 746 96 743 138 q 752 27 749 54 q 756 0 756 0 l 924 0 l 924 690 l 743 690 "},"á":{"ha":1004,"x_min":50,"x_max":924,"o":"m 419 -15 q 576 17 511 -15 q 682 103 642 50 q 742 220 722 157 q 761 344 761 283 q 728 528 761 446 q 622 658 694 610 q 429 706 549 706 q 235 660 321 706 q 100 535 150 615 q 50 344 50 454 q 99 156 50 238 q 233 30 149 75 q 419 -15 317 -15 m 478 124 q 351 151 406 124 q 265 228 296 179 q 235 344 235 278 q 299 505 235 444 q 478 565 363 565 q 619 540 560 565 q 710 465 678 514 q 743 344 743 415 q 711 229 743 279 q 619 151 679 179 q 478 124 560 124 m 743 690 l 743 178 q 746 96 743 138 q 752 27 749 54 q 756 0 756 0 l 924 0 l 924 690 l 743 690 m 381 835 l 553 835 l 808 1054 l 569 1054 l 381 835 "},"ă":{"ha":1004,"x_min":50,"x_max":924,"o":"m 419 -15 q 576 17 511 -15 q 682 103 642 50 q 742 220 722 157 q 761 344 761 283 q 728 528 761 446 q 622 658 694 610 q 429 706 549 706 q 235 660 321 706 q 100 535 150 615 q 50 344 50 454 q 99 156 50 238 q 233 30 149 75 q 419 -15 317 -15 m 478 124 q 351 151 406 124 q 265 228 296 179 q 235 344 235 278 q 299 505 235 444 q 478 565 363 565 q 619 540 560 565 q 710 465 678 514 q 743 344 743 415 q 711 229 743 279 q 619 151 679 179 q 478 124 560 124 m 743 690 l 743 178 q 746 96 743 138 q 752 27 749 54 q 756 0 756 0 l 924 0 l 924 690 l 743 690 m 769 1014 l 638 1014 q 590 941 628 967 q 478 915 551 915 q 367 941 406 915 q 318 1014 329 967 l 186 1014 q 229 906 196 954 q 324 831 263 858 q 478 804 385 804 q 633 831 571 804 q 728 906 694 858 q 769 1014 761 954 "},"â":{"ha":1004,"x_min":50,"x_max":924,"o":"m 419 -15 q 576 17 511 -15 q 682 103 642 50 q 742 220 722 157 q 761 344 761 283 q 728 528 761 446 q 622 658 694 610 q 429 706 549 706 q 235 660 321 706 q 100 535 150 615 q 50 344 50 454 q 99 156 50 238 q 233 30 149 75 q 419 -15 317 -15 m 478 124 q 351 151 406 124 q 265 228 296 179 q 235 344 235 278 q 299 505 235 444 q 478 565 363 565 q 619 540 560 565 q 710 465 678 514 q 743 344 743 415 q 711 229 743 279 q 619 151 679 179 q 478 124 560 124 m 743 690 l 743 178 q 746 96 743 138 q 752 27 749 54 q 756 0 756 0 l 924 0 l 924 690 l 743 690 m 572 1054 l 383 1054 l 157 835 l 353 835 l 535 1017 l 421 1018 l 601 835 l 797 835 l 572 1054 "},"ä":{"ha":1004,"x_min":50,"x_max":924,"o":"m 419 -15 q 576 17 511 -15 q 682 103 642 50 q 742 220 722 157 q 761 344 761 283 q 728 528 761 446 q 622 658 694 610 q 429 706 549 706 q 235 660 321 706 q 100 535 150 615 q 50 344 50 454 q 99 156 50 238 q 233 30 149 75 q 419 -15 317 -15 m 478 124 q 351 151 406 124 q 265 228 296 179 q 235 344 235 278 q 299 505 235 444 q 478 565 363 565 q 619 540 560 565 q 710 465 678 514 q 743 344 743 415 q 711 229 743 279 q 619 151 679 179 q 478 124 560 124 m 743 690 l 743 178 q 746 96 743 138 q 752 27 749 54 q 756 0 756 0 l 924 0 l 924 690 l 743 690 m 432 994 l 222 994 l 222 836 l 432 836 l 432 994 m 733 994 l 524 994 l 524 836 l 733 836 l 733 994 "},"à":{"ha":1004,"x_min":50,"x_max":924,"o":"m 419 -15 q 576 17 511 -15 q 682 103 642 50 q 742 220 722 157 q 761 344 761 283 q 728 528 761 446 q 622 658 694 610 q 429 706 549 706 q 235 660 321 706 q 100 535 150 615 q 50 344 50 454 q 99 156 50 238 q 233 30 149 75 q 419 -15 317 -15 m 478 124 q 351 151 406 124 q 265 228 296 179 q 235 344 235 278 q 299 505 235 444 q 478 565 363 565 q 619 540 560 565 q 710 465 678 514 q 743 344 743 415 q 711 229 743 279 q 619 151 679 179 q 478 124 560 124 m 743 690 l 743 178 q 746 96 743 138 q 752 27 749 54 q 756 0 756 0 l 924 0 l 924 690 l 743 690 m 400 835 l 572 835 l 383 1054 l 144 1054 l 400 835 "},"ā":{"ha":1004,"x_min":50,"x_max":924,"o":"m 419 -15 q 576 17 511 -15 q 682 103 642 50 q 742 220 722 157 q 761 344 761 283 q 728 528 761 446 q 622 658 694 610 q 429 706 549 706 q 235 660 321 706 q 100 535 150 615 q 50 344 50 454 q 99 156 50 238 q 233 30 149 75 q 419 -15 317 -15 m 478 124 q 351 151 406 124 q 265 228 296 179 q 235 344 235 278 q 299 505 235 444 q 478 565 363 565 q 619 540 560 565 q 710 465 678 514 q 743 344 743 415 q 711 229 743 279 q 619 151 679 179 q 478 124 560 124 m 743 690 l 743 178 q 746 96 743 138 q 752 27 749 54 q 756 0 756 0 l 924 0 l 924 690 l 743 690 m 265 846 l 692 846 l 692 958 l 265 958 l 265 846 "},"ą":{"ha":1004,"x_min":50,"x_max":924,"o":"m 892 -310 l 892 -214 q 803 -201 842 -214 q 744 -166 765 -189 q 724 -110 724 -143 q 760 -36 724 -62 q 854 0 797 -10 l 854 31 q 717 6 778 24 q 619 -47 656 -12 q 583 -136 583 -81 q 667 -263 583 -217 q 892 -310 750 -310 m 419 -15 q 576 17 511 -15 q 682 103 642 50 q 742 220 722 157 q 761 344 761 283 q 728 528 761 446 q 622 658 694 610 q 429 706 549 706 q 235 660 321 706 q 100 535 150 615 q 50 344 50 454 q 99 156 50 238 q 233 30 149 75 q 419 -15 317 -15 m 478 124 q 351 151 406 124 q 265 228 296 179 q 235 344 235 278 q 299 505 235 444 q 478 565 363 565 q 619 540 560 565 q 710 465 678 514 q 743 344 743 415 q 711 229 743 279 q 619 151 679 179 q 478 124 560 124 m 743 690 l 743 178 q 746 96 743 138 q 752 27 749 54 q 756 0 756 0 l 924 0 l 924 690 l 743 690 "},"å":{"ha":1004,"x_min":50,"x_max":924,"o":"m 419 -15 q 576 17 511 -15 q 682 103 642 50 q 742 220 722 157 q 761 344 761 283 q 728 528 761 446 q 622 658 694 610 q 429 706 549 706 q 235 660 321 706 q 100 535 150 615 q 50 344 50 454 q 99 156 50 238 q 233 30 149 75 q 419 -15 317 -15 m 478 124 q 351 151 406 124 q 265 228 296 179 q 235 344 235 278 q 299 505 235 444 q 478 565 363 565 q 619 540 560 565 q 710 465 678 514 q 743 344 743 415 q 711 229 743 279 q 619 151 679 179 q 478 124 560 124 m 743 690 l 743 178 q 746 96 743 138 q 752 27 749 54 q 756 0 756 0 l 924 0 l 924 690 l 743 690 m 478 801 q 621 844 568 801 q 674 957 674 886 q 621 1069 674 1026 q 478 1111 568 1111 q 334 1069 388 1111 q 281 957 281 1026 q 334 844 281 886 q 478 801 388 801 m 478 882 q 406 901 428 882 q 385 957 385 919 q 406 1012 385 993 q 478 1031 428 1031 q 548 1012 526 1031 q 569 957 569 993 q 548 901 569 919 q 478 882 526 882 "},"ã":{"ha":1004,"x_min":50,"x_max":924,"o":"m 419 -15 q 576 17 511 -15 q 682 103 642 50 q 742 220 722 157 q 761 344 761 283 q 728 528 761 446 q 622 658 694 610 q 429 706 549 706 q 235 660 321 706 q 100 535 150 615 q 50 344 50 454 q 99 156 50 238 q 233 30 149 75 q 419 -15 317 -15 m 478 124 q 351 151 406 124 q 265 228 296 179 q 235 344 235 278 q 299 505 235 444 q 478 565 363 565 q 619 540 560 565 q 710 465 678 514 q 743 344 743 415 q 711 229 743 279 q 619 151 679 179 q 478 124 560 124 m 743 690 l 743 178 q 746 96 743 138 q 752 27 749 54 q 756 0 756 0 l 924 0 l 924 690 l 743 690 m 599 833 q 699 860 657 833 q 766 932 740 888 q 803 1026 792 976 l 674 1026 q 656 989 667 1008 q 628 956 646 969 q 581 943 611 943 q 524 956 550 943 q 469 985 497 968 q 408 1015 440 1003 q 332 1028 375 1028 q 233 1001 275 1028 q 166 930 192 974 q 129 835 140 886 l 257 835 q 275 874 265 854 q 302 906 285 893 q 349 918 319 918 q 410 906 382 918 q 465 876 438 893 q 525 846 493 858 q 599 833 557 833 "},"æ":{"ha":1758,"x_min":50,"x_max":1714,"o":"m 419 -15 q 576 17 511 -15 q 682 103 642 50 q 742 220 722 157 q 761 344 761 283 q 728 528 761 446 q 622 658 694 610 q 429 706 549 706 q 235 660 321 706 q 100 535 150 615 q 50 344 50 454 q 99 156 50 238 q 233 30 149 75 q 419 -15 317 -15 m 478 124 q 351 151 406 124 q 265 228 296 179 q 235 344 235 278 q 299 505 235 444 q 478 565 363 565 q 619 540 560 565 q 710 465 678 514 q 743 344 743 415 q 711 229 743 279 q 619 151 679 179 q 478 124 560 124 m 743 690 l 743 178 q 747 83 743 133 q 756 0 751 32 l 924 0 l 924 690 l 743 690 m 1529 226 q 1455 149 1513 179 q 1311 119 1397 119 q 1177 144 1233 119 q 1088 213 1121 169 q 1049 308 1056 256 l 1707 308 q 1670 530 1714 443 q 1536 660 1626 617 q 1310 703 1446 703 q 1077 660 1176 703 q 922 535 978 617 q 867 340 867 454 q 924 146 867 226 q 1082 23 981 65 q 1315 -19 1183 -19 q 1515 13 1433 -19 q 1645 100 1597 44 q 1704 226 1693 156 l 1529 226 m 1301 565 q 1462 524 1403 565 q 1528 414 1521 483 l 1058 414 q 1139 522 1076 478 q 1301 565 1201 565 "},"b":{"ha":1033,"x_min":111,"x_max":983,"o":"m 615 -15 q 803 30 719 -15 q 935 156 886 75 q 983 344 983 238 q 935 535 983 454 q 805 660 888 615 q 615 706 722 706 q 457 678 522 706 q 351 601 392 650 q 292 486 311 551 q 274 344 274 421 q 293 220 274 283 q 353 103 313 157 q 458 17 393 50 q 615 -15 524 -15 m 557 124 q 415 151 475 124 q 324 229 356 179 q 292 344 292 279 q 324 465 292 415 q 417 540 357 514 q 557 567 476 567 q 735 506 672 567 q 799 344 799 444 q 769 228 799 278 q 685 151 739 179 q 557 124 631 124 m 292 968 l 111 968 l 111 0 l 279 0 q 288 83 283 32 q 292 178 292 133 l 292 968 "},"c":{"ha":953,"x_min":50,"x_max":903,"o":"m 903 272 l 738 272 q 653 161 715 200 q 494 122 592 122 q 363 147 422 122 q 268 220 303 171 q 233 343 233 269 q 269 467 233 418 q 363 542 304 517 q 494 567 422 567 q 649 528 585 567 q 736 419 713 489 l 901 419 q 842 574 893 510 q 704 672 792 638 q 494 706 617 706 q 266 664 367 706 q 108 542 165 622 q 50 343 50 461 q 108 145 50 225 q 266 24 165 65 q 494 -17 367 -17 q 706 17 617 -17 q 845 117 794 51 q 903 272 896 182 "},"ć":{"ha":953,"x_min":50,"x_max":903,"o":"m 903 272 l 738 272 q 653 161 715 200 q 494 122 592 122 q 363 147 422 122 q 268 220 303 171 q 233 343 233 269 q 269 467 233 418 q 363 542 304 517 q 494 567 422 567 q 649 528 585 567 q 736 419 713 489 l 901 419 q 842 574 893 510 q 704 672 792 638 q 494 706 617 706 q 266 664 367 706 q 108 542 165 622 q 50 343 50 461 q 108 145 50 225 q 266 24 165 65 q 494 -17 367 -17 q 706 17 617 -17 q 845 117 794 51 q 903 272 896 182 m 388 835 l 560 835 l 815 1054 l 576 1054 l 388 835 "},"č":{"ha":953,"x_min":50,"x_max":903,"o":"m 903 272 l 738 272 q 653 161 715 200 q 494 122 592 122 q 363 147 422 122 q 268 220 303 171 q 233 343 233 269 q 269 467 233 418 q 363 542 304 517 q 494 567 422 567 q 649 528 585 567 q 736 419 713 489 l 901 419 q 842 574 893 510 q 704 672 792 638 q 494 706 617 706 q 266 664 367 706 q 108 542 165 622 q 50 343 50 461 q 108 145 50 225 q 266 24 165 65 q 494 -17 367 -17 q 706 17 617 -17 q 845 117 794 51 q 903 272 896 182 m 546 874 l 369 1054 l 174 1054 l 394 835 l 583 835 l 804 1054 l 608 1054 l 432 874 l 546 874 "},"ç":{"ha":953,"x_min":50,"x_max":903,"o":"m 361 -175 l 231 -175 q 253 -258 228 -218 q 327 -322 278 -297 q 446 -346 376 -346 q 610 -302 556 -346 q 665 -200 665 -258 q 646 -131 665 -158 q 594 -87 626 -104 q 524 -64 563 -71 l 411 -103 q 479 -125 458 -111 q 506 -153 500 -139 q 513 -176 513 -167 q 497 -215 513 -199 q 442 -232 481 -232 q 393 -221 410 -232 q 370 -196 376 -210 q 361 -175 364 -182 m 411 10 l 411 -103 l 563 -112 l 563 10 l 411 10 m 903 272 l 738 272 q 653 161 715 200 q 494 122 592 122 q 363 147 422 122 q 268 220 303 171 q 233 343 233 269 q 269 467 233 418 q 363 542 304 517 q 494 567 422 567 q 649 528 585 567 q 736 419 713 489 l 901 419 q 842 574 893 510 q 704 672 792 638 q 494 706 617 706 q 266 664 367 706 q 108 542 165 622 q 50 343 50 461 q 108 145 50 225 q 266 24 165 65 q 494 -17 367 -17 q 706 17 617 -17 q 845 117 794 51 q 903 272 896 182 "},"ċ":{"ha":953,"x_min":50,"x_max":903,"o":"m 903 272 l 738 272 q 653 161 715 200 q 494 122 592 122 q 363 147 422 122 q 268 220 303 171 q 233 343 233 269 q 269 467 233 418 q 363 542 304 517 q 494 567 422 567 q 649 528 585 567 q 736 419 713 489 l 901 419 q 842 574 893 510 q 704 672 792 638 q 494 706 617 706 q 266 664 367 706 q 108 542 165 622 q 50 343 50 461 q 108 145 50 225 q 266 24 165 65 q 494 -17 367 -17 q 706 17 617 -17 q 845 117 794 51 q 903 272 896 182 m 590 996 l 381 996 l 381 838 l 590 838 l 590 996 "},"d":{"ha":1035,"x_min":50,"x_max":924,"o":"m 419 -15 q 576 17 511 -15 q 682 103 642 50 q 742 220 722 157 q 761 344 761 283 q 742 486 761 421 q 683 601 724 551 q 578 678 643 650 q 419 706 513 706 q 229 660 313 706 q 98 535 146 615 q 50 344 50 454 q 99 156 50 238 q 231 30 147 75 q 419 -15 315 -15 m 478 124 q 351 151 406 124 q 265 228 296 179 q 235 344 235 278 q 299 506 235 444 q 478 567 363 567 q 619 540 560 567 q 710 465 678 514 q 743 344 743 415 q 711 229 743 279 q 619 151 679 179 q 478 124 560 124 m 743 968 l 743 178 q 747 83 743 133 q 756 0 751 32 l 924 0 l 924 968 l 743 968 "},"ð":{"ha":961,"x_min":50,"x_max":901,"o":"m 486 124 q 303 181 372 124 q 235 339 235 238 q 301 497 235 438 q 482 556 367 556 q 582 542 535 556 q 665 500 629 528 q 722 433 701 472 q 743 342 743 393 q 723 251 743 292 q 668 183 703 211 q 587 139 633 154 q 486 124 540 124 m 732 985 l 551 821 l 624 738 l 808 903 l 732 985 m 224 853 q 440 789 350 826 q 592 704 531 751 q 687 601 653 657 q 735 483 721 546 l 743 475 q 678 590 722 540 q 568 666 635 639 q 411 693 501 693 q 269 669 335 693 q 153 601 203 646 q 77 491 104 556 q 50 344 50 426 q 101 156 50 238 q 249 28 153 74 q 478 -17 344 -17 q 617 1 553 -17 q 734 53 682 19 q 824 134 786 88 q 881 239 861 181 q 901 364 901 297 q 890 477 901 418 q 851 597 879 536 q 776 715 824 657 q 657 825 729 774 q 485 917 585 876 q 251 985 385 958 l 224 853 "},"ď":{"ha":1035,"x_min":50,"x_max":1208,"o":"m 419 -15 q 576 17 511 -15 q 682 103 642 50 q 742 220 722 157 q 761 344 761 283 q 742 486 761 421 q 683 601 724 551 q 578 678 643 650 q 419 706 513 706 q 229 660 313 706 q 98 535 146 615 q 50 344 50 454 q 99 156 50 238 q 231 30 147 75 q 419 -15 315 -15 m 478 124 q 351 151 406 124 q 265 228 296 179 q 235 344 235 278 q 299 506 235 444 q 478 567 363 567 q 619 540 560 567 q 710 465 678 514 q 743 344 743 415 q 711 229 743 279 q 619 151 679 179 q 478 124 560 124 m 743 968 l 743 178 q 747 83 743 133 q 756 0 751 32 l 924 0 l 924 968 l 743 968 m 1150 676 l 1208 849 l 1208 968 l 996 968 l 996 849 l 1054 676 l 1150 676 "},"đ":{"ha":1035,"x_min":50,"x_max":1014,"o":"m 419 -15 q 576 17 511 -15 q 682 103 642 50 q 742 220 722 157 q 761 344 761 283 q 742 486 761 421 q 683 601 724 551 q 578 678 643 650 q 419 706 513 706 q 229 660 313 706 q 98 535 146 615 q 50 344 50 454 q 99 156 50 238 q 231 30 147 75 q 419 -15 315 -15 m 478 124 q 351 151 406 124 q 265 228 296 179 q 235 344 235 278 q 299 506 235 444 q 478 567 363 567 q 619 540 560 567 q 710 465 678 514 q 743 344 743 415 q 711 229 743 279 q 619 151 679 179 q 478 124 560 124 m 743 968 l 743 178 q 747 83 743 133 q 756 0 751 32 l 924 0 l 924 968 l 743 968 m 515 882 l 515 786 l 1014 786 l 1014 882 l 515 882 "},"e":{"ha":942,"x_min":50,"x_max":897,"o":"m 713 229 q 638 152 696 182 q 494 122 581 122 q 360 147 417 122 q 272 215 304 172 q 232 311 239 258 l 890 311 q 853 533 897 446 q 719 663 810 619 q 493 706 629 706 q 260 663 360 706 q 106 538 161 619 q 50 343 50 457 q 107 149 50 229 q 265 26 164 68 q 499 -17 367 -17 q 699 15 617 -17 q 828 103 781 47 q 888 229 876 158 l 713 229 m 485 568 q 645 527 586 568 q 711 417 704 486 l 242 417 q 322 524 260 481 q 485 568 385 568 "},"é":{"ha":942,"x_min":50,"x_max":897,"o":"m 713 229 q 638 152 696 182 q 494 122 581 122 q 360 147 417 122 q 272 215 304 172 q 232 311 239 258 l 890 311 q 853 533 897 446 q 719 663 810 619 q 493 706 629 706 q 260 663 360 706 q 106 538 161 619 q 50 343 50 457 q 107 149 50 229 q 265 26 164 68 q 499 -17 367 -17 q 699 15 617 -17 q 828 103 781 47 q 888 229 876 158 l 713 229 m 485 568 q 645 527 586 568 q 711 417 704 486 l 242 417 q 322 524 260 481 q 485 568 385 568 m 392 835 l 564 835 l 819 1054 l 581 1054 l 392 835 "},"ě":{"ha":942,"x_min":50,"x_max":897,"o":"m 713 229 q 638 152 696 182 q 494 122 581 122 q 360 147 417 122 q 272 215 304 172 q 232 311 239 258 l 890 311 q 853 533 897 446 q 719 663 810 619 q 493 706 629 706 q 260 663 360 706 q 106 538 161 619 q 50 343 50 457 q 107 149 50 229 q 265 26 164 68 q 499 -17 367 -17 q 699 15 617 -17 q 828 103 781 47 q 888 229 876 158 l 713 229 m 485 568 q 645 527 586 568 q 711 417 704 486 l 242 417 q 322 524 260 481 q 485 568 385 568 m 550 874 l 374 1054 l 178 1054 l 399 835 l 588 835 l 808 1054 l 613 1054 l 436 874 l 550 874 "},"ê":{"ha":942,"x_min":50,"x_max":897,"o":"m 713 229 q 638 152 696 182 q 494 122 581 122 q 360 147 417 122 q 272 215 304 172 q 232 311 239 258 l 890 311 q 853 533 897 446 q 719 663 810 619 q 493 706 629 706 q 260 663 360 706 q 106 538 161 619 q 50 343 50 457 q 107 149 50 229 q 265 26 164 68 q 499 -17 367 -17 q 699 15 617 -17 q 828 103 781 47 q 888 229 876 158 l 713 229 m 485 568 q 645 527 586 568 q 711 417 704 486 l 242 417 q 322 524 260 481 q 485 568 385 568 m 583 1054 l 394 1054 l 168 835 l 364 835 l 546 1017 l 432 1018 l 613 835 l 808 835 l 583 1054 "},"ë":{"ha":942,"x_min":50,"x_max":897,"o":"m 713 229 q 638 152 696 182 q 494 122 581 122 q 360 147 417 122 q 272 215 304 172 q 232 311 239 258 l 890 311 q 853 533 897 446 q 719 663 810 619 q 493 706 629 706 q 260 663 360 706 q 106 538 161 619 q 50 343 50 457 q 107 149 50 229 q 265 26 164 68 q 499 -17 367 -17 q 699 15 617 -17 q 828 103 781 47 q 888 229 876 158 l 713 229 m 485 568 q 645 527 586 568 q 711 417 704 486 l 242 417 q 322 524 260 481 q 485 568 385 568 m 443 994 l 233 994 l 233 836 l 443 836 l 443 994 m 744 994 l 535 994 l 535 836 l 744 836 l 744 994 "},"ė":{"ha":942,"x_min":50,"x_max":897,"o":"m 713 229 q 638 152 696 182 q 494 122 581 122 q 360 147 417 122 q 272 215 304 172 q 232 311 239 258 l 890 311 q 853 533 897 446 q 719 663 810 619 q 493 706 629 706 q 260 663 360 706 q 106 538 161 619 q 50 343 50 457 q 107 149 50 229 q 265 26 164 68 q 499 -17 367 -17 q 699 15 617 -17 q 828 103 781 47 q 888 229 876 158 l 713 229 m 485 568 q 645 527 586 568 q 711 417 704 486 l 242 417 q 322 524 260 481 q 485 568 385 568 m 594 996 l 385 996 l 385 838 l 594 838 l 594 996 "},"è":{"ha":942,"x_min":50,"x_max":897,"o":"m 713 229 q 638 152 696 182 q 494 122 581 122 q 360 147 417 122 q 272 215 304 172 q 232 311 239 258 l 890 311 q 853 533 897 446 q 719 663 810 619 q 493 706 629 706 q 260 663 360 706 q 106 538 161 619 q 50 343 50 457 q 107 149 50 229 q 265 26 164 68 q 499 -17 367 -17 q 699 15 617 -17 q 828 103 781 47 q 888 229 876 158 l 713 229 m 485 568 q 645 527 586 568 q 711 417 704 486 l 242 417 q 322 524 260 481 q 485 568 385 568 m 411 835 l 583 835 l 394 1054 l 156 1054 l 411 835 "},"ē":{"ha":942,"x_min":50,"x_max":897,"o":"m 713 229 q 638 152 696 182 q 494 122 581 122 q 360 147 417 122 q 272 215 304 172 q 232 311 239 258 l 890 311 q 853 533 897 446 q 719 663 810 619 q 493 706 629 706 q 260 663 360 706 q 106 538 161 619 q 50 343 50 457 q 107 149 50 229 q 265 26 164 68 q 499 -17 367 -17 q 699 15 617 -17 q 828 103 781 47 q 888 229 876 158 l 713 229 m 485 568 q 645 527 586 568 q 711 417 704 486 l 242 417 q 322 524 260 481 q 485 568 385 568 m 276 846 l 703 846 l 703 958 l 276 958 l 276 846 "},"ę":{"ha":942,"x_min":50,"x_max":897,"o":"m 771 -310 l 771 -215 q 683 -203 721 -215 q 623 -167 644 -190 q 601 -110 601 -143 q 639 -32 601 -62 q 733 29 676 -1 l 733 60 q 595 14 657 38 q 497 -45 533 -10 q 461 -136 461 -81 q 544 -263 461 -217 q 771 -310 628 -310 m 713 229 q 638 152 696 182 q 494 122 581 122 q 360 147 417 122 q 272 215 304 172 q 232 311 239 258 l 890 311 q 853 533 897 446 q 719 663 810 619 q 493 706 629 706 q 260 663 360 706 q 106 538 161 619 q 50 343 50 457 q 107 149 50 229 q 265 26 164 68 q 499 -17 367 -17 q 699 15 617 -17 q 828 103 781 47 q 888 229 876 158 l 713 229 m 485 568 q 645 527 586 568 q 711 417 704 486 l 242 417 q 322 524 260 481 q 485 568 385 568 "},"f":{"ha":619,"x_min":35,"x_max":600,"o":"m 35 678 l 35 540 l 590 540 l 590 678 l 35 678 m 457 968 q 311 943 371 968 q 221 865 251 918 q 190 728 190 811 l 190 0 l 371 0 l 371 706 q 386 778 371 753 q 431 814 401 804 q 500 822 460 824 l 600 822 l 600 968 l 457 968 "},"g":{"ha":932,"x_min":50,"x_max":897,"o":"m 428 106 q 627 140 543 106 q 757 238 711 174 q 803 393 803 303 q 777 491 803 449 q 710 566 751 533 q 621 621 668 599 l 625 611 q 753 570 681 589 q 897 553 826 551 l 897 689 l 549 690 q 490 701 519 697 q 428 706 460 706 q 227 668 313 706 q 96 563 142 631 q 50 401 50 494 q 97 240 50 307 q 230 140 144 174 q 428 106 315 106 m 660 -285 l 840 -285 l 840 -219 q 806 -88 840 -136 q 705 -20 771 -40 q 546 0 639 0 l 319 0 q 272 12 289 0 q 256 44 256 24 q 298 91 256 79 q 428 106 340 103 l 340 121 q 206 117 267 126 q 108 78 144 107 q 72 -6 72 50 q 83 -58 72 -33 q 119 -100 94 -82 q 187 -128 144 -118 q 292 -137 229 -137 l 507 -137 q 619 -162 578 -137 q 660 -251 660 -187 l 660 -285 m 428 236 q 322 256 367 236 q 251 312 276 275 q 226 400 226 349 q 251 490 226 453 q 322 548 276 528 q 428 568 368 568 q 533 548 489 568 q 603 490 578 528 q 628 400 628 453 q 603 312 628 349 q 533 256 578 275 q 428 236 488 236 "},"ğ":{"ha":932,"x_min":50,"x_max":897,"o":"m 428 106 q 627 140 543 106 q 757 238 711 174 q 803 393 803 303 q 777 491 803 449 q 710 566 751 533 q 621 621 668 599 l 625 611 q 753 570 681 589 q 897 553 826 551 l 897 689 l 549 690 q 490 701 519 697 q 428 706 460 706 q 227 668 313 706 q 96 563 142 631 q 50 401 50 494 q 97 240 50 307 q 230 140 144 174 q 428 106 315 106 m 660 -285 l 840 -285 l 840 -219 q 806 -88 840 -136 q 705 -20 771 -40 q 546 0 639 0 l 319 0 q 272 12 289 0 q 256 44 256 24 q 298 91 256 79 q 428 106 340 103 l 340 121 q 206 117 267 126 q 108 78 144 107 q 72 -6 72 50 q 83 -58 72 -33 q 119 -100 94 -82 q 187 -128 144 -118 q 292 -137 229 -137 l 507 -137 q 619 -162 578 -137 q 660 -251 660 -187 l 660 -285 m 428 236 q 322 256 367 236 q 251 312 276 275 q 226 400 226 349 q 251 490 226 453 q 322 548 276 528 q 428 568 368 568 q 533 548 489 568 q 603 490 578 528 q 628 400 628 453 q 603 312 628 349 q 533 256 578 275 q 428 236 488 236 m 719 1014 l 588 1014 q 540 941 578 967 q 428 915 501 915 q 317 941 356 915 q 268 1014 279 967 l 136 1014 q 179 906 146 954 q 274 831 213 858 q 428 804 335 804 q 583 831 521 804 q 678 906 644 858 q 719 1014 711 954 "},"ģ":{"ha":932,"x_min":50,"x_max":897,"o":"m 428 106 q 627 140 543 106 q 757 238 711 174 q 803 393 803 303 q 777 491 803 449 q 710 566 751 533 q 621 621 668 599 l 625 611 q 753 570 681 589 q 897 553 826 551 l 897 689 l 549 690 q 490 701 519 697 q 428 706 460 706 q 227 668 313 706 q 96 563 142 631 q 50 401 50 494 q 97 240 50 307 q 230 140 144 174 q 428 106 315 106 m 660 -285 l 840 -285 l 840 -219 q 806 -88 840 -136 q 705 -20 771 -40 q 546 0 639 0 l 319 0 q 272 12 289 0 q 256 44 256 24 q 298 91 256 79 q 428 106 340 103 l 340 121 q 206 117 267 126 q 108 78 144 107 q 72 -6 72 50 q 83 -58 72 -33 q 119 -100 94 -82 q 187 -128 144 -118 q 292 -137 229 -137 l 507 -137 q 619 -162 578 -137 q 660 -251 660 -187 l 660 -285 m 428 236 q 322 256 367 236 q 251 312 276 275 q 226 400 226 349 q 251 490 226 453 q 322 548 276 528 q 428 568 368 568 q 533 548 489 568 q 603 490 578 528 q 628 400 628 453 q 603 312 628 349 q 533 256 578 275 q 428 236 488 236 m 504 1054 q 369 988 415 1036 q 322 865 322 940 l 322 793 l 535 793 l 535 921 l 450 936 q 475 977 451 957 q 521 1007 499 997 l 504 1054 "},"ġ":{"ha":932,"x_min":50,"x_max":897,"o":"m 428 106 q 627 140 543 106 q 757 238 711 174 q 803 393 803 303 q 777 491 803 449 q 710 566 751 533 q 621 621 668 599 l 625 611 q 753 570 681 589 q 897 553 826 551 l 897 689 l 549 690 q 490 701 519 697 q 428 706 460 706 q 227 668 313 706 q 96 563 142 631 q 50 401 50 494 q 97 240 50 307 q 230 140 144 174 q 428 106 315 106 m 660 -285 l 840 -285 l 840 -219 q 806 -88 840 -136 q 705 -20 771 -40 q 546 0 639 0 l 319 0 q 272 12 289 0 q 256 44 256 24 q 298 91 256 79 q 428 106 340 103 l 340 121 q 206 117 267 126 q 108 78 144 107 q 72 -6 72 50 q 83 -58 72 -33 q 119 -100 94 -82 q 187 -128 144 -118 q 292 -137 229 -137 l 507 -137 q 619 -162 578 -137 q 660 -251 660 -187 l 660 -285 m 428 236 q 322 256 367 236 q 251 312 276 275 q 226 400 226 349 q 251 490 226 453 q 322 548 276 528 q 428 568 368 568 q 533 548 489 568 q 603 490 578 528 q 628 400 628 453 q 603 312 628 349 q 533 256 578 275 q 428 236 488 236 m 533 996 l 324 996 l 324 838 l 533 838 l 533 996 "},"h":{"ha":975,"x_min":96,"x_max":894,"o":"m 714 0 l 894 0 l 894 442 q 872 558 894 508 q 810 640 850 607 q 715 690 769 674 q 597 706 661 706 q 465 683 524 706 q 364 622 406 660 q 297 539 322 585 q 265 447 272 493 l 267 371 q 306 458 271 417 q 396 524 340 499 q 519 550 451 550 q 633 531 590 550 q 694 474 675 511 q 714 379 714 436 l 714 0 m 96 0 l 276 0 l 276 968 l 96 968 l 96 0 "},"ħ":{"ha":975,"x_min":0,"x_max":894,"o":"m 714 0 l 894 0 l 894 442 q 872 558 894 508 q 810 640 850 607 q 715 690 769 674 q 597 706 661 706 q 465 683 524 706 q 364 622 406 660 q 297 539 322 585 q 265 447 272 493 l 267 371 q 306 458 271 417 q 396 524 340 499 q 519 550 451 550 q 633 531 590 550 q 694 474 675 511 q 714 379 714 436 l 714 0 m 96 0 l 276 0 l 276 968 l 96 968 l 96 0 m 0 885 l 0 789 l 499 789 l 499 885 l 0 885 "},"i":{"ha":372,"x_min":81,"x_max":290,"o":"m 290 993 l 81 993 l 81 835 l 290 835 l 290 993 m 94 690 l 94 0 l 275 0 l 275 690 l 94 690 "},"ı":{"ha":343,"x_min":81,"x_max":261,"o":"m 81 690 l 81 0 l 261 0 l 261 690 l 81 690 "},"í":{"ha":343,"x_min":74,"x_max":501,"o":"m 81 690 l 81 0 l 261 0 l 261 690 l 81 690 m 74 832 l 246 832 l 501 1051 l 263 1051 l 74 832 "},"î":{"ha":343,"x_min":-150,"x_max":490,"o":"m 81 690 l 81 0 l 261 0 l 261 690 l 81 690 m 265 1051 l 76 1051 l -150 832 l 46 832 l 228 1014 l 114 1015 l 294 832 l 490 832 l 265 1051 "},"ï":{"ha":278,"x_min":-32,"x_max":363,"o":"m 81 690 l 81 0 l 261 0 l 261 690 l 81 690 m 178 994 l -32 994 l -32 836 l 178 836 l 178 994 m 363 994 l 153 994 l 153 836 l 363 836 l 363 994 "},"ì":{"ha":343,"x_min":-162,"x_max":265,"o":"m 81 690 l 81 0 l 261 0 l 261 690 l 81 690 m 93 832 l 265 832 l 76 1051 l -162 1051 l 93 832 "},"ĳ":{"ha":744,"x_min":81,"x_max":663,"o":"m 290 993 l 81 993 l 81 835 l 290 835 l 290 993 m 94 690 l 94 0 l 275 0 l 275 690 l 94 690 m 469 690 l 469 -278 l 650 -278 l 650 690 l 469 690 m 663 993 l 453 993 l 453 835 l 663 835 l 663 993 "},"ī":{"ha":343,"x_min":-42,"x_max":385,"o":"m 81 690 l 81 0 l 261 0 l 261 690 l 81 690 m -42 843 l 385 843 l 385 956 l -42 956 l -42 843 "},"į":{"ha":372,"x_min":4,"x_max":313,"o":"m 313 -310 l 313 -214 q 224 -201 263 -214 q 165 -166 186 -189 q 144 -110 144 -143 q 181 -36 144 -62 q 275 0 218 -10 l 275 31 q 138 6 199 24 q 40 -47 76 -12 q 4 -136 4 -81 q 88 -263 4 -217 q 313 -310 171 -310 m 290 993 l 81 993 l 81 835 l 290 835 l 290 993 m 94 690 l 94 0 l 275 0 l 275 690 l 94 690 "},"j":{"ha":372,"x_min":81,"x_max":290,"o":"m 97 690 l 97 -278 l 278 -278 l 278 690 l 97 690 m 290 993 l 81 993 l 81 835 l 290 835 l 290 993 "},"k":{"ha":901,"x_min":96,"x_max":890,"o":"m 96 968 l 96 0 l 276 0 l 276 968 l 96 968 m 858 690 l 613 690 l 281 388 l 661 0 l 890 0 l 451 439 l 447 328 l 858 690 "},"ķ":{"ha":901,"x_min":96,"x_max":890,"o":"m 96 968 l 96 0 l 276 0 l 276 968 l 96 968 m 858 690 l 613 690 l 281 388 l 661 0 l 890 0 l 451 439 l 447 328 l 858 690 m 374 -346 l 374 -346 q 509 -280 463 -328 q 556 -157 556 -232 l 556 -85 l 343 -85 l 343 -212 l 429 -228 q 407 -266 428 -247 q 357 -299 386 -285 l 374 -346 "},"l":{"ha":376,"x_min":97,"x_max":278,"o":"m 97 968 l 97 0 l 278 0 l 278 968 l 97 968 "},"ĺ":{"ha":376,"x_min":97,"x_max":525,"o":"m 97 968 l 97 0 l 278 0 l 278 968 l 97 968 m 97 1099 l 269 1099 l 525 1318 l 286 1318 l 97 1099 "},"ľ":{"ha":583,"x_min":97,"x_max":557,"o":"m 97 968 l 97 0 l 278 0 l 278 968 l 97 968 m 499 676 l 557 849 l 557 968 l 344 968 l 344 849 l 403 676 l 499 676 "},"ļ":{"ha":376,"x_min":82,"x_max":294,"o":"m 97 968 l 97 0 l 278 0 l 278 968 l 97 968 m 113 -346 l 113 -346 q 248 -280 201 -328 q 294 -157 294 -232 l 294 -85 l 82 -85 l 82 -212 l 168 -228 q 146 -266 167 -247 q 96 -299 125 -285 l 113 -346 "},"ŀ":{"ha":635,"x_min":97,"x_max":536,"o":"m 97 968 l 97 0 l 278 0 l 278 968 l 97 968 m 536 533 l 326 533 l 326 375 l 536 375 l 536 533 "},"ł":{"ha":406,"x_min":-28,"x_max":432,"o":"m 381 661 l -28 381 l 21 307 l 432 588 l 381 661 m 111 968 l 111 0 l 292 0 l 292 968 l 111 968 "},"m":{"ha":1565,"x_min":83,"x_max":1485,"o":"m 83 690 l 83 0 l 264 0 l 264 690 l 83 690 m 585 706 q 453 683 511 706 q 352 623 394 661 q 285 539 310 585 q 253 444 260 493 l 254 374 q 296 462 260 419 q 390 532 332 504 q 521 560 449 560 q 659 519 617 560 q 701 390 701 478 l 701 0 l 882 0 l 882 422 q 860 549 882 496 q 797 638 838 603 q 703 689 757 672 q 585 706 649 706 m 1186 706 q 1058 683 1115 706 q 957 624 1000 661 q 888 540 914 586 q 854 449 861 494 l 857 374 q 897 462 861 419 q 992 532 933 504 q 1122 560 1050 560 q 1261 519 1218 560 q 1304 390 1304 478 l 1304 0 l 1485 0 l 1485 422 q 1462 549 1485 496 q 1399 638 1439 603 q 1304 689 1358 672 q 1186 706 1250 706 "},"n":{"ha":963,"x_min":83,"x_max":882,"o":"m 83 690 l 83 0 l 264 0 l 264 690 l 83 690 m 585 706 q 453 683 511 706 q 352 623 394 661 q 285 539 310 585 q 253 444 260 493 l 254 374 q 296 462 260 419 q 390 532 332 504 q 521 560 449 560 q 659 519 617 560 q 701 390 701 478 l 701 0 l 882 0 l 882 422 q 860 549 882 496 q 797 638 838 603 q 703 689 757 672 q 585 706 649 706 "},"ń":{"ha":963,"x_min":83,"x_max":882,"o":"m 83 690 l 83 0 l 264 0 l 264 690 l 83 690 m 585 706 q 453 683 511 706 q 352 623 394 661 q 285 539 310 585 q 253 444 260 493 l 254 374 q 296 462 260 419 q 390 532 332 504 q 521 560 449 560 q 659 519 617 560 q 701 390 701 478 l 701 0 l 882 0 l 882 422 q 860 549 882 496 q 797 638 838 603 q 703 689 757 672 q 585 706 649 706 m 431 835 l 603 835 l 858 1054 l 619 1054 l 431 835 "},"ň":{"ha":963,"x_min":83,"x_max":882,"o":"m 83 690 l 83 0 l 264 0 l 264 690 l 83 690 m 585 706 q 453 683 511 706 q 352 623 394 661 q 285 539 310 585 q 253 444 260 493 l 254 374 q 296 462 260 419 q 390 532 332 504 q 521 560 449 560 q 659 519 617 560 q 701 390 701 478 l 701 0 l 882 0 l 882 422 q 860 549 882 496 q 797 638 838 603 q 703 689 757 672 q 585 706 649 706 m 589 874 l 413 1054 l 217 1054 l 438 835 l 626 835 l 847 1054 l 651 1054 l 475 874 l 589 874 "},"ņ":{"ha":963,"x_min":83,"x_max":882,"o":"m 83 690 l 83 0 l 264 0 l 264 690 l 83 690 m 585 706 q 453 683 511 706 q 352 623 394 661 q 285 539 310 585 q 253 444 260 493 l 254 374 q 296 462 260 419 q 390 532 332 504 q 521 560 449 560 q 659 519 617 560 q 701 390 701 478 l 701 0 l 882 0 l 882 422 q 860 549 882 496 q 797 638 838 603 q 703 689 757 672 q 585 706 649 706 m 407 -346 l 407 -346 q 542 -280 496 -328 q 589 -157 589 -232 l 589 -85 l 376 -85 l 376 -212 l 463 -228 q 440 -266 461 -247 q 390 -299 419 -285 l 407 -346 "},"ñ":{"ha":963,"x_min":83,"x_max":882,"o":"m 83 690 l 83 0 l 264 0 l 264 690 l 83 690 m 585 706 q 453 683 511 706 q 352 623 394 661 q 285 539 310 585 q 253 444 260 493 l 254 374 q 296 462 260 419 q 390 532 332 504 q 521 560 449 560 q 659 519 617 560 q 701 390 701 478 l 701 0 l 882 0 l 882 422 q 860 549 882 496 q 797 638 838 603 q 703 689 757 672 q 585 706 649 706 m 649 833 q 749 860 707 833 q 816 932 790 888 q 853 1026 842 976 l 724 1026 q 706 989 717 1008 q 678 956 696 969 q 631 943 661 943 q 574 956 600 943 q 519 985 547 968 q 458 1015 490 1003 q 382 1028 425 1028 q 283 1001 325 1028 q 216 930 242 974 q 179 835 190 886 l 307 835 q 325 874 315 854 q 352 906 335 893 q 399 918 369 918 q 460 906 432 918 q 515 876 488 893 q 575 846 543 858 q 649 833 607 833 "},"ŋ":{"ha":963,"x_min":83,"x_max":882,"o":"m 517 -294 q 681 -278 611 -294 q 794 -231 750 -262 q 860 -155 839 -200 q 882 -50 882 -110 l 882 422 q 860 549 882 496 q 797 638 838 603 q 703 689 757 672 q 585 706 649 706 q 453 683 511 706 q 352 623 394 661 q 285 539 310 585 q 253 444 260 493 l 254 374 q 296 462 260 419 q 390 532 332 504 q 521 560 449 560 q 659 519 617 560 q 701 390 701 478 l 701 0 q 683 -83 701 -50 q 624 -131 664 -115 q 517 -146 583 -146 l 517 -294 m 83 0 l 264 0 l 264 690 l 83 690 l 83 0 "},"o":{"ha":978,"x_min":50,"x_max":928,"o":"m 490 -17 q 719 25 621 -17 q 872 147 817 67 q 928 343 928 226 q 872 541 928 460 q 719 664 817 622 q 490 706 621 706 q 260 664 360 706 q 106 541 161 622 q 50 343 50 460 q 106 147 50 226 q 260 25 161 67 q 490 -17 360 -17 m 490 122 q 358 148 417 122 q 267 223 300 174 q 233 343 233 272 q 267 465 233 415 q 360 542 301 515 q 490 568 418 568 q 621 542 564 568 q 711 465 678 515 q 744 343 744 414 q 711 223 744 272 q 620 148 678 174 q 490 122 563 122 "},"ó":{"ha":978,"x_min":50,"x_max":928,"o":"m 490 -17 q 719 25 621 -17 q 872 147 817 67 q 928 343 928 226 q 872 541 928 460 q 719 664 817 622 q 490 706 621 706 q 260 664 360 706 q 106 541 161 622 q 50 343 50 460 q 106 147 50 226 q 260 25 161 67 q 490 -17 360 -17 m 490 122 q 358 148 417 122 q 267 223 300 174 q 233 343 233 272 q 267 465 233 415 q 360 542 301 515 q 490 568 418 568 q 621 542 564 568 q 711 465 678 515 q 744 343 744 414 q 711 223 744 272 q 620 148 678 174 q 490 122 563 122 m 393 835 l 565 835 l 821 1054 l 582 1054 l 393 835 "},"ô":{"ha":978,"x_min":50,"x_max":928,"o":"m 490 -17 q 719 25 621 -17 q 872 147 817 67 q 928 343 928 226 q 872 541 928 460 q 719 664 817 622 q 490 706 621 706 q 260 664 360 706 q 106 541 161 622 q 50 343 50 460 q 106 147 50 226 q 260 25 161 67 q 490 -17 360 -17 m 490 122 q 358 148 417 122 q 267 223 300 174 q 233 343 233 272 q 267 465 233 415 q 360 542 301 515 q 490 568 418 568 q 621 542 564 568 q 711 465 678 515 q 744 343 744 414 q 711 223 744 272 q 620 148 678 174 q 490 122 563 122 m 585 1054 l 396 1054 l 169 835 l 365 835 l 547 1017 l 433 1018 l 614 835 l 810 835 l 585 1054 "},"ö":{"ha":978,"x_min":50,"x_max":928,"o":"m 490 -17 q 719 25 621 -17 q 872 147 817 67 q 928 343 928 226 q 872 541 928 460 q 719 664 817 622 q 490 706 621 706 q 260 664 360 706 q 106 541 161 622 q 50 343 50 460 q 106 147 50 226 q 260 25 161 67 q 490 -17 360 -17 m 490 122 q 358 148 417 122 q 267 223 300 174 q 233 343 233 272 q 267 465 233 415 q 360 542 301 515 q 490 568 418 568 q 621 542 564 568 q 711 465 678 515 q 744 343 744 414 q 711 223 744 272 q 620 148 678 174 q 490 122 563 122 m 444 994 l 235 994 l 235 836 l 444 836 l 444 994 m 746 994 l 536 994 l 536 836 l 746 836 l 746 994 "},"ò":{"ha":978,"x_min":50,"x_max":928,"o":"m 490 -17 q 719 25 621 -17 q 872 147 817 67 q 928 343 928 226 q 872 541 928 460 q 719 664 817 622 q 490 706 621 706 q 260 664 360 706 q 106 541 161 622 q 50 343 50 460 q 106 147 50 226 q 260 25 161 67 q 490 -17 360 -17 m 490 122 q 358 148 417 122 q 267 223 300 174 q 233 343 233 272 q 267 465 233 415 q 360 542 301 515 q 490 568 418 568 q 621 542 564 568 q 711 465 678 515 q 744 343 744 414 q 711 223 744 272 q 620 148 678 174 q 490 122 563 122 m 413 835 l 585 835 l 396 1054 l 157 1054 l 413 835 "},"ő":{"ha":978,"x_min":50,"x_max":928,"o":"m 490 -17 q 719 25 621 -17 q 872 147 817 67 q 928 343 928 226 q 872 541 928 460 q 719 664 817 622 q 490 706 621 706 q 260 664 360 706 q 106 541 161 622 q 50 343 50 460 q 106 147 50 226 q 260 25 161 67 q 490 -17 360 -17 m 490 122 q 358 148 417 122 q 267 223 300 174 q 233 343 233 272 q 267 465 233 415 q 360 542 301 515 q 490 568 418 568 q 621 542 564 568 q 711 465 678 515 q 744 343 744 414 q 711 223 744 272 q 620 148 678 174 q 490 122 563 122 m 546 835 l 688 835 l 903 1054 l 714 1054 l 546 835 m 246 835 l 388 835 l 594 1054 l 406 1054 l 246 835 "},"ō":{"ha":978,"x_min":50,"x_max":928,"o":"m 490 -17 q 719 25 621 -17 q 872 147 817 67 q 928 343 928 226 q 872 541 928 460 q 719 664 817 622 q 490 706 621 706 q 260 664 360 706 q 106 541 161 622 q 50 343 50 460 q 106 147 50 226 q 260 25 161 67 q 490 -17 360 -17 m 490 122 q 358 148 417 122 q 267 223 300 174 q 233 343 233 272 q 267 465 233 415 q 360 542 301 515 q 490 568 418 568 q 621 542 564 568 q 711 465 678 515 q 744 343 744 414 q 711 223 744 272 q 620 148 678 174 q 490 122 563 122 m 278 846 l 704 846 l 704 958 l 278 958 l 278 846 "},"ø":{"ha":978,"x_min":50,"x_max":928,"o":"m 679 754 l 224 -17 l 296 -61 l 754 713 l 679 754 m 490 -17 q 719 25 621 -17 q 872 147 817 67 q 928 343 928 226 q 872 541 928 460 q 719 664 817 622 q 490 706 621 706 q 260 664 360 706 q 106 541 161 622 q 50 343 50 460 q 106 147 50 226 q 260 25 161 67 q 490 -17 360 -17 m 490 122 q 358 148 417 122 q 267 223 300 174 q 233 343 233 272 q 267 465 233 415 q 360 542 301 515 q 490 568 418 568 q 621 542 564 568 q 711 465 678 515 q 744 343 744 414 q 711 223 744 272 q 620 148 678 174 q 490 122 563 122 "},"õ":{"ha":978,"x_min":50,"x_max":928,"o":"m 490 -17 q 719 25 621 -17 q 872 147 817 67 q 928 343 928 226 q 872 541 928 460 q 719 664 817 622 q 490 706 621 706 q 260 664 360 706 q 106 541 161 622 q 50 343 50 460 q 106 147 50 226 q 260 25 161 67 q 490 -17 360 -17 m 490 122 q 358 148 417 122 q 267 223 300 174 q 233 343 233 272 q 267 465 233 415 q 360 542 301 515 q 490 568 418 568 q 621 542 564 568 q 711 465 678 515 q 744 343 744 414 q 711 223 744 272 q 620 148 678 174 q 490 122 563 122 m 611 833 q 711 860 669 833 q 778 932 753 888 q 815 1026 804 976 l 686 1026 q 669 989 679 1008 q 641 956 658 969 q 593 943 624 943 q 536 956 563 943 q 481 985 510 968 q 420 1015 453 1003 q 344 1028 388 1028 q 246 1001 288 1028 q 178 930 204 974 q 142 835 153 886 l 269 835 q 288 874 278 854 q 315 906 297 893 q 361 918 332 918 q 422 906 394 918 q 478 876 450 893 q 538 846 506 858 q 611 833 569 833 "},"œ":{"ha":1639,"x_min":50,"x_max":1594,"o":"m 490 -17 q 719 25 621 -17 q 872 147 817 67 q 928 343 928 226 q 872 541 928 460 q 719 664 817 622 q 490 706 621 706 q 260 664 360 706 q 106 541 161 622 q 50 343 50 460 q 106 147 50 226 q 260 25 161 67 q 490 -17 360 -17 m 490 122 q 358 148 417 122 q 267 223 300 174 q 233 343 233 272 q 267 465 233 415 q 360 542 301 515 q 490 568 418 568 q 621 542 564 568 q 711 465 678 515 q 744 343 744 414 q 711 223 744 272 q 620 148 678 174 q 490 122 563 122 m 1410 229 q 1335 152 1393 182 q 1192 122 1278 122 q 1058 147 1114 122 q 969 215 1001 172 q 929 311 936 258 l 1588 311 q 1551 533 1594 446 q 1417 663 1507 619 q 1190 706 1326 706 q 958 663 1057 706 q 803 538 858 619 q 747 343 747 457 q 804 149 747 229 q 963 26 861 68 q 1196 -17 1064 -17 q 1396 15 1314 -17 q 1526 103 1478 47 q 1585 229 1574 158 l 1410 229 m 1182 568 q 1342 527 1283 568 q 1408 417 1401 486 l 939 417 q 1019 524 957 481 q 1182 568 1082 568 "},"p":{"ha":1006,"x_min":83,"x_max":956,"o":"m 586 -17 q 772 28 689 -17 q 906 153 856 72 q 956 344 956 235 q 906 533 956 451 q 774 660 857 614 q 586 706 690 706 q 428 678 493 706 q 324 601 364 650 q 265 486 283 551 q 246 344 246 421 q 265 219 246 283 q 325 102 285 156 q 430 16 365 49 q 586 -17 494 -17 m 528 124 q 388 151 447 124 q 296 228 328 179 q 264 344 264 278 q 299 465 264 415 q 394 540 333 514 q 528 567 454 567 q 708 506 644 567 q 771 344 771 444 q 741 228 771 278 q 656 151 711 179 q 528 124 601 124 m 83 690 l 83 -278 l 264 -278 l 264 507 l 256 690 l 83 690 "},"þ":{"ha":1006,"x_min":83,"x_max":956,"o":"m 586 -17 q 772 28 689 -17 q 906 153 856 72 q 956 344 956 235 q 906 533 956 451 q 774 660 857 614 q 586 706 690 706 q 428 678 493 706 q 324 601 364 650 q 265 486 283 551 q 246 344 246 421 q 265 219 246 283 q 325 102 285 156 q 430 16 365 49 q 586 -17 494 -17 m 528 124 q 388 151 447 124 q 296 228 328 179 q 264 344 264 278 q 299 465 264 415 q 394 540 333 514 q 528 567 454 567 q 708 506 644 567 q 771 344 771 444 q 741 228 771 278 q 656 151 711 179 q 528 124 601 124 m 83 967 l 83 -278 l 264 -278 l 264 507 l 264 967 l 83 967 "},"q":{"ha":1035,"x_min":50,"x_max":924,"o":"m 419 -17 q 576 16 511 -17 q 682 102 642 49 q 742 219 722 156 q 761 344 761 283 q 742 486 761 421 q 683 601 724 551 q 578 678 643 650 q 419 706 513 706 q 233 660 317 706 q 99 533 149 614 q 50 344 50 451 q 99 153 50 235 q 233 28 149 72 q 419 -17 317 -17 m 478 124 q 351 151 406 124 q 265 228 296 179 q 235 344 235 278 q 299 506 235 444 q 478 567 363 567 q 619 540 560 567 q 710 465 678 514 q 743 344 743 415 q 711 228 743 278 q 619 151 679 179 q 478 124 560 124 m 924 690 l 749 690 l 743 519 l 743 -278 l 924 -278 l 924 690 "},"r":{"ha":557,"x_min":83,"x_max":529,"o":"m 83 690 l 83 0 l 264 0 l 264 690 l 83 690 m 529 542 l 529 706 q 422 683 468 706 q 344 626 376 661 q 293 552 313 590 q 264 481 274 514 q 253 432 254 449 l 254 356 q 303 439 268 396 q 394 512 338 482 q 529 542 451 542 "},"ŕ":{"ha":557,"x_min":83,"x_max":658,"o":"m 83 690 l 83 0 l 264 0 l 264 690 l 83 690 m 529 542 l 529 706 q 422 683 468 706 q 344 626 376 661 q 293 552 313 590 q 264 481 274 514 q 253 432 254 449 l 254 356 q 303 439 268 396 q 394 512 338 482 q 529 542 451 542 m 231 835 l 403 835 l 658 1054 l 419 1054 l 231 835 "},"ř":{"ha":557,"x_min":17,"x_max":647,"o":"m 83 690 l 83 0 l 264 0 l 264 690 l 83 690 m 529 542 l 529 706 q 422 683 468 706 q 344 626 376 661 q 293 552 313 590 q 264 481 274 514 q 253 432 254 449 l 254 356 q 303 439 268 396 q 394 512 338 482 q 529 542 451 542 m 389 874 l 213 1054 l 17 1054 l 238 835 l 426 835 l 647 1054 l 451 1054 l 275 874 l 389 874 "},"ŗ":{"ha":557,"x_min":68,"x_max":529,"o":"m 83 690 l 83 0 l 264 0 l 264 690 l 83 690 m 529 542 l 529 706 q 422 683 468 706 q 344 626 376 661 q 293 552 313 590 q 264 481 274 514 q 253 432 254 449 l 254 356 q 303 439 268 396 q 394 512 338 482 q 529 542 451 542 m 99 -346 l 99 -346 q 234 -280 188 -328 q 281 -157 281 -232 l 281 -85 l 68 -85 l 68 -212 l 154 -228 q 132 -266 153 -247 q 82 -299 111 -285 l 99 -346 "},"s":{"ha":783,"x_min":53,"x_max":729,"o":"m 56 229 q 61 179 53 210 q 92 115 69 149 q 157 51 115 81 q 262 2 199 21 q 413 -17 325 -17 q 582 8 511 -17 q 691 78 653 32 q 729 190 729 124 q 706 280 729 244 q 644 337 683 315 q 556 372 606 358 q 453 397 507 386 q 347 418 389 408 q 283 444 304 428 q 261 489 261 460 q 296 546 261 525 q 399 567 331 567 q 501 544 468 567 q 546 469 535 521 l 706 469 q 672 592 706 539 q 569 676 638 646 q 399 706 501 706 q 272 692 331 706 q 169 651 213 678 q 101 586 125 625 q 76 497 76 547 q 101 410 76 446 q 167 352 125 375 q 263 315 208 329 q 375 292 317 301 q 471 274 433 283 q 526 248 508 264 q 544 203 544 232 q 533 160 544 179 q 493 132 522 142 q 411 122 464 122 q 285 152 333 122 q 222 229 238 182 l 56 229 "},"ś":{"ha":783,"x_min":53,"x_max":729,"o":"m 56 229 q 61 179 53 210 q 92 115 69 149 q 157 51 115 81 q 262 2 199 21 q 413 -17 325 -17 q 582 8 511 -17 q 691 78 653 32 q 729 190 729 124 q 706 280 729 244 q 644 337 683 315 q 556 372 606 358 q 453 397 507 386 q 347 418 389 408 q 283 444 304 428 q 261 489 261 460 q 296 546 261 525 q 399 567 331 567 q 501 544 468 567 q 546 469 535 521 l 706 469 q 672 592 706 539 q 569 676 638 646 q 399 706 501 706 q 272 692 331 706 q 169 651 213 678 q 101 586 125 625 q 76 497 76 547 q 101 410 76 446 q 167 352 125 375 q 263 315 208 329 q 375 292 317 301 q 471 274 433 283 q 526 248 508 264 q 544 203 544 232 q 533 160 544 179 q 493 132 522 142 q 411 122 464 122 q 285 152 333 122 q 222 229 238 182 l 56 229 m 292 835 l 464 835 l 719 1054 l 481 1054 l 292 835 "},"š":{"ha":783,"x_min":53,"x_max":729,"o":"m 56 229 q 61 179 53 210 q 92 115 69 149 q 157 51 115 81 q 262 2 199 21 q 413 -17 325 -17 q 582 8 511 -17 q 691 78 653 32 q 729 190 729 124 q 706 280 729 244 q 644 337 683 315 q 556 372 606 358 q 453 397 507 386 q 347 418 389 408 q 283 444 304 428 q 261 489 261 460 q 296 546 261 525 q 399 567 331 567 q 501 544 468 567 q 546 469 535 521 l 706 469 q 672 592 706 539 q 569 676 638 646 q 399 706 501 706 q 272 692 331 706 q 169 651 213 678 q 101 586 125 625 q 76 497 76 547 q 101 410 76 446 q 167 352 125 375 q 263 315 208 329 q 375 292 317 301 q 471 274 433 283 q 526 248 508 264 q 544 203 544 232 q 533 160 544 179 q 493 132 522 142 q 411 122 464 122 q 285 152 333 122 q 222 229 238 182 l 56 229 m 450 874 l 274 1054 l 78 1054 l 299 835 l 488 835 l 708 1054 l 513 1054 l 336 874 l 450 874 "},"ş":{"ha":783,"x_min":53,"x_max":729,"o":"m 290 -175 l 160 -175 q 182 -258 157 -218 q 256 -322 207 -297 q 375 -346 306 -346 q 540 -302 485 -346 q 594 -200 594 -258 q 575 -131 594 -158 q 524 -87 556 -104 q 453 -64 492 -71 l 340 -103 q 408 -125 388 -111 q 435 -153 429 -139 q 442 -176 442 -167 q 426 -215 442 -199 q 371 -232 410 -232 q 322 -221 339 -232 q 299 -196 306 -210 q 290 -175 293 -182 m 340 10 l 340 -103 l 492 -112 l 492 10 l 340 10 m 56 229 q 61 179 53 210 q 92 115 69 149 q 157 51 115 81 q 262 2 199 21 q 413 -17 325 -17 q 582 8 511 -17 q 691 78 653 32 q 729 190 729 124 q 706 280 729 244 q 644 337 683 315 q 556 372 606 358 q 453 397 507 386 q 347 418 389 408 q 283 444 304 428 q 261 489 261 460 q 296 546 261 525 q 399 567 331 567 q 501 544 468 567 q 546 469 535 521 l 706 469 q 672 592 706 539 q 569 676 638 646 q 399 706 501 706 q 272 692 331 706 q 169 651 213 678 q 101 586 125 625 q 76 497 76 547 q 101 410 76 446 q 167 352 125 375 q 263 315 208 329 q 375 292 317 301 q 471 274 433 283 q 526 248 508 264 q 544 203 544 232 q 533 160 544 179 q 493 132 522 142 q 411 122 464 122 q 285 152 333 122 q 222 229 238 182 l 56 229 "},"ș":{"ha":783,"x_min":53,"x_max":729,"o":"m 56 229 q 61 179 53 210 q 92 115 69 149 q 157 51 115 81 q 262 2 199 21 q 413 -17 325 -17 q 582 8 511 -17 q 691 78 653 32 q 729 190 729 124 q 706 280 729 244 q 644 337 683 315 q 556 372 606 358 q 453 397 507 386 q 347 418 389 408 q 283 444 304 428 q 261 489 261 460 q 296 546 261 525 q 399 567 331 567 q 501 544 468 567 q 546 469 535 521 l 706 469 q 672 592 706 539 q 569 676 638 646 q 399 706 501 706 q 272 692 331 706 q 169 651 213 678 q 101 586 125 625 q 76 497 76 547 q 101 410 76 446 q 167 352 125 375 q 263 315 208 329 q 375 292 317 301 q 471 274 433 283 q 526 248 508 264 q 544 203 544 232 q 533 160 544 179 q 493 132 522 142 q 411 122 464 122 q 285 152 333 122 q 222 229 238 182 l 56 229 m 346 -360 l 346 -360 q 481 -294 435 -342 q 528 -171 528 -246 l 528 -99 l 315 -99 l 315 -226 l 401 -242 q 379 -280 400 -261 q 329 -312 358 -299 l 346 -360 "},"ß":{"ha":990,"x_min":96,"x_max":967,"o":"m 485 -240 q 682 -223 593 -240 q 834 -170 771 -206 q 932 -82 897 -135 q 967 42 967 -29 q 936 157 967 111 q 852 231 906 203 q 731 270 799 258 q 588 283 663 282 l 599 218 l 883 556 l 883 676 l 254 678 l 254 540 l 751 540 l 726 600 l 457 311 l 457 179 l 506 179 q 641 170 588 179 q 726 143 694 161 q 770 99 757 125 q 783 39 783 74 q 769 -25 783 1 q 722 -68 756 -51 q 630 -93 688 -85 q 485 -101 572 -101 l 485 -240 m 96 0 l 276 0 l 276 706 q 308 798 276 772 q 392 822 340 824 l 519 822 l 519 968 l 363 968 q 217 943 276 968 q 126 865 157 918 q 96 728 96 811 l 96 0 "},"t":{"ha":603,"x_min":35,"x_max":571,"o":"m 35 690 l 35 550 l 571 550 l 571 690 l 35 690 m 213 879 l 213 0 l 393 0 l 393 879 l 213 879 "},"ŧ":{"ha":601,"x_min":33,"x_max":571,"o":"m 33 449 l 33 344 l 568 344 l 568 449 l 33 449 m 35 690 l 35 550 l 571 550 l 571 690 l 35 690 m 213 879 l 213 0 l 393 0 l 393 879 l 213 879 "},"ť":{"ha":492,"x_min":35,"x_max":571,"o":"m 35 690 l 35 550 l 571 550 l 571 690 l 35 690 m 213 879 l 213 0 l 393 0 l 393 879 l 213 879 m 425 747 l 483 919 l 483 1039 l 271 1039 l 271 919 l 329 747 l 425 747 "},"ţ":{"ha":603,"x_min":35,"x_max":571,"o":"m 171 -161 l 40 -161 q 63 -244 38 -204 q 137 -308 88 -283 q 256 -332 186 -332 q 420 -288 365 -332 q 475 -186 475 -244 q 456 -117 475 -144 q 404 -74 436 -90 q 333 -50 372 -57 l 221 -89 q 289 -111 268 -97 q 316 -139 310 -125 q 322 -162 322 -153 q 306 -201 322 -185 q 251 -218 290 -218 q 203 -207 219 -218 q 180 -182 186 -196 q 171 -161 174 -168 m 221 24 l 221 -89 l 372 -99 l 372 24 l 221 24 m 35 690 l 35 550 l 571 550 l 571 690 l 35 690 m 213 879 l 213 0 l 393 0 l 393 879 l 213 879 "},"ț":{"ha":603,"x_min":35,"x_max":571,"o":"m 35 690 l 35 550 l 571 550 l 571 690 l 35 690 m 213 879 l 213 0 l 393 0 l 393 879 l 213 879 m 226 -346 l 226 -346 q 362 -280 315 -328 q 408 -157 408 -232 l 408 -85 l 196 -85 l 196 -212 l 282 -228 q 260 -266 281 -247 q 210 -299 239 -285 l 226 -346 "},"u":{"ha":963,"x_min":83,"x_max":882,"o":"m 882 0 l 882 690 l 701 690 l 701 0 l 882 0 m 711 332 q 665 242 699 289 q 576 162 631 194 q 447 129 522 129 q 349 144 390 129 q 285 198 307 160 q 264 303 264 236 l 264 690 l 83 690 l 83 272 q 110 132 83 188 q 181 44 136 76 q 280 -3 225 11 q 392 -17 335 -17 q 517 8 464 -17 q 606 70 569 32 q 665 150 642 108 q 699 228 688 192 q 713 285 710 265 l 711 332 "},"ú":{"ha":963,"x_min":83,"x_max":882,"o":"m 882 0 l 882 690 l 701 690 l 701 0 l 882 0 m 711 332 q 665 242 699 289 q 576 162 631 194 q 447 129 522 129 q 349 144 390 129 q 285 198 307 160 q 264 303 264 236 l 264 690 l 83 690 l 83 272 q 110 132 83 188 q 181 44 136 76 q 280 -3 225 11 q 392 -17 335 -17 q 517 8 464 -17 q 606 70 569 32 q 665 150 642 108 q 699 228 688 192 q 713 285 710 265 l 711 332 m 399 835 l 571 835 l 826 1054 l 588 1054 l 399 835 "},"û":{"ha":963,"x_min":83,"x_max":882,"o":"m 882 0 l 882 690 l 701 690 l 701 0 l 882 0 m 711 332 q 665 242 699 289 q 576 162 631 194 q 447 129 522 129 q 349 144 390 129 q 285 198 307 160 q 264 303 264 236 l 264 690 l 83 690 l 83 272 q 110 132 83 188 q 181 44 136 76 q 280 -3 225 11 q 392 -17 335 -17 q 517 8 464 -17 q 606 70 569 32 q 665 150 642 108 q 699 228 688 192 q 713 285 710 265 l 711 332 m 590 1054 l 401 1054 l 175 835 l 371 835 l 553 1017 l 439 1018 l 619 835 l 815 835 l 590 1054 "},"ü":{"ha":963,"x_min":83,"x_max":882,"o":"m 882 0 l 882 690 l 701 690 l 701 0 l 882 0 m 711 332 q 665 242 699 289 q 576 162 631 194 q 447 129 522 129 q 349 144 390 129 q 285 198 307 160 q 264 303 264 236 l 264 690 l 83 690 l 83 272 q 110 132 83 188 q 181 44 136 76 q 280 -3 225 11 q 392 -17 335 -17 q 517 8 464 -17 q 606 70 569 32 q 665 150 642 108 q 699 228 688 192 q 713 285 710 265 l 711 332 m 450 994 l 240 994 l 240 836 l 450 836 l 450 994 m 751 994 l 542 994 l 542 836 l 751 836 l 751 994 "},"ù":{"ha":963,"x_min":83,"x_max":882,"o":"m 882 0 l 882 690 l 701 690 l 701 0 l 882 0 m 711 332 q 665 242 699 289 q 576 162 631 194 q 447 129 522 129 q 349 144 390 129 q 285 198 307 160 q 264 303 264 236 l 264 690 l 83 690 l 83 272 q 110 132 83 188 q 181 44 136 76 q 280 -3 225 11 q 392 -17 335 -17 q 517 8 464 -17 q 606 70 569 32 q 665 150 642 108 q 699 228 688 192 q 713 285 710 265 l 711 332 m 418 835 l 590 835 l 401 1054 l 163 1054 l 418 835 "},"ű":{"ha":963,"x_min":83,"x_max":908,"o":"m 882 0 l 882 690 l 701 690 l 701 0 l 882 0 m 711 332 q 665 242 699 289 q 576 162 631 194 q 447 129 522 129 q 349 144 390 129 q 285 198 307 160 q 264 303 264 236 l 264 690 l 83 690 l 83 272 q 110 132 83 188 q 181 44 136 76 q 280 -3 225 11 q 392 -17 335 -17 q 517 8 464 -17 q 606 70 569 32 q 665 150 642 108 q 699 228 688 192 q 713 285 710 265 l 711 332 m 551 835 l 693 835 l 908 1054 l 719 1054 l 551 835 m 251 835 l 393 835 l 600 1054 l 411 1054 l 251 835 "},"ū":{"ha":963,"x_min":83,"x_max":882,"o":"m 882 0 l 882 690 l 701 690 l 701 0 l 882 0 m 711 332 q 665 242 699 289 q 576 162 631 194 q 447 129 522 129 q 349 144 390 129 q 285 198 307 160 q 264 303 264 236 l 264 690 l 83 690 l 83 272 q 110 132 83 188 q 181 44 136 76 q 280 -3 225 11 q 392 -17 335 -17 q 517 8 464 -17 q 606 70 569 32 q 665 150 642 108 q 699 228 688 192 q 713 285 710 265 l 711 332 m 283 846 l 710 846 l 710 958 l 283 958 l 283 846 "},"ų":{"ha":963,"x_min":83,"x_max":882,"o":"m 856 -310 l 856 -214 q 767 -201 806 -214 q 708 -166 729 -189 q 688 -110 688 -143 q 724 -36 688 -62 q 818 0 761 -10 l 818 31 q 681 6 742 24 q 583 -47 619 -12 q 547 -136 547 -81 q 631 -263 547 -217 q 856 -310 714 -310 m 882 0 l 882 690 l 701 690 l 701 0 l 882 0 m 711 332 q 665 242 699 289 q 576 162 631 194 q 447 129 522 129 q 349 144 390 129 q 285 198 307 160 q 264 303 264 236 l 264 690 l 83 690 l 83 272 q 110 132 83 188 q 181 44 136 76 q 280 -3 225 11 q 392 -17 335 -17 q 517 8 464 -17 q 606 70 569 32 q 665 150 642 108 q 699 228 688 192 q 713 285 710 265 l 711 332 "},"ů":{"ha":963,"x_min":83,"x_max":882,"o":"m 882 0 l 882 690 l 701 690 l 701 0 l 882 0 m 711 332 q 665 242 699 289 q 576 162 631 194 q 447 129 522 129 q 349 144 390 129 q 285 198 307 160 q 264 303 264 236 l 264 690 l 83 690 l 83 272 q 110 132 83 188 q 181 44 136 76 q 280 -3 225 11 q 392 -17 335 -17 q 517 8 464 -17 q 606 70 569 32 q 665 150 642 108 q 699 228 688 192 q 713 285 710 265 l 711 332 m 496 801 q 639 844 586 801 q 692 957 692 886 q 639 1069 692 1026 q 496 1111 586 1111 q 352 1069 406 1111 q 299 957 299 1026 q 352 844 299 886 q 496 801 406 801 m 496 882 q 424 901 446 882 q 403 957 403 919 q 424 1012 403 993 q 496 1031 446 1031 q 566 1012 544 1031 q 588 957 588 993 q 566 901 588 919 q 496 882 544 882 "},"v":{"ha":871,"x_min":21,"x_max":849,"o":"m 464 118 l 219 690 l 21 690 l 346 0 l 517 0 l 849 690 l 651 690 l 399 118 l 464 118 "},"w":{"ha":1372,"x_min":21,"x_max":1350,"o":"m 983 125 l 789 690 l 582 690 l 379 125 l 436 125 l 219 690 l 21 690 l 317 0 l 486 0 l 715 557 l 654 557 l 876 0 l 1046 0 l 1350 690 l 1151 690 l 926 126 l 983 125 "},"ẃ":{"ha":1372,"x_min":21,"x_max":1350,"o":"m 983 125 l 789 690 l 582 690 l 379 125 l 436 125 l 219 690 l 21 690 l 317 0 l 486 0 l 715 557 l 654 557 l 876 0 l 1046 0 l 1350 690 l 1151 690 l 926 126 l 983 125 m 585 835 l 757 835 l 1013 1054 l 774 1054 l 585 835 "},"ŵ":{"ha":1372,"x_min":21,"x_max":1350,"o":"m 983 125 l 789 690 l 582 690 l 379 125 l 436 125 l 219 690 l 21 690 l 317 0 l 486 0 l 715 557 l 654 557 l 876 0 l 1046 0 l 1350 690 l 1151 690 l 926 126 l 983 125 m 776 1054 l 588 1054 l 361 835 l 557 835 l 739 1017 l 625 1018 l 806 835 l 1001 835 l 776 1054 "},"ẅ":{"ha":1372,"x_min":21,"x_max":1350,"o":"m 983 125 l 789 690 l 582 690 l 379 125 l 436 125 l 219 690 l 21 690 l 317 0 l 486 0 l 715 557 l 654 557 l 876 0 l 1046 0 l 1350 690 l 1151 690 l 926 126 l 983 125 m 636 994 l 426 994 l 426 836 l 636 836 l 636 994 m 938 994 l 728 994 l 728 836 l 938 836 l 938 994 "},"ẁ":{"ha":1372,"x_min":21,"x_max":1350,"o":"m 983 125 l 789 690 l 582 690 l 379 125 l 436 125 l 219 690 l 21 690 l 317 0 l 486 0 l 715 557 l 654 557 l 876 0 l 1046 0 l 1350 690 l 1151 690 l 926 126 l 983 125 m 604 835 l 776 835 l 588 1054 l 349 1054 l 604 835 "},"x":{"ha":913,"x_min":28,"x_max":885,"o":"m 865 690 l 646 690 l 401 404 l 28 0 l 249 0 l 507 306 l 865 690 m 28 690 l 396 301 l 664 0 l 885 0 l 510 407 l 249 690 l 28 690 "},"y":{"ha":888,"x_min":21,"x_max":865,"o":"m 21 690 l 356 0 l 511 28 l 213 690 l 21 690 m 865 690 l 672 690 l 404 103 l 200 -278 l 388 -278 l 865 690 "},"ý":{"ha":888,"x_min":21,"x_max":865,"o":"m 21 690 l 356 0 l 511 28 l 213 690 l 21 690 m 865 690 l 672 690 l 404 103 l 200 -278 l 388 -278 l 865 690 m 347 835 l 519 835 l 775 1054 l 536 1054 l 347 835 "},"ŷ":{"ha":888,"x_min":21,"x_max":865,"o":"m 21 690 l 356 0 l 511 28 l 213 690 l 21 690 m 865 690 l 672 690 l 404 103 l 200 -278 l 388 -278 l 865 690 m 539 1054 l 350 1054 l 124 835 l 319 835 l 501 1017 l 388 1018 l 568 835 l 764 835 l 539 1054 "},"ÿ":{"ha":888,"x_min":21,"x_max":865,"o":"m 21 690 l 356 0 l 511 28 l 213 690 l 21 690 m 865 690 l 672 690 l 404 103 l 200 -278 l 388 -278 l 865 690 m 399 994 l 189 994 l 189 836 l 399 836 l 399 994 m 700 994 l 490 994 l 490 836 l 700 836 l 700 994 "},"ỳ":{"ha":888,"x_min":21,"x_max":865,"o":"m 21 690 l 356 0 l 511 28 l 213 690 l 21 690 m 865 690 l 672 690 l 404 103 l 200 -278 l 388 -278 l 865 690 m 367 835 l 539 835 l 350 1054 l 111 1054 l 367 835 "},"z":{"ha":864,"x_min":79,"x_max":786,"o":"m 776 553 l 776 690 l 79 690 l 79 553 l 647 553 l 628 606 l 79 136 l 79 0 l 786 0 l 786 136 l 208 136 l 228 83 l 776 553 "},"ź":{"ha":864,"x_min":79,"x_max":786,"o":"m 776 553 l 776 690 l 79 690 l 79 553 l 647 553 l 628 606 l 79 136 l 79 0 l 786 0 l 786 136 l 208 136 l 228 83 l 776 553 m 332 835 l 504 835 l 760 1054 l 521 1054 l 332 835 "},"ž":{"ha":864,"x_min":79,"x_max":786,"o":"m 776 553 l 776 690 l 79 690 l 79 553 l 647 553 l 628 606 l 79 136 l 79 0 l 786 0 l 786 136 l 208 136 l 228 83 l 776 553 m 490 874 l 314 1054 l 118 1054 l 339 835 l 528 835 l 749 1054 l 553 1054 l 376 874 l 490 874 "},"ż":{"ha":864,"x_min":79,"x_max":786,"o":"m 776 553 l 776 690 l 79 690 l 79 553 l 647 553 l 628 606 l 79 136 l 79 0 l 786 0 l 786 136 l 208 136 l 228 83 l 776 553 m 535 996 l 325 996 l 325 838 l 535 838 l 535 996 "},"ﬁ":{"ha":992,"x_min":35,"x_max":910,"o":"m 538 521 l 883 521 l 883 658 l 538 658 l 538 521 m 729 658 l 729 0 l 910 0 l 910 658 l 729 658 m 190 0 l 371 0 l 371 706 l 190 728 l 190 0 m 457 968 q 311 943 371 968 q 221 865 251 918 q 190 728 190 811 l 371 706 q 386 778 371 753 q 431 814 401 804 q 500 822 460 824 l 910 822 l 910 968 l 457 968 m 35 658 l 35 521 l 590 521 l 590 658 l 35 658 "},"ª":{"ha":936,"x_min":50,"x_max":856,"o":"m 374 407 q 513 435 453 407 q 613 508 574 464 q 673 601 653 553 q 693 690 693 650 q 674 801 693 749 q 615 895 654 854 q 519 960 576 936 q 383 983 461 983 q 207 947 282 983 q 91 843 132 910 q 50 689 50 776 q 91 544 50 608 q 205 444 132 481 q 374 407 278 407 m 424 544 q 283 585 332 544 q 235 689 235 626 q 281 802 235 760 q 424 844 326 844 q 524 834 478 844 q 603 803 569 824 q 656 755 638 783 q 675 689 675 726 q 656 633 675 660 q 604 588 638 607 q 524 556 571 568 q 424 544 478 544 m 675 968 l 675 586 q 678 515 675 553 q 684 449 681 476 q 688 422 688 422 l 856 422 l 856 968 l 675 968 "},"º":{"ha":978,"x_min":97,"x_max":881,"o":"m 492 396 q 699 431 613 396 q 833 532 786 467 q 881 689 881 597 q 833 847 881 781 q 699 948 786 913 q 492 983 613 983 q 281 948 369 983 q 145 847 193 913 q 97 689 97 781 q 145 532 97 597 q 281 431 193 467 q 492 396 369 396 m 490 528 q 369 549 417 528 q 299 606 322 569 q 276 689 276 642 q 300 772 276 736 q 371 830 324 808 q 492 851 418 851 q 610 830 564 851 q 679 772 657 808 q 701 689 701 735 q 678 606 701 642 q 609 549 656 569 q 490 528 563 528 "},"Α":{"ha":1096,"x_min":24,"x_max":1072,"o":"m 247 196 l 842 196 l 842 350 l 247 350 l 247 196 m 24 0 l 224 0 l 590 810 l 501 810 l 871 0 l 1072 0 l 646 899 l 446 899 l 24 0 "},"Β":{"ha":1083,"x_min":107,"x_max":1026,"o":"m 107 0 l 675 0 q 858 31 779 3 q 982 113 938 58 q 1026 251 1026 168 q 1000 355 1026 315 q 928 417 974 394 q 822 447 882 439 q 693 457 761 456 l 688 447 q 849 474 781 453 q 956 538 918 494 q 993 658 993 582 q 899 838 993 778 q 625 899 806 899 l 107 899 l 107 0 m 292 153 l 292 369 l 638 369 q 736 365 690 369 q 810 339 782 360 q 838 272 838 318 q 790 181 838 210 q 656 153 743 153 l 292 153 m 292 518 l 292 746 l 628 746 q 753 720 706 746 q 800 632 800 694 q 753 544 800 569 q 618 518 706 518 l 292 518 "},"Γ":{"ha":950,"x_min":107,"x_max":926,"o":"m 269 899 l 269 744 l 926 744 l 926 899 l 269 899 m 107 899 l 107 0 l 292 0 l 292 899 l 107 899 "},"Δ":{"ha":1096,"x_min":24,"x_max":1072,"o":"m 135 0 l 939 0 l 939 154 l 135 154 l 135 0 m 24 0 l 224 0 l 590 810 l 501 810 l 871 0 l 1072 0 l 646 899 l 446 899 l 24 0 "},"Ε":{"ha":1068,"x_min":107,"x_max":985,"o":"m 292 375 l 858 375 l 858 521 l 292 521 l 292 744 l 983 744 l 983 899 l 107 899 l 107 0 l 985 0 l 985 154 l 292 154 l 292 375 "},"Ζ":{"ha":1057,"x_min":88,"x_max":969,"o":"m 88 899 l 88 744 l 821 744 l 804 796 l 88 154 l 88 0 l 969 0 l 969 154 l 236 154 l 253 103 l 969 744 l 969 899 l 88 899 "},"Η":{"ha":1243,"x_min":107,"x_max":1136,"o":"m 269 528 l 269 374 l 982 374 l 982 528 l 269 528 m 951 899 l 951 0 l 1136 0 l 1136 899 l 951 899 m 107 899 l 107 0 l 292 0 l 292 899 l 107 899 "},"Θ":{"ha":1283,"x_min":74,"x_max":1210,"o":"m 642 -18 q 949 38 822 -18 q 1142 199 1075 94 q 1210 449 1210 303 q 1142 700 1210 596 q 949 860 1075 804 q 642 917 822 917 q 335 860 463 917 q 141 700 208 804 q 74 449 74 596 q 141 199 74 303 q 335 38 208 94 q 642 -18 463 -18 m 642 142 q 446 175 532 142 q 311 276 360 208 q 263 449 263 344 q 311 621 263 553 q 446 723 360 689 q 642 757 532 757 q 837 723 753 757 q 969 621 921 689 q 1017 449 1017 553 q 969 276 1017 344 q 837 175 921 208 q 642 142 753 142 m 356 528 l 356 382 l 922 382 l 922 528 l 356 528 "},"Ι":{"ha":450,"x_min":133,"x_max":318,"o":"m 133 899 l 133 0 l 318 0 l 318 899 l 133 899 "},"Κ":{"ha":1131,"x_min":107,"x_max":1096,"o":"m 492 438 l 1032 899 l 769 899 l 290 472 l 829 0 l 1096 0 l 490 515 l 492 438 m 107 899 l 107 0 l 292 0 l 292 899 l 107 899 "},"Λ":{"ha":1096,"x_min":24,"x_max":1072,"o":"m 24 0 l 224 0 l 590 810 l 501 810 l 871 0 l 1072 0 l 646 899 l 446 899 l 24 0 "},"Μ":{"ha":1526,"x_min":107,"x_max":1419,"o":"m 806 92 l 292 899 l 107 899 l 107 0 l 292 0 l 292 650 l 247 638 l 660 0 l 867 0 l 1279 640 l 1235 653 l 1235 0 l 1419 0 l 1419 899 l 1235 899 l 718 92 l 806 92 "},"Ν":{"ha":1251,"x_min":107,"x_max":1144,"o":"m 1018 183 l 292 899 l 107 899 l 107 0 l 292 0 l 292 733 l 233 710 l 960 0 l 1144 0 l 1144 899 l 960 899 l 960 160 l 1018 183 "},"Ξ":{"ha":1067,"x_min":83,"x_max":983,"o":"m 83 899 l 83 744 l 983 744 l 983 899 l 83 899 m 83 154 l 83 0 l 983 0 l 983 154 l 83 154 m 208 535 l 208 389 l 858 389 l 858 535 l 208 535 "},"Ο":{"ha":1283,"x_min":74,"x_max":1210,"o":"m 642 -18 q 949 38 822 -18 q 1142 199 1075 94 q 1210 449 1210 303 q 1142 700 1210 596 q 949 860 1075 804 q 642 917 822 917 q 335 860 463 917 q 141 700 208 804 q 74 449 74 596 q 141 199 74 303 q 335 38 208 94 q 642 -18 463 -18 m 642 142 q 446 175 532 142 q 311 276 360 208 q 263 449 263 344 q 311 621 263 553 q 446 723 360 689 q 642 757 532 757 q 837 723 753 757 q 969 621 921 689 q 1017 449 1017 553 q 969 276 1017 344 q 837 175 921 208 q 642 142 753 142 "},"Π":{"ha":1243,"x_min":107,"x_max":1136,"o":"m 269 899 l 269 744 l 982 744 l 982 899 l 269 899 m 951 899 l 951 0 l 1136 0 l 1136 899 l 951 899 m 107 899 l 107 0 l 292 0 l 292 899 l 107 899 "},"Ρ":{"ha":1089,"x_min":104,"x_max":1022,"o":"m 267 292 l 661 292 q 802 308 736 292 q 917 359 868 324 q 994 451 967 394 q 1022 589 1022 508 q 994 729 1022 671 q 917 825 967 788 q 802 881 868 863 q 661 899 736 899 l 104 899 l 104 0 l 289 0 l 289 740 l 678 740 q 794 701 751 740 q 838 589 838 663 q 794 478 838 518 q 678 439 751 439 l 267 439 l 267 292 "},"Σ":{"ha":1118,"x_min":107,"x_max":1011,"o":"m 107 899 l 107 740 l 538 432 l 574 496 l 107 153 l 107 0 l 1011 0 l 1011 154 l 231 154 l 218 72 l 749 450 l 213 831 l 231 744 l 997 744 l 997 899 l 107 899 "},"Τ":{"ha":1003,"x_min":28,"x_max":975,"o":"m 28 899 l 28 744 l 975 744 l 975 899 l 28 899 m 410 764 l 410 0 l 594 0 l 594 764 l 410 764 "},"Υ":{"ha":1028,"x_min":26,"x_max":1001,"o":"m 1001 899 l 788 899 l 461 361 l 572 361 l 240 899 l 26 899 l 421 283 l 421 0 l 607 0 l 607 283 l 1001 899 "},"Φ":{"ha":1367,"x_min":74,"x_max":1293,"o":"m 683 107 q 942 126 829 107 q 1133 185 1056 144 q 1252 290 1211 225 q 1293 449 1293 356 q 1252 608 1293 543 q 1133 714 1211 674 q 942 773 1056 754 q 683 792 829 792 q 426 773 539 792 q 234 714 313 754 q 115 608 156 674 q 74 449 74 543 q 115 290 74 356 q 234 185 156 225 q 426 126 313 144 q 683 107 539 107 m 683 267 q 458 281 553 267 q 313 334 364 294 q 263 449 263 374 q 313 565 263 525 q 458 618 364 604 q 683 632 553 632 q 908 618 815 632 q 1051 565 1001 604 q 1100 449 1100 525 q 1051 334 1100 374 q 908 281 1001 294 q 683 267 815 267 m 592 903 l 592 0 l 776 0 l 776 903 l 592 903 "},"Χ":{"ha":1083,"x_min":54,"x_max":1029,"o":"m 800 899 l 496 525 l 492 521 l 54 0 l 279 0 l 594 397 l 600 403 l 1025 899 l 800 899 m 293 899 l 68 899 l 479 406 l 483 403 l 794 0 l 1029 0 l 596 518 l 593 522 l 293 899 "},"Ψ":{"ha":1325,"x_min":94,"x_max":1231,"o":"m 1231 681 l 1231 903 l 1046 903 l 1046 681 q 1017 549 1046 597 q 937 478 989 501 q 815 449 885 456 q 663 443 746 443 q 510 449 579 443 q 388 478 440 456 q 308 549 336 501 q 279 681 279 597 l 279 903 l 94 903 l 94 681 q 133 490 94 567 q 244 367 171 413 q 422 303 317 322 q 663 283 528 283 q 903 303 797 283 q 1081 367 1008 322 q 1192 490 1154 413 q 1231 681 1231 567 m 569 903 l 569 0 l 754 0 l 754 903 l 569 903 "},"Ω":{"ha":1211,"x_min":49,"x_max":1171,"o":"m 49 0 l 524 0 l 524 211 q 394 266 457 232 q 292 355 332 300 q 253 490 253 410 q 292 628 253 568 q 409 724 331 689 q 606 758 488 758 q 802 724 724 758 q 919 628 881 689 q 958 490 958 568 q 920 358 958 413 q 822 269 882 304 q 696 211 761 233 l 696 0 l 1171 0 l 1171 154 l 840 154 l 840 178 q 948 217 894 190 q 1046 283 1001 243 q 1117 380 1090 324 q 1143 508 1143 436 q 1106 667 1143 593 q 997 797 1068 740 q 828 885 926 853 q 606 917 729 917 q 384 885 483 917 q 214 797 285 853 q 106 667 143 740 q 68 508 68 593 q 89 395 68 447 q 149 301 110 343 q 245 228 189 258 q 374 178 301 197 l 374 154 l 49 154 l 49 0 "},"Ά":{"ha":1192,"x_min":1,"x_max":1168,"o":"m 343 196 l 938 196 l 938 350 l 343 350 l 343 196 m 119 0 l 319 0 l 686 810 l 597 810 l 967 0 l 1168 0 l 742 899 l 542 899 l 119 0 m 1 679 l 174 679 l 429 899 l 190 899 l 1 679 "},"Έ":{"ha":1461,"x_min":0,"x_max":1378,"o":"m 685 375 l 1251 375 l 1251 521 l 685 521 l 685 744 l 1376 744 l 1376 899 l 500 899 l 500 0 l 1378 0 l 1378 154 l 685 154 l 685 375 m 0 679 l 172 679 l 428 899 l 189 899 l 0 679 "},"Ή":{"ha":1636,"x_min":0,"x_max":1529,"o":"m 663 528 l 663 374 l 1375 374 l 1375 528 l 663 528 m 1344 899 l 1344 0 l 1529 0 l 1529 899 l 1344 899 m 500 899 l 500 0 l 685 0 l 685 899 l 500 899 m 0 679 l 172 679 l 428 899 l 189 899 l 0 679 "},"Ί":{"ha":843,"x_min":0,"x_max":711,"o":"m 526 899 l 526 0 l 711 0 l 711 899 l 526 899 m 0 679 l 172 679 l 428 899 l 189 899 l 0 679 "},"Ό":{"ha":1551,"x_min":0,"x_max":1478,"o":"m 910 -18 q 1217 38 1090 -18 q 1410 199 1343 94 q 1478 449 1478 303 q 1410 700 1478 596 q 1217 860 1343 804 q 910 917 1090 917 q 603 860 731 917 q 409 700 476 804 q 342 449 342 596 q 409 199 342 303 q 603 38 476 94 q 910 -18 731 -18 m 910 142 q 714 175 800 142 q 579 276 628 208 q 531 449 531 344 q 579 621 531 553 q 714 723 628 689 q 910 757 800 757 q 1105 723 1021 757 q 1237 621 1189 689 q 1285 449 1285 553 q 1237 276 1285 344 q 1105 175 1189 208 q 910 142 1021 142 m 0 679 l 172 679 l 428 899 l 189 899 l 0 679 "},"Ύ":{"ha":1449,"x_min":0,"x_max":1422,"o":"m 1422 899 l 1208 899 l 882 361 l 993 361 l 661 899 l 447 899 l 842 283 l 842 0 l 1028 0 l 1028 283 l 1422 899 m 0 679 l 172 679 l 428 899 l 189 899 l 0 679 "},"Ώ":{"ha":1444,"x_min":0,"x_max":1404,"o":"m 282 0 l 757 0 l 757 211 q 628 266 690 232 q 526 355 565 300 q 486 490 486 410 q 525 628 486 568 q 642 724 564 689 q 839 758 721 758 q 1035 724 957 758 q 1153 628 1114 689 q 1192 490 1192 568 q 1153 358 1192 413 q 1055 269 1115 304 q 929 211 994 233 l 929 0 l 1404 0 l 1404 154 l 1074 154 l 1074 178 q 1181 217 1128 190 q 1279 283 1235 243 q 1350 380 1324 324 q 1376 508 1376 436 q 1339 667 1376 593 q 1231 797 1301 740 q 1061 885 1160 853 q 839 917 963 917 q 617 885 717 917 q 447 797 518 853 q 339 667 376 740 q 301 508 301 593 q 322 395 301 447 q 383 301 343 343 q 478 228 422 258 q 607 178 535 197 l 607 154 l 282 154 l 282 0 m 0 683 l 172 683 l 428 903 l 189 903 l 0 683 "},"Ϊ":{"ha":450,"x_min":-31,"x_max":481,"o":"m 133 899 l 133 0 l 318 0 l 318 899 l 133 899 m 179 1167 l -31 1167 l -31 1008 l 179 1008 l 179 1167 m 481 1167 l 271 1167 l 271 1008 l 481 1008 l 481 1167 "},"Ϋ":{"ha":1028,"x_min":26,"x_max":1001,"o":"m 1001 899 l 788 899 l 461 361 l 572 361 l 240 899 l 26 899 l 421 283 l 421 0 l 607 0 l 607 283 l 1001 899 m 468 1167 l 258 1167 l 258 1008 l 468 1008 l 468 1167 m 769 1167 l 560 1167 l 560 1008 l 769 1008 l 769 1167 "},"α":{"ha":1004,"x_min":50,"x_max":924,"o":"m 419 -15 q 576 17 511 -15 q 682 103 642 50 q 742 220 722 157 q 761 344 761 283 q 728 528 761 446 q 622 658 694 610 q 429 706 549 706 q 235 660 321 706 q 100 535 150 615 q 50 344 50 454 q 99 156 50 238 q 233 30 149 75 q 419 -15 317 -15 m 478 124 q 351 151 406 124 q 265 228 296 179 q 235 344 235 278 q 299 505 235 444 q 478 565 363 565 q 619 540 560 565 q 710 465 678 514 q 743 344 743 415 q 711 229 743 279 q 619 151 679 179 q 478 124 560 124 m 743 690 l 743 178 q 746 98 743 138 q 752 31 749 58 q 756 0 756 4 l 924 0 l 924 690 l 743 690 "},"β":{"ha":1006,"x_min":83,"x_max":956,"o":"m 956 261 q 924 392 956 339 q 834 476 892 446 q 700 517 776 507 q 792 539 742 518 q 878 601 842 560 q 914 707 914 643 q 814 908 914 832 q 507 985 714 985 q 271 947 365 985 q 130 830 176 910 q 83 624 83 750 l 83 331 l 246 344 q 267 219 246 283 q 332 102 289 156 q 442 16 375 49 q 600 -17 508 -17 q 783 16 703 -17 q 909 110 863 49 q 956 261 956 172 m 568 560 l 396 560 l 396 453 l 567 453 q 681 434 636 453 q 749 382 726 415 q 771 303 771 349 q 710 174 771 224 q 528 124 649 124 q 388 151 447 124 q 296 228 328 179 q 264 344 264 278 l 264 638 q 281 742 264 701 q 329 805 297 782 q 406 837 361 828 q 507 846 451 846 q 647 824 599 846 q 712 763 694 801 q 729 679 729 725 q 689 590 729 619 q 568 560 649 560 m 83 331 l 83 -278 l 264 -278 l 264 358 l 231 358 l 83 331 "},"γ":{"ha":871,"x_min":21,"x_max":849,"o":"m 340 107 l 340 -278 l 521 -278 l 521 107 l 340 107 m 464 118 l 219 690 l 21 690 l 346 0 l 517 0 l 849 690 l 651 690 l 399 118 l 464 118 "},"δ":{"ha":965,"x_min":50,"x_max":908,"o":"m 478 -17 q 624 0 557 -17 q 743 49 690 17 q 833 125 796 81 q 889 226 869 169 q 908 350 908 283 q 872 513 908 431 q 760 669 835 594 q 568 801 685 743 q 293 888 451 858 l 196 832 q 363 774 275 811 q 528 690 450 738 q 661 588 607 643 q 729 475 715 533 l 725 475 q 672 552 704 519 q 599 607 640 585 q 510 640 558 629 q 411 651 463 651 q 233 614 315 651 q 100 505 150 576 q 50 331 50 433 q 101 145 50 224 q 249 25 153 67 q 478 -17 344 -17 m 486 124 q 353 147 410 124 q 266 215 297 169 q 235 328 235 261 q 265 439 235 394 q 350 506 294 483 q 482 528 406 528 q 582 516 535 528 q 665 479 629 504 q 722 417 701 454 q 743 328 743 379 q 708 215 743 261 q 616 147 674 169 q 486 124 558 124 m 865 968 l 194 968 l 194 831 l 865 831 l 865 968 "},"ε":{"ha":956,"x_min":65,"x_max":919,"o":"m 483 -17 q 649 1 575 -17 q 777 53 722 18 q 868 139 832 88 q 919 258 904 190 l 754 258 q 699 174 739 204 q 604 133 660 144 q 483 122 549 122 q 371 130 422 122 q 289 158 319 138 q 258 215 258 179 q 286 264 258 247 q 358 287 314 281 q 451 293 403 293 l 622 293 l 622 399 l 451 399 q 363 401 404 399 q 294 418 321 404 q 268 464 268 432 q 324 538 268 508 q 483 567 381 567 q 599 553 543 567 q 696 510 654 539 q 753 433 738 481 l 918 433 q 846 578 903 517 q 697 672 789 639 q 483 706 606 706 q 275 678 367 706 q 131 603 183 651 q 78 492 78 556 q 97 426 78 454 q 151 381 117 399 q 228 353 185 363 q 318 343 271 344 q 226 332 271 342 q 144 303 181 322 q 87 253 108 283 q 65 181 65 224 q 122 66 65 110 q 273 3 178 22 q 483 -17 368 -17 "},"ζ":{"ha":760,"x_min":69,"x_max":774,"o":"m 774 831 l 732 879 q 550 828 636 858 q 390 758 464 797 q 258 674 317 719 q 156 575 199 628 q 92 464 114 522 q 69 343 69 406 q 88 215 69 267 q 138 128 107 163 q 207 73 168 94 q 288 36 246 51 q 368 6 329 21 q 438 -29 407 -8 q 488 -83 469 -50 q 506 -167 506 -115 l 506 -278 l 686 -278 l 686 -167 q 668 -34 686 -87 q 619 53 650 19 q 549 110 588 88 q 469 147 510 132 q 390 176 428 161 q 320 210 351 190 q 271 262 289 231 q 253 343 253 293 q 277 465 253 404 q 360 585 301 525 q 519 707 418 646 q 774 831 621 768 m 774 968 l 117 968 l 117 831 l 774 831 l 774 968 "},"η":{"ha":963,"x_min":83,"x_max":882,"o":"m 83 690 l 83 0 l 264 0 l 264 690 l 83 690 m 585 706 q 453 683 511 706 q 352 623 394 661 q 285 539 310 585 q 253 444 260 493 l 254 374 q 296 462 260 419 q 390 532 332 504 q 521 560 449 560 q 659 519 617 560 q 701 390 701 478 l 701 -278 l 882 -278 l 882 422 q 860 549 882 496 q 797 638 838 603 q 703 689 757 672 q 585 706 649 706 "},"θ":{"ha":1029,"x_min":64,"x_max":965,"o":"m 517 -18 q 775 47 676 -18 q 919 224 874 111 q 965 483 965 338 q 919 742 965 631 q 775 918 874 854 q 517 982 676 982 q 258 918 358 982 q 111 742 158 854 q 64 483 64 631 q 111 224 64 338 q 258 47 158 111 q 517 -18 358 -18 m 517 119 q 399 147 450 119 q 315 224 349 175 q 265 340 282 274 q 249 483 249 406 q 265 627 249 561 q 315 742 282 693 q 399 817 349 790 q 517 844 450 844 q 633 817 583 844 q 716 742 683 790 q 765 627 749 693 q 781 483 781 561 q 765 340 781 406 q 716 224 749 274 q 633 147 683 175 q 517 119 583 119 m 226 556 l 226 410 l 807 410 l 807 556 l 226 556 "},"ι":{"ha":444,"x_min":83,"x_max":397,"o":"m 397 0 l 397 142 q 297 157 329 132 q 264 253 264 182 l 264 690 l 83 690 l 83 235 q 115 94 83 151 q 215 11 146 36 q 397 0 285 -14 "},"κ":{"ha":889,"x_min":83,"x_max":878,"o":"m 83 690 l 83 0 l 264 0 l 264 690 l 83 690 m 846 690 l 600 690 l 268 388 l 649 0 l 878 0 l 439 439 l 435 328 l 846 690 "},"λ":{"ha":871,"x_min":22,"x_max":850,"o":"m 393 572 l 651 0 l 850 0 l 525 690 l 354 690 l 22 0 l 219 0 l 472 572 l 393 572 m 229 972 l 104 972 l 104 835 l 181 835 q 260 816 233 835 q 314 736 288 797 l 376 594 l 525 690 l 467 819 q 371 937 429 901 q 229 972 313 972 "},"μ":{"ha":1054,"x_min":83,"x_max":1015,"o":"m 1015 -10 l 1015 149 q 941 157 971 149 q 897 191 911 165 q 882 269 882 217 l 882 690 l 701 690 l 701 235 q 733 103 701 158 q 833 19 764 49 q 1015 -10 903 -10 m 711 332 q 666 242 699 289 q 580 162 633 194 q 451 129 526 129 q 356 145 399 129 q 289 201 314 161 q 264 311 264 240 l 264 690 l 83 690 l 83 -278 l 264 -278 l 264 144 l 240 115 q 310 16 263 49 q 431 -17 358 -17 q 547 8 499 -17 q 626 70 594 32 q 675 150 657 108 q 701 228 693 192 q 713 285 710 265 l 711 332 "},"ν":{"ha":871,"x_min":21,"x_max":849,"o":"m 464 118 l 219 690 l 21 690 l 346 0 l 517 0 l 849 690 l 651 690 l 399 118 l 464 118 "},"ξ":{"ha":724,"x_min":64,"x_max":710,"o":"m 64 264 q 88 163 64 201 q 150 99 111 124 q 235 58 189 75 q 327 26 281 42 q 413 -13 374 10 q 474 -72 451 -36 q 497 -167 497 -108 l 497 -278 l 678 -278 l 678 -167 q 660 -37 678 -90 q 610 51 642 15 q 541 108 579 86 q 462 145 503 131 q 382 172 421 160 q 313 199 343 185 q 263 234 282 213 q 244 290 244 256 q 272 363 244 339 q 343 396 300 388 q 435 404 386 404 l 619 404 l 619 510 l 435 510 q 356 522 388 510 q 309 557 325 533 q 293 617 293 581 q 304 671 293 647 q 342 714 315 694 q 417 752 369 733 q 535 790 464 771 q 710 831 607 808 l 668 864 q 487 842 568 854 q 343 815 406 831 q 235 781 281 800 q 160 739 189 763 q 117 685 131 715 q 103 617 103 654 q 116 556 103 583 q 153 507 129 528 q 212 474 178 486 q 288 461 246 463 q 206 447 246 460 q 134 409 167 433 q 83 349 101 385 q 64 264 64 313 m 710 968 l 81 968 l 81 831 l 710 831 l 710 968 "},"ο":{"ha":978,"x_min":50,"x_max":928,"o":"m 490 -17 q 719 25 621 -17 q 872 147 817 67 q 928 343 928 226 q 872 541 928 460 q 719 664 817 622 q 490 706 621 706 q 260 664 360 706 q 106 541 161 622 q 50 343 50 460 q 106 147 50 226 q 260 25 161 67 q 490 -17 360 -17 m 490 122 q 358 148 417 122 q 267 223 300 174 q 233 343 233 272 q 267 465 233 415 q 360 542 301 515 q 490 568 418 568 q 621 542 564 568 q 711 465 678 515 q 744 343 744 414 q 711 223 744 272 q 620 148 678 174 q 490 122 563 122 "},"π":{"ha":1088,"x_min":69,"x_max":1018,"o":"m 225 593 l 225 0 l 406 0 l 406 593 l 225 593 m 1018 690 l 69 690 l 69 553 l 1018 553 l 1018 690 m 863 265 l 863 593 l 689 593 l 689 257 q 699 142 689 196 q 740 51 708 89 q 839 -1 772 14 q 1018 0 906 -15 l 1018 142 q 922 144 956 135 q 875 183 888 153 q 863 265 863 213 "},"ρ":{"ha":1006,"x_min":83,"x_max":956,"o":"m 586 -17 q 772 28 689 -17 q 906 153 856 72 q 956 344 956 235 q 903 533 956 451 q 756 660 851 614 q 528 706 660 706 q 287 659 386 706 q 135 528 188 613 q 83 331 83 443 l 246 344 q 265 219 246 283 q 325 102 285 156 q 430 16 365 49 q 586 -17 494 -17 m 528 124 q 388 151 447 124 q 296 228 328 179 q 264 344 264 278 q 299 465 264 415 q 394 540 333 514 q 528 567 454 567 q 708 506 644 567 q 771 344 771 444 q 741 228 771 278 q 656 151 711 179 q 528 124 601 124 m 83 331 l 83 -278 l 264 -278 l 264 344 l 231 358 l 83 331 "},"ς":{"ha":953,"x_min":50,"x_max":901,"o":"m 233 343 q 269 467 233 418 q 363 542 304 517 q 494 567 422 567 q 649 528 585 567 q 736 419 713 489 l 901 419 q 842 574 893 510 q 704 672 792 638 q 494 706 617 706 q 266 664 367 706 q 108 542 165 622 q 50 343 50 461 q 74 190 50 250 q 140 92 99 129 q 232 33 181 54 q 338 1 283 13 q 444 -22 393 -11 q 535 -47 494 -32 q 601 -90 576 -62 q 625 -167 625 -118 l 625 -278 l 806 -278 l 806 -167 q 781 -37 806 -87 q 716 42 757 13 q 624 88 675 71 q 519 115 574 104 q 414 140 465 126 q 322 175 363 153 q 258 238 282 197 q 233 343 233 278 "},"σ":{"ha":978,"x_min":50,"x_max":978,"o":"m 490 -17 q 719 22 621 -17 q 872 130 817 61 q 928 288 928 199 q 909 388 928 344 q 858 461 890 431 q 784 512 826 492 q 694 544 742 532 q 599 560 647 556 q 504 565 550 565 l 490 690 q 260 652 360 690 q 106 536 161 614 q 50 342 50 458 q 106 146 50 226 q 260 24 161 65 q 490 -17 360 -17 m 490 122 q 358 148 417 122 q 267 223 300 174 q 233 342 233 272 q 267 460 233 414 q 360 529 301 507 q 490 551 418 551 q 621 525 564 551 q 711 449 678 499 q 744 329 744 399 q 711 213 744 258 q 620 144 678 167 q 490 122 563 122 m 978 690 l 490 690 l 490 551 l 978 551 l 978 690 "},"τ":{"ha":643,"x_min":42,"x_max":601,"o":"m 601 690 l 42 690 l 42 553 l 601 553 l 601 690 m 404 265 l 404 593 l 231 593 l 231 257 q 240 142 231 196 q 282 51 250 89 q 381 -1 314 14 q 560 0 447 -15 l 560 142 q 463 144 497 135 q 417 183 429 153 q 404 265 404 213 "},"υ":{"ha":967,"x_min":83,"x_max":883,"o":"m 883 690 l 883 343 q 838 147 883 226 q 703 25 792 67 q 485 -17 615 -17 q 186 76 289 -17 q 83 343 83 168 l 83 690 l 267 690 l 267 343 q 321 180 267 238 q 485 122 375 122 q 647 180 593 122 q 700 343 700 238 l 700 690 l 883 690 "},"φ":{"ha":1286,"x_min":63,"x_max":1224,"o":"m 1224 346 q 1201 214 1224 272 q 1135 113 1179 156 q 1022 40 1090 69 q 859 -3 953 11 q 644 -17 765 -17 q 429 -2 524 -17 q 266 41 335 13 q 152 113 197 69 q 85 214 107 156 q 63 346 63 272 q 85 476 63 418 q 152 578 107 535 q 266 650 197 621 q 429 693 335 679 q 644 707 524 707 q 859 693 765 707 q 1022 650 953 679 q 1135 578 1090 621 q 1201 476 1179 535 q 1224 346 1224 418 m 247 346 q 286 220 247 269 q 413 147 325 171 q 644 122 500 122 q 874 147 788 122 q 1000 221 961 171 q 1039 346 1039 271 q 1000 472 1039 422 q 874 544 961 521 q 644 568 788 568 q 413 544 500 568 q 286 470 325 519 q 247 346 247 421 m 733 -278 l 553 -278 l 553 968 l 733 968 l 733 -278 "},"χ":{"ha":913,"x_min":28,"x_max":885,"o":"m 865 690 l 653 690 l 394 265 l 28 -278 l 242 -278 l 514 167 l 865 690 m 28 690 l 389 163 l 671 -278 l 885 -278 l 517 268 l 242 690 l 28 690 "},"ψ":{"ha":1217,"x_min":83,"x_max":1133,"o":"m 1133 690 l 1133 371 q 1100 201 1133 274 q 1001 79 1067 128 q 837 7 935 31 q 610 -17 739 -17 q 382 7 481 -17 q 217 79 283 31 q 117 201 151 128 q 83 371 83 274 l 83 690 l 267 690 l 267 371 q 304 231 267 286 q 418 149 342 176 q 610 122 494 122 q 799 149 724 122 q 913 231 875 176 q 950 371 950 286 l 950 690 l 1133 690 m 699 -278 l 518 -278 l 518 690 l 699 690 l 699 -278 "},"ω":{"ha":1322,"x_min":50,"x_max":1272,"o":"m 943 -17 q 1119 31 1046 -17 q 1233 161 1193 79 q 1272 346 1272 243 q 1228 531 1272 449 q 1099 660 1183 613 q 899 707 1015 707 l 899 568 q 1001 536 958 568 q 1066 453 1043 504 q 1089 346 1089 403 q 1067 238 1089 289 q 1006 154 1044 186 q 915 122 967 122 q 820 154 856 122 q 769 238 785 186 q 753 346 753 289 l 753 486 l 639 486 l 639 343 q 672 153 639 233 q 773 28 706 72 q 943 -17 840 -17 m 382 -17 q 551 28 485 -17 q 651 153 618 72 q 683 343 683 233 l 683 486 l 569 486 l 569 346 q 554 238 569 289 q 504 154 539 186 q 410 122 469 122 q 313 154 351 122 q 253 238 274 186 q 233 346 233 289 q 256 453 233 403 q 322 536 279 504 q 424 568 364 568 l 424 707 q 223 660 307 707 q 94 531 139 613 q 50 346 50 449 q 90 161 50 243 q 205 31 131 79 q 382 -17 279 -17 "},"ί":{"ha":444,"x_min":76,"x_max":504,"o":"m 397 0 l 397 142 q 297 157 329 132 q 264 253 264 182 l 264 690 l 83 690 l 83 235 q 115 94 83 151 q 215 11 146 36 q 397 0 285 -14 m 76 835 l 249 835 l 504 1054 l 265 1054 l 76 835 "},"ϊ":{"ha":444,"x_min":-75,"x_max":436,"o":"m 397 0 l 397 142 q 297 157 329 132 q 264 253 264 182 l 264 690 l 83 690 l 83 235 q 115 94 83 151 q 215 11 146 36 q 397 0 285 -14 m 135 994 l -75 994 l -75 836 l 135 836 l 135 994 m 436 994 l 226 994 l 226 836 l 436 836 l 436 994 "},"ΐ":{"ha":444,"x_min":-221,"x_max":624,"o":"m 397 0 l 397 142 q 297 157 329 132 q 264 253 264 182 l 264 690 l 83 690 l 83 235 q 115 94 83 151 q 215 11 146 36 q 397 0 285 -14 m -11 996 l -221 996 l -221 838 l -11 838 l -11 996 m 624 996 l 414 996 l 414 838 l 624 838 l 624 996 m 25 838 l 197 838 l 453 1057 l 214 1057 l 25 838 "},"ύ":{"ha":967,"x_min":83,"x_max":883,"o":"m 883 690 l 883 343 q 838 147 883 226 q 703 25 792 67 q 485 -17 615 -17 q 186 76 289 -17 q 83 343 83 168 l 83 690 l 267 690 l 267 343 q 321 180 267 238 q 485 122 375 122 q 647 180 593 122 q 700 343 700 238 l 700 690 l 883 690 m 388 835 l 560 835 l 815 1054 l 576 1054 l 388 835 "},"ϋ":{"ha":967,"x_min":83,"x_max":883,"o":"m 883 690 l 883 343 q 838 147 883 226 q 703 25 792 67 q 485 -17 615 -17 q 186 76 289 -17 q 83 343 83 168 l 83 690 l 267 690 l 267 343 q 321 180 267 238 q 485 122 375 122 q 647 180 593 122 q 700 343 700 238 l 700 690 l 883 690 m 438 994 l 228 994 l 228 836 l 438 836 l 438 994 m 739 994 l 529 994 l 529 836 l 739 836 l 739 994 "},"ΰ":{"ha":967,"x_min":61,"x_max":906,"o":"m 883 690 l 883 343 q 838 147 883 226 q 703 25 792 67 q 485 -17 615 -17 q 186 76 289 -17 q 83 343 83 168 l 83 690 l 267 690 l 267 343 q 321 180 267 238 q 485 122 375 122 q 647 180 593 122 q 700 343 700 238 l 700 690 l 883 690 m 271 996 l 61 996 l 61 838 l 271 838 l 271 996 m 906 996 l 696 996 l 696 838 l 906 838 l 906 996 m 307 838 l 479 838 l 735 1057 l 496 1057 l 307 838 "},"ό":{"ha":978,"x_min":50,"x_max":928,"o":"m 490 -17 q 719 25 621 -17 q 872 147 817 67 q 928 343 928 226 q 872 541 928 460 q 719 664 817 622 q 490 706 621 706 q 260 664 360 706 q 106 541 161 622 q 50 343 50 460 q 106 147 50 226 q 260 25 161 67 q 490 -17 360 -17 m 490 122 q 358 148 417 122 q 267 223 300 174 q 233 343 233 272 q 267 465 233 415 q 360 542 301 515 q 490 568 418 568 q 621 542 564 568 q 711 465 678 515 q 744 343 744 414 q 711 223 744 272 q 620 148 678 174 q 490 122 563 122 m 393 835 l 565 835 l 821 1054 l 582 1054 l 393 835 "},"ώ":{"ha":1322,"x_min":50,"x_max":1272,"o":"m 943 -17 q 1119 31 1046 -17 q 1233 161 1193 79 q 1272 346 1272 243 q 1228 531 1272 449 q 1099 660 1183 613 q 899 707 1015 707 l 899 568 q 1001 536 958 568 q 1066 453 1043 504 q 1089 346 1089 403 q 1067 238 1089 289 q 1006 154 1044 186 q 915 122 967 122 q 820 154 856 122 q 769 238 785 186 q 753 346 753 289 l 753 486 l 639 486 l 639 343 q 672 153 639 233 q 773 28 706 72 q 943 -17 840 -17 m 382 -17 q 551 28 485 -17 q 651 153 618 72 q 683 343 683 233 l 683 486 l 569 486 l 569 346 q 554 238 569 289 q 504 154 539 186 q 410 122 469 122 q 313 154 351 122 q 253 238 274 186 q 233 346 233 289 q 256 453 233 403 q 322 536 279 504 q 424 568 364 568 l 424 707 q 223 660 307 707 q 94 531 139 613 q 50 346 50 449 q 90 161 50 243 q 205 31 131 79 q 382 -17 279 -17 m 563 835 l 735 835 l 990 1054 l 751 1054 l 563 835 "},"ά":{"ha":1004,"x_min":50,"x_max":924,"o":"m 419 -15 q 576 17 511 -15 q 682 103 642 50 q 742 220 722 157 q 761 344 761 283 q 728 528 761 446 q 622 658 694 610 q 429 706 549 706 q 235 660 321 706 q 100 535 150 615 q 50 344 50 454 q 99 156 50 238 q 233 30 149 75 q 419 -15 317 -15 m 478 124 q 351 151 406 124 q 265 228 296 179 q 235 344 235 278 q 299 505 235 444 q 478 565 363 565 q 619 540 560 565 q 710 465 678 514 q 743 344 743 415 q 711 229 743 279 q 619 151 679 179 q 478 124 560 124 m 743 690 l 743 178 q 746 98 743 138 q 752 31 749 58 q 756 0 756 4 l 924 0 l 924 690 l 743 690 m 381 835 l 553 835 l 808 1054 l 569 1054 l 381 835 "},"έ":{"ha":956,"x_min":65,"x_max":919,"o":"m 483 -17 q 649 1 575 -17 q 777 53 722 18 q 868 139 832 88 q 919 258 904 190 l 754 258 q 699 174 739 204 q 604 133 660 144 q 483 122 549 122 q 371 130 422 122 q 289 158 319 138 q 258 215 258 179 q 286 264 258 247 q 358 287 314 281 q 451 293 403 293 l 622 293 l 622 399 l 451 399 q 363 401 404 399 q 294 418 321 404 q 268 464 268 432 q 324 538 268 508 q 483 567 381 567 q 599 553 543 567 q 696 510 654 539 q 753 433 738 481 l 918 433 q 846 578 903 517 q 697 672 789 639 q 483 706 606 706 q 275 678 367 706 q 131 603 183 651 q 78 492 78 556 q 97 426 78 454 q 151 381 117 399 q 228 353 185 363 q 318 343 271 344 q 226 332 271 342 q 144 303 181 322 q 87 253 108 283 q 65 181 65 224 q 122 66 65 110 q 273 3 178 22 q 483 -17 368 -17 m 385 835 l 557 835 l 813 1054 l 574 1054 l 385 835 "},"ή":{"ha":963,"x_min":83,"x_max":882,"o":"m 83 690 l 83 0 l 264 0 l 264 690 l 83 690 m 585 706 q 453 683 511 706 q 352 623 394 661 q 285 539 310 585 q 253 444 260 493 l 254 374 q 296 462 260 419 q 390 532 332 504 q 521 560 449 560 q 659 519 617 560 q 701 390 701 478 l 701 -278 l 882 -278 l 882 422 q 860 549 882 496 q 797 638 838 603 q 703 689 757 672 q 585 706 649 706 m 431 835 l 603 835 l 858 1054 l 619 1054 l 431 835 "},"⁄":{"ha":117,"x_min":-236,"x_max":367,"o":"m 292 972 l -236 17 l -164 -28 l 367 931 l 292 972 "},"½":{"ha":1338,"x_min":35,"x_max":1282,"o":"m 35 353 l 508 353 l 508 474 l 364 474 l 364 899 l 40 899 l 40 778 l 206 778 l 206 474 l 35 474 l 35 353 m 924 972 l 396 17 l 468 -28 l 999 931 l 924 972 m 1282 0 l 1282 122 l 975 118 l 1069 161 q 1174 226 1128 192 q 1249 303 1221 261 q 1276 400 1276 346 q 1247 488 1276 453 q 1165 542 1218 524 q 1043 561 1113 561 q 905 535 961 561 q 821 468 849 510 q 796 375 793 426 l 931 375 q 960 414 935 394 q 1042 433 985 433 q 1125 369 1125 433 q 1114 328 1125 350 q 1080 283 1103 307 q 1019 232 1057 258 q 928 177 982 206 q 806 118 875 149 l 806 0 l 1282 0 "},"↉":{"ha":1381,"x_min":50,"x_max":1331,"o":"m 335 910 q 178 874 242 910 q 83 773 115 838 q 50 622 50 708 q 83 472 50 536 q 178 371 115 407 q 335 335 242 335 q 492 371 429 335 q 588 472 556 407 q 621 622 621 536 q 588 773 621 708 q 492 874 556 838 q 335 910 429 910 m 335 474 q 237 514 271 474 q 203 622 203 554 q 237 730 203 690 q 335 769 271 769 q 433 730 400 769 q 467 622 467 690 q 433 513 467 553 q 335 474 400 474 m 963 972 l 435 17 l 507 -28 l 1038 931 l 963 972 m 1139 279 q 1272 316 1222 285 q 1321 410 1321 347 q 1258 516 1321 472 q 1079 560 1194 560 q 956 538 1011 560 q 871 474 901 515 q 843 378 840 433 l 963 378 q 995 417 964 401 q 1081 433 1026 433 q 1156 418 1132 433 q 1181 378 1181 403 q 1154 331 1181 347 q 1065 314 1128 314 l 985 314 l 985 238 l 1065 238 q 1158 221 1126 238 q 1189 169 1189 204 q 1165 119 1189 136 q 1085 103 1140 103 q 990 120 1022 103 q 957 168 958 138 l 838 168 q 864 72 835 114 q 950 6 893 29 q 1086 -18 1007 -18 q 1266 28 1201 -18 q 1331 151 1331 75 q 1307 222 1331 196 q 1240 262 1283 249 q 1139 279 1197 275 "},"⅓":{"ha":1342,"x_min":35,"x_max":1292,"o":"m 35 353 l 508 353 l 508 474 l 364 474 l 364 899 l 40 899 l 40 778 l 206 778 l 206 474 l 35 474 l 35 353 m 924 972 l 396 17 l 468 -28 l 999 931 l 924 972 m 1100 279 q 1233 316 1183 285 q 1282 410 1282 347 q 1219 516 1282 472 q 1040 560 1156 560 q 917 538 972 560 q 832 474 863 515 q 804 378 801 433 l 924 378 q 956 417 925 401 q 1042 433 988 433 q 1117 418 1093 433 q 1142 378 1142 403 q 1115 331 1142 347 q 1026 314 1089 314 l 946 314 l 946 238 l 1026 238 q 1119 221 1088 238 q 1150 169 1150 204 q 1126 119 1150 136 q 1046 103 1101 103 q 951 120 983 103 q 918 168 919 138 l 799 168 q 825 72 796 114 q 911 6 854 29 q 1047 -18 968 -18 q 1227 28 1163 -18 q 1292 151 1292 75 q 1268 222 1292 196 q 1201 262 1244 249 q 1100 279 1158 275 "},"⅔":{"ha":1367,"x_min":44,"x_max":1317,"o":"m 533 353 l 533 475 l 226 471 l 321 514 q 426 579 379 544 q 500 656 472 614 q 528 751 528 699 q 499 840 528 804 q 417 894 469 876 q 294 913 364 913 q 156 888 213 913 q 72 820 100 863 q 47 728 44 778 l 182 728 q 211 766 186 747 q 293 785 236 785 q 376 722 376 785 q 365 681 376 703 q 331 635 354 658 q 271 585 308 611 q 180 530 233 558 q 57 471 126 501 l 57 353 l 533 353 m 949 972 l 421 17 l 493 -28 l 1024 931 l 949 972 m 1125 279 q 1258 316 1208 285 q 1307 410 1307 347 q 1244 516 1307 472 q 1065 560 1181 560 q 942 538 997 560 q 857 474 888 515 q 829 378 826 433 l 949 378 q 981 417 950 401 q 1067 433 1013 433 q 1142 418 1118 433 q 1167 378 1167 403 q 1140 331 1167 347 q 1051 314 1114 314 l 971 314 l 971 238 l 1051 238 q 1144 221 1113 238 q 1175 169 1175 204 q 1151 119 1175 136 q 1071 103 1126 103 q 976 120 1008 103 q 943 168 944 138 l 824 168 q 850 72 821 114 q 936 6 879 29 q 1072 -18 993 -18 q 1252 28 1188 -18 q 1317 151 1317 75 q 1293 222 1317 196 q 1226 262 1269 249 q 1125 279 1183 275 "},"¼":{"ha":1275,"x_min":35,"x_max":1219,"o":"m 35 353 l 508 353 l 508 474 l 364 474 l 364 899 l 40 899 l 40 778 l 206 778 l 206 474 l 35 474 l 35 353 m 924 972 l 396 17 l 468 -28 l 999 931 l 924 972 m 990 0 l 1147 0 l 1147 100 l 1219 100 l 1219 210 l 1147 210 l 1147 546 l 1007 546 l 711 214 l 711 100 l 990 100 l 990 0 m 865 204 l 996 379 l 996 204 l 865 204 "},"¾":{"ha":1254,"x_min":47,"x_max":1199,"o":"m 347 631 q 483 668 433 636 q 533 763 533 700 q 470 869 533 825 q 292 913 407 913 q 169 890 224 913 q 83 827 114 868 q 56 731 53 786 l 175 731 q 208 770 176 754 q 293 786 239 786 q 369 771 344 786 q 393 731 393 756 q 367 683 393 700 q 278 667 340 667 l 197 667 l 197 590 l 278 590 q 370 573 339 590 q 401 522 401 556 q 377 472 401 489 q 297 454 353 454 q 203 472 235 454 q 169 521 171 490 l 50 521 q 76 424 47 467 q 163 358 106 382 q 299 335 219 335 q 478 381 414 335 q 543 504 543 428 q 519 576 543 550 q 451 614 494 601 q 347 631 407 626 m 903 972 l 375 17 l 447 -28 l 978 931 l 903 972 m 969 0 l 1126 0 l 1126 100 l 1199 100 l 1199 210 l 1126 210 l 1126 546 l 986 546 l 690 214 l 690 100 l 969 100 l 969 0 m 844 204 l 975 379 l 975 204 l 844 204 "},"⅕":{"ha":1396,"x_min":35,"x_max":1331,"o":"m 35 353 l 508 353 l 508 474 l 364 474 l 364 899 l 40 899 l 40 778 l 206 778 l 206 474 l 35 474 l 35 353 m 924 972 l 396 17 l 468 -28 l 999 931 l 924 972 m 1129 350 q 1036 336 1075 350 q 969 293 997 322 l 981 429 l 1278 429 l 1278 547 l 871 547 l 851 243 l 963 214 q 986 237 968 228 q 1032 250 1004 246 q 1093 254 1060 254 q 1161 235 1135 254 q 1188 178 1188 217 q 1160 120 1188 140 q 1089 100 1133 100 q 994 119 1029 100 q 956 168 958 138 l 829 168 q 865 69 832 111 q 954 4 897 26 q 1085 -18 1011 -18 q 1267 32 1203 -18 q 1331 171 1331 82 q 1305 267 1331 228 q 1234 328 1279 307 q 1129 350 1189 350 "},"⅖":{"ha":1421,"x_min":44,"x_max":1356,"o":"m 533 353 l 533 475 l 226 471 l 321 514 q 426 579 379 544 q 500 656 472 614 q 528 751 528 699 q 499 840 528 804 q 417 894 469 876 q 294 913 364 913 q 156 888 213 913 q 72 820 100 863 q 47 728 44 778 l 182 728 q 211 766 186 747 q 293 785 236 785 q 376 722 376 785 q 365 681 376 703 q 331 635 354 658 q 271 585 308 611 q 180 530 233 558 q 57 471 126 501 l 57 353 l 533 353 m 949 972 l 421 17 l 493 -28 l 1024 931 l 949 972 m 1154 350 q 1061 336 1100 350 q 994 293 1022 322 l 1006 429 l 1303 429 l 1303 547 l 896 547 l 876 243 l 988 214 q 1011 237 993 228 q 1057 250 1029 246 q 1118 254 1085 254 q 1186 235 1160 254 q 1213 178 1213 217 q 1185 120 1213 140 q 1114 100 1158 100 q 1019 119 1054 100 q 981 168 983 138 l 854 168 q 890 69 857 111 q 979 4 922 26 q 1110 -18 1036 -18 q 1292 32 1228 -18 q 1356 171 1356 82 q 1330 267 1356 228 q 1259 328 1304 307 q 1154 350 1214 350 "},"⅗":{"ha":1375,"x_min":47,"x_max":1310,"o":"m 347 631 q 483 668 433 636 q 533 763 533 700 q 470 869 533 825 q 292 913 407 913 q 169 890 224 913 q 83 827 114 868 q 56 731 53 786 l 175 731 q 208 770 176 754 q 293 786 239 786 q 369 771 344 786 q 393 731 393 756 q 367 683 393 700 q 278 667 340 667 l 197 667 l 197 590 l 278 590 q 370 573 339 590 q 401 522 401 556 q 377 472 401 489 q 297 454 353 454 q 203 472 235 454 q 169 521 171 490 l 50 521 q 76 424 47 467 q 163 358 106 382 q 299 335 219 335 q 478 381 414 335 q 543 504 543 428 q 519 576 543 550 q 451 614 494 601 q 347 631 407 626 m 903 972 l 375 17 l 447 -28 l 978 931 l 903 972 m 1108 350 q 1015 336 1054 350 q 949 293 976 322 l 960 429 l 1257 429 l 1257 547 l 850 547 l 831 243 l 942 214 q 965 237 947 228 q 1011 250 983 246 q 1072 254 1039 254 q 1140 235 1114 254 q 1167 178 1167 217 q 1140 120 1167 140 q 1068 100 1113 100 q 973 119 1008 100 q 935 168 938 138 l 808 168 q 844 69 811 111 q 933 4 876 26 q 1064 -18 990 -18 q 1246 32 1182 -18 q 1310 171 1310 82 q 1284 267 1310 228 q 1213 328 1258 307 q 1108 350 1168 350 "},"⅘":{"ha":1429,"x_min":65,"x_max":1364,"o":"m 344 353 l 501 353 l 501 451 l 574 451 l 574 563 l 501 563 l 501 899 l 361 899 l 65 567 l 65 451 l 344 451 l 344 353 m 219 557 l 350 732 l 350 557 l 219 557 m 957 972 l 429 17 l 501 -28 l 1032 931 l 957 972 m 1163 350 q 1069 336 1108 350 q 1003 293 1031 322 l 1014 429 l 1311 429 l 1311 547 l 904 547 l 885 243 l 996 214 q 1019 237 1001 228 q 1065 250 1038 246 q 1126 254 1093 254 q 1194 235 1168 254 q 1221 178 1221 217 q 1194 120 1221 140 q 1122 100 1167 100 q 1027 119 1063 100 q 989 168 992 138 l 863 168 q 898 69 865 111 q 988 4 931 26 q 1118 -18 1044 -18 q 1300 32 1236 -18 q 1364 171 1364 82 q 1338 267 1364 228 q 1267 328 1313 307 q 1163 350 1222 350 "},"⅙":{"ha":1300,"x_min":35,"x_max":1250,"o":"m 35 353 l 508 353 l 508 474 l 364 474 l 364 899 l 40 899 l 40 778 l 206 778 l 206 474 l 35 474 l 35 353 m 924 972 l 396 17 l 468 -28 l 999 931 l 924 972 m 1042 374 q 992 367 1014 374 q 950 350 969 361 l 1115 546 l 946 546 q 931 524 946 546 q 892 468 915 501 q 844 398 869 435 q 800 331 819 361 q 772 285 781 300 q 741 225 749 253 q 733 169 733 197 q 766 74 733 117 q 860 6 799 31 q 1007 -18 921 -18 q 1186 36 1122 -18 q 1250 182 1250 90 q 1193 321 1250 268 q 1042 374 1136 374 m 999 103 q 906 126 940 103 q 872 186 872 150 q 906 247 872 224 q 997 269 940 269 q 1086 247 1057 269 q 1115 186 1115 224 q 1087 126 1115 150 q 999 103 1058 103 "},"⅚":{"ha":1315,"x_min":81,"x_max":1265,"o":"m 381 703 q 288 689 328 703 q 221 646 249 675 l 232 782 l 529 782 l 529 899 l 122 899 l 103 594 l 214 567 q 238 589 219 581 q 283 602 256 597 q 344 607 311 607 q 413 588 386 607 q 439 531 439 569 q 412 472 439 492 q 340 453 385 453 q 245 472 281 453 q 207 521 210 490 l 81 521 q 116 422 83 464 q 206 357 149 379 q 336 335 263 335 q 518 384 454 335 q 582 522 582 433 q 556 619 582 579 q 485 681 531 660 q 381 703 440 703 m 939 972 l 411 17 l 483 -28 l 1014 931 l 939 972 m 1057 374 q 1007 367 1029 374 q 965 350 985 361 l 1131 546 l 961 546 q 946 524 961 546 q 908 468 931 501 q 860 398 885 435 q 815 331 835 361 q 788 285 796 300 q 756 225 764 253 q 749 169 749 197 q 781 74 749 117 q 875 6 814 31 q 1022 -18 936 -18 q 1201 36 1138 -18 q 1265 182 1265 90 q 1208 321 1265 268 q 1057 374 1151 374 m 1014 103 q 922 126 956 103 q 888 186 888 150 q 922 247 888 224 q 1013 269 956 269 q 1101 247 1072 269 q 1131 186 1131 224 q 1102 126 1131 150 q 1014 103 1074 103 "},"⅐":{"ha":1360,"x_min":35,"x_max":1328,"o":"m 35 353 l 508 353 l 508 474 l 364 474 l 364 899 l 40 899 l 40 778 l 206 778 l 206 474 l 35 474 l 35 353 m 924 972 l 396 17 l 468 -28 l 999 931 l 924 972 m 858 428 l 1168 428 l 939 0 l 1108 0 l 1328 426 l 1328 546 l 858 546 l 858 428 "},"⅛":{"ha":1363,"x_min":35,"x_max":1304,"o":"m 35 353 l 508 353 l 508 474 l 364 474 l 364 899 l 40 899 l 40 778 l 206 778 l 206 474 l 35 474 l 35 353 m 924 972 l 396 17 l 468 -28 l 999 931 l 924 972 m 1169 281 q 1254 322 1221 292 q 1288 403 1288 353 q 1228 517 1288 475 q 1056 558 1169 558 q 882 517 942 558 q 822 403 822 475 q 838 345 822 369 q 878 305 853 321 q 935 282 904 289 q 871 258 900 275 q 824 215 842 242 q 807 150 807 188 q 835 63 807 100 q 918 3 863 25 q 1056 -18 974 -18 q 1193 3 1138 -18 q 1276 63 1249 25 q 1304 150 1304 100 q 1286 215 1304 188 q 1238 258 1268 242 q 1169 281 1207 275 m 1056 439 q 1124 424 1100 439 q 1147 382 1147 408 q 1124 339 1147 356 q 1056 322 1100 322 q 989 339 1011 322 q 967 382 967 356 q 988 424 967 408 q 1056 439 1010 439 m 1056 100 q 976 118 1001 100 q 950 167 950 136 q 976 217 950 199 q 1056 235 1001 235 q 1135 217 1108 235 q 1163 167 1163 199 q 1135 118 1163 136 q 1056 100 1108 100 "},"⅜":{"ha":1342,"x_min":47,"x_max":1283,"o":"m 347 631 q 483 668 433 636 q 533 763 533 700 q 470 869 533 825 q 292 913 407 913 q 169 890 224 913 q 83 827 114 868 q 56 731 53 786 l 175 731 q 208 770 176 754 q 293 786 239 786 q 369 771 344 786 q 393 731 393 756 q 367 683 393 700 q 278 667 340 667 l 197 667 l 197 590 l 278 590 q 370 573 339 590 q 401 522 401 556 q 377 472 401 489 q 297 454 353 454 q 203 472 235 454 q 169 521 171 490 l 50 521 q 76 424 47 467 q 163 358 106 382 q 299 335 219 335 q 478 381 414 335 q 543 504 543 428 q 519 576 543 550 q 451 614 494 601 q 347 631 407 626 m 903 972 l 375 17 l 447 -28 l 978 931 l 903 972 m 1149 281 q 1233 322 1200 292 q 1267 403 1267 353 q 1208 517 1267 475 q 1035 558 1149 558 q 861 517 921 558 q 801 403 801 475 q 817 345 801 369 q 858 305 832 321 q 914 282 883 289 q 850 258 879 275 q 803 215 821 242 q 786 150 786 188 q 814 63 786 100 q 897 3 842 25 q 1035 -18 953 -18 q 1172 3 1117 -18 q 1256 63 1228 25 q 1283 150 1283 100 q 1265 215 1283 188 q 1217 258 1247 242 q 1149 281 1186 275 m 1035 439 q 1103 424 1079 439 q 1126 382 1126 408 q 1103 339 1126 356 q 1035 322 1079 322 q 968 339 990 322 q 946 382 946 356 q 967 424 946 408 q 1035 439 989 439 m 1035 100 q 955 118 981 100 q 929 167 929 136 q 955 217 929 199 q 1035 235 981 235 q 1115 217 1088 235 q 1142 167 1142 199 q 1115 118 1142 136 q 1035 100 1088 100 "},"⅝":{"ha":1378,"x_min":81,"x_max":1319,"o":"m 381 703 q 288 689 328 703 q 221 646 249 675 l 232 782 l 529 782 l 529 899 l 122 899 l 103 594 l 214 567 q 238 589 219 581 q 283 602 256 597 q 344 607 311 607 q 413 588 386 607 q 439 531 439 569 q 412 472 439 492 q 340 453 385 453 q 245 472 281 453 q 207 521 210 490 l 81 521 q 116 422 83 464 q 206 357 149 379 q 336 335 263 335 q 518 384 454 335 q 582 522 582 433 q 556 619 582 579 q 485 681 531 660 q 381 703 440 703 m 939 972 l 411 17 l 483 -28 l 1014 931 l 939 972 m 1185 281 q 1269 322 1236 292 q 1303 403 1303 353 q 1244 517 1303 475 q 1071 558 1185 558 q 897 517 957 558 q 838 403 838 475 q 853 345 838 369 q 894 305 868 321 q 950 282 919 289 q 886 258 915 275 q 840 215 857 242 q 822 150 822 188 q 850 63 822 100 q 933 3 878 25 q 1071 -18 989 -18 q 1208 3 1153 -18 q 1292 63 1264 25 q 1319 150 1319 100 q 1301 215 1319 188 q 1253 258 1283 242 q 1185 281 1222 275 m 1071 439 q 1139 424 1115 439 q 1163 382 1163 408 q 1139 339 1163 356 q 1071 322 1115 322 q 1004 339 1026 322 q 982 382 982 356 q 1003 424 982 408 q 1071 439 1025 439 m 1071 100 q 991 118 1017 100 q 965 167 965 136 q 991 217 965 199 q 1071 235 1017 235 q 1151 217 1124 235 q 1178 167 1178 199 q 1151 118 1178 136 q 1071 100 1124 100 "},"⅞":{"ha":1222,"x_min":32,"x_max":1164,"o":"m 32 779 l 342 779 l 113 353 l 282 353 l 501 778 l 501 899 l 32 899 l 32 779 m 783 972 l 256 17 l 328 -28 l 858 931 l 783 972 m 1029 281 q 1114 322 1081 292 q 1147 403 1147 353 q 1088 517 1147 475 q 915 558 1029 558 q 742 517 801 558 q 682 403 682 475 q 697 345 682 369 q 738 305 713 321 q 794 282 764 289 q 731 258 760 275 q 684 215 701 242 q 667 150 667 188 q 694 63 667 100 q 778 3 722 25 q 915 -18 833 -18 q 1053 3 997 -18 q 1136 63 1108 25 q 1164 150 1164 100 q 1146 215 1164 188 q 1097 258 1128 242 q 1029 281 1067 275 m 915 439 q 983 424 960 439 q 1007 382 1007 408 q 983 339 1007 356 q 915 322 960 322 q 849 339 871 322 q 826 382 826 356 q 848 424 826 408 q 915 439 869 439 m 915 100 q 835 118 861 100 q 810 167 810 136 q 835 217 810 199 q 915 235 861 235 q 995 217 968 235 q 1022 167 1022 199 q 995 118 1022 136 q 915 100 968 100 "},"⅑":{"ha":1356,"x_min":35,"x_max":1317,"o":"m 35 353 l 508 353 l 508 474 l 364 474 l 364 899 l 40 899 l 40 778 l 206 778 l 206 474 l 35 474 l 35 353 m 924 972 l 396 17 l 468 -28 l 999 931 l 924 972 m 1049 560 q 865 506 931 560 q 799 360 799 451 q 857 221 799 274 q 1017 168 915 168 q 1059 174 1040 168 q 1096 189 1078 179 l 933 0 l 1103 0 q 1118 22 1103 0 q 1156 76 1133 43 q 1204 146 1179 110 q 1249 212 1229 182 q 1278 256 1269 242 q 1309 317 1301 289 q 1317 371 1317 344 q 1285 468 1317 425 q 1192 535 1253 511 q 1049 560 1132 560 m 1053 272 q 968 295 997 272 q 939 356 939 318 q 967 415 939 392 q 1053 438 996 438 q 1143 415 1110 438 q 1176 356 1176 392 q 1143 295 1176 318 q 1053 272 1110 272 "},"⅒":{"ha":2071,"x_min":35,"x_max":1994,"o":"m 35 353 l 508 353 l 508 474 l 364 474 l 364 899 l 40 899 l 40 778 l 206 778 l 206 474 l 35 474 l 35 353 m 926 972 l 399 17 l 471 -28 l 1001 931 l 926 972 m 913 0 l 1386 0 l 1386 121 l 1242 121 l 1242 546 l 918 546 l 918 425 l 1083 425 l 1083 121 l 913 121 l 913 0 m 1708 558 q 1552 522 1615 558 q 1456 421 1489 486 q 1424 269 1424 356 q 1456 119 1424 183 q 1552 18 1489 54 q 1708 -18 1615 -18 q 1866 18 1803 -18 q 1962 119 1929 54 q 1994 269 1994 183 q 1962 421 1994 356 q 1866 522 1929 486 q 1708 558 1803 558 m 1708 121 q 1610 161 1644 121 q 1576 269 1576 201 q 1610 378 1576 339 q 1708 417 1644 417 q 1807 378 1774 417 q 1840 269 1840 339 q 1807 161 1840 201 q 1708 121 1774 121 "},"¹":{"ha":343,"x_min":56,"x_max":260,"o":"m 56 883 l 165 883 l 165 556 l 260 556 l 260 972 l 56 972 l 56 883 "},"²":{"ha":463,"x_min":63,"x_max":393,"o":"m 199 640 q 344 728 294 685 q 393 843 393 772 q 352 944 393 901 q 233 986 311 986 q 140 962 181 986 q 81 897 100 938 q 74 808 63 857 l 165 808 q 174 865 156 842 q 226 889 193 889 q 275 872 258 889 q 292 829 292 856 q 267 776 292 799 q 196 723 243 753 q 82 643 149 693 l 82 556 l 389 556 l 389 649 l 199 640 "},"³":{"ha":456,"x_min":65,"x_max":386,"o":"m 289 763 q 359 800 338 774 q 381 861 381 826 q 342 951 381 915 q 231 986 304 986 q 107 942 147 986 q 76 840 67 899 l 161 840 q 174 875 160 858 q 228 892 189 892 q 285 846 285 892 q 271 810 285 824 q 224 796 257 796 l 147 796 l 147 728 l 224 728 q 290 681 290 728 q 276 643 290 658 q 231 628 263 628 q 173 648 186 628 q 161 686 160 668 l 69 686 q 103 578 65 626 q 231 531 142 531 q 349 570 313 531 q 386 657 386 610 q 289 763 386 742 "},"⁴":{"ha":436,"x_min":56,"x_max":408,"o":"m 353 744 l 353 976 l 260 976 l 56 744 l 56 661 l 265 661 l 265 556 l 353 556 l 353 661 l 408 661 l 408 744 l 353 744 m 265 744 l 157 744 l 265 869 l 265 744 "},"\r":{"ha":833,"x_min":0,"x_max":0,"o":""}," ":{"ha":335,"x_min":0,"x_max":0,"o":""}," ":{"ha":335,"x_min":0,"x_max":0,"o":""},"·":{"ha":376,"x_min":83,"x_max":293,"o":"m 293 690 l 83 690 l 83 532 l 293 532 l 293 690 "},";":{"ha":379,"x_min":83,"x_max":296,"o":"m 293 671 l 83 671 l 83 513 l 293 513 l 293 671 m 122 -189 q 249 -95 203 -156 q 296 64 296 -35 l 296 178 l 83 178 l 83 18 l 160 3 q 138 -74 158 -36 q 97 -142 118 -111 l 122 -189 "},".":{"ha":376,"x_min":83,"x_max":293,"o":"m 293 158 l 83 158 l 83 0 l 293 0 l 293 158 "},",":{"ha":321,"x_min":54,"x_max":267,"o":"m 93 -207 q 220 -113 174 -174 q 267 46 267 -53 l 267 160 l 54 160 l 54 0 l 131 -15 q 109 -92 129 -54 q 68 -160 89 -129 l 93 -207 "},":":{"ha":415,"x_min":93,"x_max":303,"o":"m 303 158 l 93 158 l 93 0 l 303 0 l 303 158 m 303 688 l 93 688 l 93 529 l 303 529 l 303 688 "},";":{"ha":379,"x_min":83,"x_max":296,"o":"m 293 671 l 83 671 l 83 513 l 293 513 l 293 671 m 122 -189 q 249 -95 203 -156 q 296 64 296 -35 l 296 178 l 83 178 l 83 18 l 160 3 q 138 -74 158 -36 q 97 -142 118 -111 l 122 -189 "},"…":{"ha":960,"x_min":83,"x_max":876,"o":"m 876 158 l 667 158 l 667 0 l 876 0 l 876 158 m 293 158 l 83 158 l 83 0 l 293 0 l 293 158 m 585 158 l 375 158 l 375 0 l 585 0 l 585 158 "},"!":{"ha":424,"x_min":107,"x_max":317,"o":"m 119 921 l 119 281 l 303 281 l 303 921 l 119 921 m 317 158 l 107 158 l 107 0 l 317 0 l 317 158 "},"¡":{"ha":424,"x_min":107,"x_max":317,"o":"m 119 -126 l 303 -126 l 303 514 l 119 514 l 119 -126 m 317 636 l 317 794 l 107 794 l 107 636 l 317 636 "},"?":{"ha":869,"x_min":71,"x_max":801,"o":"m 315 279 l 492 279 l 492 383 q 648 423 578 389 q 760 520 718 457 q 801 675 801 583 q 779 798 801 742 q 712 896 757 854 q 598 961 667 938 q 436 985 529 985 q 299 967 360 985 q 196 919 239 950 q 125 850 153 889 q 84 769 97 811 q 72 688 71 728 l 251 688 q 273 758 253 726 q 333 808 293 789 q 432 826 372 826 q 565 786 515 826 q 615 669 615 746 q 563 551 615 593 q 397 510 510 510 l 315 510 l 315 279 m 303 0 l 513 0 l 513 158 l 303 158 l 303 0 "},"¿":{"ha":868,"x_min":72,"x_max":801,"o":"m 361 656 l 571 656 l 571 814 l 361 814 l 361 656 m 622 126 q 601 56 621 88 q 541 6 581 25 q 442 -12 501 -12 q 308 28 357 -12 q 258 144 258 68 q 310 263 258 221 q 476 304 363 304 l 558 304 l 558 535 l 382 535 l 382 431 q 226 391 296 425 q 114 294 156 357 q 72 139 72 231 q 94 16 72 72 q 162 -82 117 -40 q 276 -147 207 -124 q 438 -171 344 -171 q 575 -153 515 -171 q 678 -106 635 -136 q 749 -36 721 -75 q 789 44 776 3 q 800 126 801 86 l 622 126 "},"·":{"ha":376,"x_min":83,"x_max":293,"o":"m 293 458 l 83 458 l 83 300 l 293 300 l 293 458 "},"•":{"ha":633,"x_min":135,"x_max":499,"o":"m 135 546 l 135 182 l 499 182 l 499 546 l 135 546 "},"*":{"ha":699,"x_min":57,"x_max":643,"o":"m 600 883 l 410 817 l 417 1017 l 278 1017 l 283 818 l 100 883 l 57 750 l 239 696 l 115 536 l 228 454 l 347 629 l 468 454 l 581 536 l 457 696 l 643 751 l 600 883 "},"#":{"ha":1263,"x_min":93,"x_max":1171,"o":"m 765 879 l 765 19 l 935 19 l 935 879 l 765 879 m 335 879 l 335 19 l 504 19 l 504 879 l 335 879 m 1171 349 l 93 349 l 93 219 l 1171 219 l 1171 349 m 1171 678 l 93 678 l 93 550 l 1171 550 l 1171 678 "},"/":{"ha":668,"x_min":50,"x_max":618,"o":"m 472 1046 l 50 -114 l 194 -167 l 618 993 l 472 1046 "},"\\":{"ha":668,"x_min":50,"x_max":618,"o":"m 194 1046 l 50 993 l 472 -167 l 618 -114 l 194 1046 "},"-":{"ha":686,"x_min":111,"x_max":575,"o":"m 111 444 l 111 308 l 575 308 l 575 444 l 111 444 "},"­":{"ha":833,"x_min":111,"x_max":575,"o":"m 111 444 l 111 308 l 575 308 l 575 444 l 111 444 "},"–":{"ha":839,"x_min":111,"x_max":728,"o":"m 111 446 l 111 307 l 728 307 l 728 446 l 111 446 "},"—":{"ha":1172,"x_min":83,"x_max":1089,"o":"m 83 447 l 83 308 l 1089 308 l 1089 447 l 83 447 "},"_":{"ha":1179,"x_min":99,"x_max":1082,"o":"m 99 -139 l 99 -278 l 1082 -278 l 1082 -139 l 99 -139 "},"(":{"ha":467,"x_min":74,"x_max":393,"o":"m 393 -125 q 375 -104 393 -125 q 331 -41 357 -83 q 278 64 304 1 q 233 210 251 126 q 215 397 215 293 q 242 620 215 524 q 304 783 269 717 q 366 882 339 849 q 393 915 393 915 l 297 992 q 274 967 297 992 q 219 892 251 942 q 153 772 186 843 q 97 606 119 700 q 74 397 74 513 q 97 189 74 283 q 153 22 119 94 q 219 -101 186 -51 q 274 -177 251 -151 q 297 -203 297 -203 l 393 -125 "},")":{"ha":467,"x_min":74,"x_max":393,"o":"m 74 -125 l 169 -203 q 192 -177 169 -203 q 249 -101 215 -151 q 315 22 282 -51 q 370 189 347 94 q 393 397 393 283 q 370 606 393 513 q 315 772 347 700 q 249 892 282 843 q 192 967 215 942 q 169 992 169 992 l 74 915 q 101 882 74 915 q 163 783 128 849 q 224 620 197 717 q 251 397 251 524 q 233 210 251 293 q 189 64 215 126 q 136 -41 163 1 q 92 -104 110 -83 q 74 -125 74 -125 "},"{":{"ha":671,"x_min":68,"x_max":547,"o":"m 169 1111 q 172 977 158 1047 q 210 840 186 907 q 254 718 235 774 q 274 626 274 663 q 224 528 274 565 q 68 492 175 492 l 68 372 q 224 335 175 372 q 274 238 274 299 q 254 146 274 201 q 210 24 235 90 q 172 -112 186 -43 q 169 -247 158 -182 l 547 -247 l 547 -106 l 331 -106 q 344 -28 331 -69 q 374 59 357 14 q 405 149 392 104 q 418 238 418 194 q 384 342 418 300 q 289 410 350 385 q 147 443 228 435 l 147 421 q 289 454 228 429 q 384 522 350 479 q 418 626 418 565 q 405 715 418 669 q 374 805 392 760 q 344 892 357 850 q 331 969 331 933 l 547 969 l 547 1111 l 169 1111 "},"}":{"ha":671,"x_min":124,"x_max":603,"o":"m 397 626 q 417 718 397 663 q 461 840 438 774 q 499 977 485 907 q 501 1111 513 1047 l 124 1111 l 124 969 l 340 969 q 327 892 340 933 q 297 805 314 850 q 266 715 279 760 q 253 626 253 669 q 287 522 253 565 q 382 454 321 479 q 524 421 443 429 l 524 443 q 382 410 443 435 q 287 342 321 385 q 253 238 253 300 q 266 149 253 194 q 297 59 279 104 q 327 -28 314 14 q 340 -106 340 -69 l 124 -106 l 124 -247 l 501 -247 q 499 -112 513 -182 q 461 24 485 -43 q 417 146 438 90 q 397 238 397 201 q 447 335 397 299 q 603 372 496 372 l 603 492 q 447 528 496 492 q 397 626 397 565 "},"[":{"ha":567,"x_min":124,"x_max":485,"o":"m 485 -114 l 265 -114 l 265 969 l 485 969 l 485 1111 l 124 1111 l 124 -256 l 485 -256 l 485 -114 "},"]":{"ha":569,"x_min":83,"x_max":444,"o":"m 83 -112 l 83 -254 l 444 -254 l 444 1111 l 83 1111 l 83 969 l 304 969 l 304 -112 l 83 -112 "},"‚":{"ha":321,"x_min":54,"x_max":267,"o":"m 93 -207 q 220 -113 174 -174 q 267 46 267 -53 l 267 160 l 54 160 l 54 0 l 131 -15 q 109 -92 129 -54 q 68 -160 89 -129 l 93 -207 "},"„":{"ha":596,"x_min":54,"x_max":542,"o":"m 93 -208 q 220 -113 174 -174 q 267 44 267 -53 l 267 158 l 54 158 l 54 0 l 131 -15 q 109 -92 129 -54 q 68 -161 89 -131 l 93 -208 m 368 -208 q 495 -113 449 -174 q 542 44 542 -53 l 542 158 l 329 158 l 329 0 l 406 -15 q 384 -92 404 -54 q 343 -161 364 -131 l 368 -208 "},"“":{"ha":596,"x_min":54,"x_max":542,"o":"m 226 975 q 101 881 147 942 q 54 722 54 821 l 54 608 l 267 608 l 267 768 l 190 782 q 212 860 193 822 q 253 928 231 897 l 226 975 m 501 975 q 376 881 422 942 q 329 722 329 821 l 329 608 l 542 608 l 542 768 l 465 782 q 487 860 468 822 q 528 928 506 897 l 501 975 "},"”":{"ha":596,"x_min":54,"x_max":542,"o":"m 93 540 q 220 635 174 575 q 267 793 267 696 l 267 907 l 54 907 l 54 749 l 131 733 q 109 656 129 694 q 68 588 89 618 l 93 540 m 368 540 q 495 635 449 575 q 542 793 542 696 l 542 907 l 329 907 l 329 749 l 406 733 q 384 656 404 694 q 343 588 364 618 l 368 540 "},"‘":{"ha":321,"x_min":54,"x_max":267,"o":"m 226 975 q 101 881 147 942 q 54 722 54 821 l 54 608 l 267 608 l 267 768 l 190 782 q 212 860 193 822 q 253 928 231 897 l 226 975 "},"’":{"ha":321,"x_min":54,"x_max":267,"o":"m 93 540 q 220 635 174 575 q 267 793 267 696 l 267 907 l 54 907 l 54 749 l 131 733 q 109 656 129 694 q 68 588 89 618 l 93 540 "},"«":{"ha":811,"x_min":67,"x_max":690,"o":"m 401 750 l 67 388 l 401 25 l 501 119 l 249 388 l 501 654 l 401 750 m 593 601 l 400 390 l 592 179 l 690 272 l 576 390 l 690 507 l 593 601 "},"»":{"ha":819,"x_min":111,"x_max":736,"o":"m 301 654 l 553 388 l 300 119 l 401 25 l 736 388 l 401 750 l 301 654 m 111 507 l 225 390 l 111 272 l 210 179 l 403 390 l 210 601 l 111 507 "},"‹":{"ha":588,"x_min":83,"x_max":518,"o":"m 83 388 l 181 299 l 518 654 l 418 750 l 83 388 m 83 388 l 418 25 l 518 119 l 181 476 l 83 388 "},"›":{"ha":588,"x_min":69,"x_max":504,"o":"m 504 388 l 169 750 l 69 654 l 407 299 l 504 388 m 504 388 l 407 476 l 69 119 l 169 25 l 504 388 "},"\"":{"ha":575,"x_min":54,"x_max":521,"o":"m 207 615 l 265 788 l 265 907 l 54 907 l 54 788 l 111 615 l 207 615 m 463 615 l 521 788 l 521 907 l 310 907 l 310 788 l 367 615 l 463 615 "},"'":{"ha":319,"x_min":54,"x_max":265,"o":"m 207 615 l 265 788 l 265 907 l 54 907 l 54 788 l 111 615 l 207 615 "},"ƒ":{"ha":1257,"x_min":51,"x_max":1206,"o":"m 890 917 q 710 877 790 917 q 584 750 631 838 q 538 515 538 663 l 538 372 q 517 230 538 281 q 461 160 497 179 q 379 140 425 140 q 269 173 313 140 q 224 261 225 206 l 51 261 q 92 122 51 185 q 208 23 133 60 q 379 -14 282 -14 q 554 26 478 -14 q 674 151 631 65 q 718 372 718 236 l 718 515 q 731 638 718 590 q 768 713 744 686 q 823 751 792 740 q 890 763 854 763 q 996 728 960 763 q 1033 638 1032 693 l 1206 638 q 1169 782 1206 719 q 1063 881 1133 844 q 890 917 993 917 m 349 506 l 349 410 l 897 410 l 897 506 l 349 506 "},"":{"ha":1194,"x_min":42,"x_max":1153,"o":"m 597 -14 q 817 19 717 -14 q 994 113 918 51 q 1111 260 1069 174 q 1153 451 1153 346 q 1111 644 1153 558 q 994 790 1069 729 q 817 884 918 851 q 597 917 717 917 q 378 884 479 917 q 201 790 276 851 q 83 644 125 729 q 42 451 42 558 q 83 260 42 346 q 201 113 125 174 q 378 19 276 51 q 597 -14 479 -14 m 450 74 q 326 119 383 89 q 228 192 269 149 q 325 232 267 217 q 378 143 347 185 q 450 74 408 101 m 197 228 q 149 317 167 268 q 128 424 131 365 l 281 424 q 289 354 282 389 q 306 283 296 319 q 197 228 239 263 m 567 65 q 454 126 501 76 q 379 243 407 175 q 465 253 418 250 q 567 257 511 256 l 567 65 m 128 479 q 150 590 131 539 q 201 681 169 640 q 307 628 243 649 q 279 479 283 556 l 128 479 m 361 299 q 340 424 344 358 l 567 424 l 567 318 q 456 312 507 317 q 361 299 404 307 m 629 65 l 629 257 q 731 252 685 256 q 815 242 776 249 q 741 125 788 174 q 629 65 694 76 m 340 479 q 361 614 344 550 q 456 601 404 606 q 567 594 507 596 l 567 479 l 340 479 m 744 74 q 816 142 785 101 q 868 231 847 183 q 922 213 899 224 q 965 190 946 203 q 744 74 878 103 m 326 679 q 233 717 271 693 q 444 828 317 799 q 376 763 406 801 q 326 679 347 725 m 833 297 q 629 318 747 317 l 629 424 l 854 424 q 847 360 853 393 q 833 297 842 328 m 567 656 q 465 660 511 657 q 381 669 418 664 q 455 783 408 736 q 567 839 501 829 l 567 656 m 629 479 l 629 594 q 832 615 749 597 q 847 549 842 583 q 854 479 853 515 l 629 479 m 996 225 q 947 258 974 243 q 888 282 921 272 q 906 353 899 318 q 914 424 913 389 l 1067 424 q 1045 315 1064 365 q 996 225 1026 265 m 629 656 l 629 839 q 740 783 694 829 q 814 671 786 736 q 730 660 775 664 q 629 656 685 657 m 915 479 q 888 631 911 556 q 944 654 918 642 q 990 683 969 667 q 1044 592 1024 643 q 1067 479 1064 540 l 915 479 m 867 682 q 818 764 847 726 q 750 828 789 801 q 958 719 875 799 q 917 699 940 708 q 867 682 894 689 "},"@":{"ha":1490,"x_min":72,"x_max":1422,"o":"m 743 -76 q 891 -68 821 -76 q 1019 -44 961 -60 q 1118 -10 1076 -29 l 1068 92 q 983 63 1033 75 q 873 43 933 50 q 743 36 813 36 q 450 84 572 36 q 263 224 328 132 q 197 447 197 317 q 236 622 197 549 q 349 744 275 696 q 525 817 422 793 q 756 840 628 840 q 983 817 882 840 q 1153 745 1083 793 q 1260 624 1224 697 q 1297 451 1297 551 q 1291 382 1297 413 q 1267 335 1285 351 q 1217 318 1250 318 q 1165 335 1183 318 q 1141 380 1147 351 q 1135 446 1135 408 l 1135 688 l 954 688 l 954 388 q 967 321 954 354 q 1008 260 981 288 q 1081 215 1036 232 q 1188 199 1125 199 q 1317 230 1265 199 q 1396 319 1369 261 q 1422 457 1422 376 q 1344 727 1422 617 q 1116 895 1265 838 q 753 953 967 953 q 388 895 540 953 q 153 725 235 838 q 72 447 72 613 q 153 166 72 283 q 384 -14 233 49 q 743 -76 535 -76 m 653 154 q 792 183 732 154 q 892 256 853 211 q 952 349 932 300 q 972 438 972 397 q 938 583 972 515 q 835 691 904 650 q 663 732 767 732 q 486 694 561 732 q 371 590 411 656 q 331 438 331 524 q 371 292 331 356 q 484 191 411 228 q 653 154 557 154 m 711 292 q 565 332 614 292 q 515 436 515 372 q 561 550 515 508 q 711 592 607 592 q 805 581 761 592 q 882 551 849 571 q 935 502 915 531 q 954 436 954 474 q 935 381 954 407 q 883 335 917 354 q 806 303 850 315 q 711 292 761 292 "},"&":{"ha":1082,"x_min":50,"x_max":1050,"o":"m 365 -15 q 510 8 450 -15 q 610 69 571 31 q 673 156 650 108 q 707 250 696 203 l 694 288 q 695 169 694 218 q 699 80 696 119 q 707 0 701 40 l 875 0 l 875 407 l 1050 407 l 1050 511 l 510 511 q 378 526 431 511 q 301 571 326 542 q 276 640 276 600 q 329 730 276 697 q 485 763 382 763 q 637 733 581 763 q 694 646 693 703 l 864 646 q 836 765 864 714 q 758 849 808 815 q 637 900 707 883 q 482 917 567 917 q 271 886 360 917 q 135 799 182 856 q 88 668 88 743 q 116 572 88 610 q 195 510 144 533 q 315 476 246 486 q 463 463 383 465 l 457 471 q 300 453 374 468 q 170 410 226 439 q 82 334 114 381 q 50 221 50 288 q 75 123 50 167 q 143 49 100 79 q 244 1 186 18 q 365 -15 301 -15 m 442 124 q 293 162 344 124 q 242 260 242 200 q 315 372 242 336 q 510 407 389 407 l 694 407 l 694 331 q 666 231 694 279 q 582 153 638 183 q 442 124 526 124 "},"¶":{"ha":1021,"x_min":42,"x_max":914,"o":"m 914 899 l 382 899 q 205 866 282 899 q 85 769 128 833 q 42 613 42 706 q 86 456 42 519 q 208 360 131 392 q 386 328 286 328 l 454 328 l 454 0 l 632 0 l 632 328 l 736 328 l 736 0 l 914 0 l 914 899 m 386 478 q 273 506 319 478 q 226 607 226 535 q 274 710 226 681 q 386 739 321 739 l 736 739 l 736 478 l 386 478 "},"§":{"ha":785,"x_min":47,"x_max":729,"o":"m 450 326 q 664 355 599 317 q 729 458 729 393 q 688 563 729 524 q 575 625 647 601 q 411 665 503 649 q 314 689 354 678 q 252 718 274 700 q 231 767 231 736 q 266 825 231 804 q 360 846 301 846 q 475 824 433 846 q 526 751 517 801 l 688 751 q 600 922 686 858 q 365 986 514 986 q 141 930 224 986 q 58 785 58 874 q 82 710 58 742 q 158 652 106 678 q 294 601 210 626 l 369 610 q 185 606 256 621 q 81 556 114 590 q 47 474 47 521 q 90 373 47 413 q 208 308 132 333 q 381 267 283 283 q 475 245 438 256 q 532 218 513 235 q 551 169 551 201 q 519 109 551 131 q 417 89 488 88 q 284 121 332 90 q 224 197 236 151 l 64 197 q 79 123 60 165 q 144 41 99 81 q 260 -24 189 1 q 428 -50 331 -50 q 643 3 564 -50 q 722 146 722 56 q 669 262 722 218 q 510 335 617 306 l 450 326 m 232 479 q 265 541 232 517 q 357 571 297 565 q 461 547 419 558 q 524 515 503 535 q 544 461 544 496 q 516 397 544 422 q 432 364 488 371 q 326 392 371 378 q 256 427 281 407 q 232 479 232 447 "},"©":{"ha":1408,"x_min":74,"x_max":1335,"o":"m 706 10 q 1040 65 899 10 q 1258 222 1181 121 q 1335 461 1335 324 q 1258 699 1335 600 q 1041 851 1182 797 q 706 904 900 904 q 369 851 511 904 q 150 699 226 797 q 74 461 74 600 q 151 222 74 324 q 370 65 228 121 q 706 10 513 10 m 706 121 q 501 144 594 121 q 340 210 408 167 q 235 317 272 253 q 199 461 199 381 q 235 604 199 543 q 340 708 272 665 q 500 771 407 750 q 706 792 593 792 q 909 771 817 792 q 1069 708 1001 750 q 1173 604 1136 665 q 1210 461 1210 543 q 1173 317 1210 381 q 1068 210 1136 253 q 908 144 1000 167 q 706 121 817 121 m 1011 431 l 878 431 q 828 381 868 399 q 715 363 789 363 q 583 387 628 363 q 539 456 539 411 q 584 526 539 500 q 715 551 629 551 q 828 533 789 551 q 876 483 867 515 l 1010 483 q 977 576 1010 538 q 880 636 944 615 q 715 657 815 657 q 542 633 614 657 q 433 564 471 608 q 396 456 396 519 q 480 309 396 363 q 715 256 564 256 q 881 277 815 256 q 978 338 946 299 q 1011 431 1011 376 "},"®":{"ha":1351,"x_min":74,"x_max":1278,"o":"m 676 107 q 991 161 856 107 q 1202 311 1126 215 q 1278 531 1278 407 q 1202 749 1278 656 q 992 894 1126 842 q 676 946 857 946 q 360 894 496 946 q 149 749 224 842 q 74 531 74 656 q 149 311 74 407 q 361 161 225 215 q 676 107 497 107 m 676 219 q 485 241 572 219 q 333 303 397 263 q 234 401 269 343 q 199 531 199 458 q 233 659 199 603 q 332 754 268 715 q 483 813 396 793 q 676 833 571 833 q 868 813 781 833 q 1019 754 956 793 q 1118 659 1083 715 q 1153 531 1153 603 q 1117 401 1153 458 q 1018 303 1082 343 q 867 241 954 263 q 676 219 781 219 m 458 338 l 579 338 l 579 451 l 719 451 q 781 447 761 451 q 808 433 801 443 q 814 407 814 424 l 814 338 l 935 338 l 935 414 q 927 452 935 436 q 899 478 919 468 q 836 494 878 489 q 922 528 899 499 q 944 604 944 557 q 901 699 944 667 q 764 732 857 732 l 458 732 l 458 338 m 579 546 l 579 628 l 769 628 q 810 619 797 628 q 824 590 824 610 q 810 556 824 567 q 769 546 796 546 l 579 546 "},"™":{"ha":1549,"x_min":107,"x_max":1442,"o":"m 449 551 l 449 767 l 633 767 l 633 899 l 107 899 l 107 767 l 286 767 l 286 551 l 449 551 m 1086 653 l 896 899 l 733 899 l 733 551 l 894 551 l 894 713 l 1006 549 l 1169 549 l 1279 714 l 1281 551 l 1442 551 l 1442 899 l 1278 899 l 1086 653 m 1442 324 l 1442 454 l 122 454 l 122 324 l 1442 324 "},"°":{"ha":622,"x_min":65,"x_max":558,"o":"m 311 521 q 440 545 385 521 q 527 614 496 569 q 558 718 558 658 q 527 822 558 778 q 440 890 496 865 q 311 914 385 914 q 183 890 239 914 q 97 822 128 865 q 65 718 65 778 q 97 614 65 658 q 183 545 128 569 q 311 521 239 521 m 311 618 q 213 646 247 618 q 179 718 179 674 q 213 788 179 761 q 311 815 247 815 q 410 788 376 815 q 444 718 444 761 q 410 646 444 674 q 311 618 376 618 "},"|":{"ha":449,"x_min":139,"x_max":310,"o":"m 139 1111 l 139 -222 l 310 -222 l 310 1111 l 139 1111 "},"¦":{"ha":449,"x_min":139,"x_max":310,"o":"m 310 283 l 139 283 l 139 -222 l 310 -222 l 310 283 m 310 1111 l 139 1111 l 139 606 l 310 606 l 310 1111 "},"†":{"ha":1060,"x_min":133,"x_max":926,"o":"m 133 694 l 133 540 l 926 540 l 926 694 l 133 694 m 439 972 l 439 -278 l 619 -278 l 619 972 l 439 972 "},"‡":{"ha":1017,"x_min":111,"x_max":904,"o":"m 418 -278 l 599 -278 l 599 972 l 418 972 l 418 -278 m 111 7 l 904 7 l 904 161 l 111 161 l 111 7 m 111 540 l 904 540 l 904 694 l 111 694 l 111 540 "},"¢":{"ha":953,"x_min":50,"x_max":903,"o":"m 738 272 q 653 161 714 200 q 496 122 593 122 l 490 122 l 567 560 q 674 510 629 546 q 736 419 718 475 l 901 419 q 811 608 892 535 q 592 699 731 681 l 614 828 l 518 844 l 493 706 q 265 664 365 706 q 108 542 165 622 q 50 343 50 461 q 138 108 50 196 q 368 -6 225 21 l 349 -118 l 444 -136 l 465 -17 q 480 -17 472 -17 q 494 -17 488 -17 q 706 17 617 -17 q 845 117 794 51 q 903 272 896 182 l 738 272 m 233 343 q 265 462 233 414 q 349 535 296 510 q 469 565 403 561 l 393 136 q 278 208 322 156 q 233 343 233 260 "},"¤":{"ha":936,"x_min":104,"x_max":832,"o":"m 469 143 q 660 179 578 143 q 787 279 742 215 q 832 428 832 343 q 787 576 832 513 q 660 676 742 640 q 469 713 578 713 q 278 676 361 713 q 150 576 196 640 q 104 428 104 513 q 150 279 104 343 q 278 179 196 215 q 469 143 361 143 m 469 274 q 331 319 382 274 q 279 428 279 364 q 331 538 279 493 q 469 583 383 583 q 606 538 556 583 q 657 428 657 492 q 606 319 657 364 q 469 274 556 274 m 208 57 l 340 204 l 264 264 l 136 122 l 208 57 m 731 57 l 803 122 l 678 261 l 597 204 l 731 57 m 271 585 l 342 651 l 208 800 l 136 735 l 271 585 m 667 583 l 803 735 l 731 800 l 596 650 l 667 583 "},"$":{"ha":776,"x_min":44,"x_max":722,"o":"m 438 972 l 404 779 l 503 763 l 536 956 l 438 972 m 251 -82 l 350 -99 l 383 94 l 286 111 l 251 -82 m 49 321 q 59 256 44 296 q 113 174 74 215 q 224 103 153 132 q 404 75 294 75 q 574 99 503 75 q 683 169 644 122 q 722 282 722 215 q 699 371 722 336 q 638 427 676 406 q 549 463 599 449 q 444 488 499 476 q 338 509 381 499 q 274 535 296 519 q 253 579 253 551 q 288 637 253 615 q 390 658 324 658 q 493 635 460 658 q 538 561 526 611 l 697 561 q 663 683 697 631 q 562 767 629 736 q 392 797 494 797 q 263 783 322 797 q 160 742 204 769 q 92 676 117 715 q 68 588 68 638 q 92 501 68 536 q 158 443 117 465 q 254 406 200 421 q 367 382 308 392 q 463 364 425 374 q 518 338 500 354 q 536 293 536 322 q 525 251 536 269 q 485 224 514 233 q 403 214 456 214 q 278 244 325 214 q 215 321 231 274 l 49 321 "},"€":{"ha":1339,"x_min":28,"x_max":1265,"o":"m 710 324 l 785 401 l 111 401 l 28 324 l 710 324 m 856 475 l 931 557 l 111 557 l 28 475 l 856 475 m 403 339 l 203 339 q 268 185 219 251 q 391 73 317 118 q 560 5 465 28 q 763 -18 654 -18 q 1018 22 910 -18 q 1190 139 1126 63 q 1265 324 1254 215 l 1082 324 q 1022 225 1064 267 q 915 162 979 183 q 763 140 850 140 q 602 163 675 140 q 478 229 529 185 q 403 339 426 274 m 1011 657 l 1139 790 q 972 884 1075 851 q 732 917 868 917 q 535 892 626 917 q 372 817 443 867 q 255 693 300 767 q 197 521 210 619 l 392 521 q 460 649 410 597 q 588 727 511 700 q 763 754 665 754 q 906 730 842 754 q 1011 657 969 706 "},"£":{"ha":914,"x_min":47,"x_max":858,"o":"m 47 372 l 629 372 l 629 458 l 47 458 l 47 372 m 401 315 q 379 396 401 358 q 328 470 357 433 q 278 547 300 507 q 256 636 256 588 q 283 710 256 682 q 358 749 311 738 q 460 761 404 761 q 562 746 515 761 q 638 703 608 731 q 668 638 667 675 l 858 638 q 828 753 858 701 q 744 841 799 804 q 616 897 690 878 q 453 917 542 917 q 258 888 343 917 q 124 803 172 858 q 75 668 75 749 q 90 592 75 626 q 129 530 106 558 q 178 478 153 501 q 225 436 204 456 q 231 429 231 433 q 230 419 232 425 q 227 407 228 413 q 231 397 226 401 q 253 351 244 375 q 261 304 261 328 q 245 246 261 271 q 206 203 229 221 q 158 175 182 186 q 117 159 133 164 q 101 154 101 154 l 101 0 l 829 0 l 829 154 l 250 154 q 288 168 263 158 q 338 197 313 178 q 383 244 364 215 q 401 315 401 274 "},"¥":{"ha":1028,"x_min":26,"x_max":1001,"o":"m 421 283 l 607 283 l 1001 899 l 788 899 l 461 361 l 572 361 l 240 899 l 26 899 l 421 283 m 421 0 l 607 0 l 607 115 l 421 115 l 421 0 m 264 169 l 264 75 l 764 75 l 764 169 l 264 169 m 264 322 l 264 228 l 764 228 l 764 322 l 264 322 "},"∕":{"ha":603,"x_min":0,"x_max":603,"o":"m 528 972 l 0 17 l 72 -28 l 603 931 l 528 972 "},"+":{"ha":778,"x_min":69,"x_max":708,"o":"m 69 442 l 69 310 l 708 310 l 708 442 l 69 442 m 464 638 l 314 638 l 314 113 l 464 113 l 464 638 "},"−":{"ha":681,"x_min":69,"x_max":611,"o":"m 69 443 l 69 307 l 611 307 l 611 443 l 69 443 "},"×":{"ha":694,"x_min":82,"x_max":613,"o":"m 175 101 l 82 194 l 518 631 l 613 538 l 175 101 m 518 101 l 82 538 l 175 631 l 613 194 l 518 101 "},"÷":{"ha":736,"x_min":69,"x_max":667,"o":"m 69 439 l 69 303 l 667 303 l 667 439 l 69 439 m 454 226 l 244 226 l 244 85 l 454 85 l 454 226 m 454 656 l 244 656 l 244 513 l 454 513 l 454 656 "},"=":{"ha":814,"x_min":69,"x_max":744,"o":"m 69 594 l 69 458 l 744 458 l 744 594 l 69 594 m 69 313 l 69 176 l 744 176 l 744 313 l 69 313 "},"≠":{"ha":814,"x_min":69,"x_max":744,"o":"m 258 32 l 347 8 l 556 746 l 467 769 l 258 32 m 69 594 l 69 458 l 744 458 l 744 594 l 69 594 m 69 313 l 69 176 l 744 176 l 744 313 l 69 313 "},">":{"ha":747,"x_min":131,"x_max":654,"o":"m 131 611 l 514 403 l 131 197 l 199 68 l 654 326 l 654 478 l 199 736 l 131 611 "},"<":{"ha":739,"x_min":85,"x_max":608,"o":"m 539 736 l 85 478 l 85 326 l 539 68 l 608 197 l 225 403 l 608 611 l 539 736 "},"≥":{"ha":754,"x_min":131,"x_max":661,"o":"m 661 344 l 661 497 l 197 733 l 138 608 l 510 429 l 131 292 l 178 156 l 661 344 m 643 -14 l 643 86 l 149 86 l 149 -14 l 643 -14 "},"≤":{"ha":808,"x_min":147,"x_max":678,"o":"m 678 292 l 299 429 l 672 608 l 611 733 l 147 497 l 147 344 l 631 156 l 678 292 m 660 -14 l 660 86 l 167 86 l 167 -14 l 660 -14 "},"±":{"ha":778,"x_min":69,"x_max":708,"o":"m 69 342 l 708 342 l 708 474 l 69 474 l 69 342 m 79 -14 l 699 -14 l 699 86 l 79 86 l 79 -14 m 314 172 l 464 172 l 464 643 l 314 643 l 314 172 "},"≈":{"ha":864,"x_min":67,"x_max":799,"o":"m 661 615 q 648 566 661 589 q 593 543 635 543 q 522 558 557 543 q 450 594 488 574 q 371 631 413 615 q 279 646 329 646 q 158 617 207 646 q 88 541 110 589 q 71 436 67 493 l 203 436 q 225 485 203 463 q 289 508 247 508 q 360 493 325 508 q 433 457 396 478 q 511 421 469 436 q 603 406 553 406 q 713 434 669 406 q 778 510 757 463 q 794 615 799 558 l 661 615 m 669 339 q 652 290 669 313 q 593 267 635 267 q 522 282 557 267 q 450 318 488 297 q 371 354 413 339 q 279 369 329 369 q 158 341 207 369 q 88 265 110 313 q 71 160 67 217 l 203 160 q 225 209 203 186 q 289 232 247 232 q 360 217 325 232 q 433 181 396 201 q 511 144 469 160 q 603 129 553 129 q 690 147 653 129 q 751 194 726 164 q 786 261 775 224 q 794 339 797 299 l 669 339 "},"~":{"ha":432,"x_min":111,"x_max":321,"o":"m 321 458 l 111 458 l 111 300 l 321 300 l 321 458 "},"¬":{"ha":1004,"x_min":118,"x_max":865,"o":"m 118 578 l 118 442 l 707 442 l 707 222 l 865 222 l 865 578 l 118 578 "},"^":{"ha":815,"x_min":303,"x_max":513,"o":"m 513 857 l 303 857 l 303 699 l 513 699 l 513 857 "},"∅":{"ha":1106,"x_min":83,"x_max":1022,"o":"m 311 -94 l 400 61 q 474 49 436 53 q 553 44 513 44 q 746 72 660 44 q 894 148 832 99 q 989 267 956 197 q 1022 421 1022 336 q 963 620 1022 535 q 799 751 904 706 l 876 886 l 793 935 l 704 781 q 631 793 669 789 q 553 797 593 797 q 360 770 447 797 q 212 694 274 743 q 117 575 150 644 q 83 421 83 506 q 142 222 83 307 q 306 92 201 138 l 226 -46 l 311 -94 m 381 221 q 291 305 324 253 q 258 421 258 357 q 296 545 258 490 q 400 632 333 600 q 553 664 467 664 q 594 662 574 664 q 632 656 614 660 l 381 221 m 553 178 q 512 180 532 178 q 472 186 492 182 l 725 622 q 815 538 782 590 q 847 421 847 486 q 810 297 847 351 q 706 210 772 242 q 553 178 639 178 "},"∞":{"ha":1533,"x_min":74,"x_max":1460,"o":"m 1124 111 q 1298 151 1222 111 q 1417 258 1374 190 q 1460 410 1460 325 q 1417 561 1460 494 q 1300 667 1374 628 q 1133 706 1226 706 q 1012 688 1065 706 q 916 640 958 671 q 839 572 874 610 q 772 493 804 533 q 703 572 739 533 q 622 640 667 610 q 524 688 578 671 q 400 706 469 706 q 233 667 307 706 q 117 561 160 628 q 74 411 74 494 q 117 259 74 326 q 235 152 160 192 q 410 113 311 113 q 562 142 497 113 q 677 219 626 171 q 771 319 728 267 q 837 242 803 279 q 913 175 871 204 q 1006 128 954 146 q 1124 111 1058 111 m 435 246 q 369 258 401 246 q 310 291 336 269 q 267 343 283 313 q 251 411 251 374 q 276 496 251 460 q 342 552 301 532 q 426 572 382 572 q 540 549 490 572 q 628 489 589 526 q 704 406 668 451 q 631 326 669 363 q 545 267 593 289 q 435 246 497 246 m 1099 244 q 996 267 1042 244 q 913 326 950 289 q 840 406 875 363 q 915 489 876 451 q 1001 549 954 526 q 1107 572 1049 572 q 1192 552 1153 572 q 1257 496 1232 532 q 1282 410 1282 460 q 1266 342 1282 372 q 1224 290 1250 311 q 1165 256 1197 268 q 1099 244 1132 244 "},"∫":{"ha":700,"x_min":32,"x_max":667,"o":"m 496 1056 q 326 1000 392 1056 q 260 819 260 944 l 260 131 q 224 31 260 57 q 135 6 188 4 l 32 6 l 32 -153 l 200 -153 q 324 -128 269 -153 q 409 -52 378 -104 q 440 83 440 0 l 440 772 q 477 872 440 846 q 565 897 514 899 l 667 897 l 667 1056 l 496 1056 "},"∏":{"ha":1190,"x_min":56,"x_max":1135,"o":"m 267 788 l 267 0 l 447 0 l 447 788 l 267 788 m 1135 899 l 56 899 l 56 743 l 1135 743 l 1135 899 m 924 0 l 924 788 l 743 788 l 743 0 l 924 0 "},"∑":{"ha":1010,"x_min":117,"x_max":882,"o":"m 117 899 l 117 740 l 457 411 l 493 496 l 117 153 l 117 0 l 882 0 l 882 154 l 240 154 l 242 72 l 675 436 l 236 831 l 240 744 l 882 744 l 882 899 l 117 899 "},"√":{"ha":1121,"x_min":21,"x_max":1103,"o":"m 1103 899 l 719 899 l 429 200 l 219 690 l 21 690 l 346 0 l 515 0 l 840 744 l 1103 744 l 1103 899 "},"µ":{"ha":1035,"x_min":83,"x_max":1015,"o":"m 1015 -10 l 1015 149 q 941 157 971 149 q 897 191 911 165 q 882 269 882 217 l 882 690 l 701 690 l 701 235 q 733 103 701 158 q 833 19 764 49 q 1015 -10 903 -10 m 711 332 q 666 242 699 289 q 580 162 633 194 q 451 129 526 129 q 356 145 399 129 q 289 201 314 161 q 264 311 264 240 l 264 690 l 83 690 l 83 -278 l 264 -278 l 264 144 l 240 115 q 310 16 263 49 q 431 -17 358 -17 q 547 8 499 -17 q 626 70 594 32 q 675 150 657 108 q 701 228 693 192 q 713 285 710 265 l 711 332 "},"∂":{"ha":975,"x_min":50,"x_max":901,"o":"m 478 -17 q 617 1 553 -17 q 734 53 682 19 q 824 134 786 88 q 881 239 861 181 q 901 364 901 297 q 890 477 901 418 q 851 597 879 536 q 776 715 824 657 q 657 825 729 774 q 485 917 585 876 q 251 985 385 958 l 224 853 q 440 789 350 826 q 592 704 531 751 q 687 601 653 657 q 735 483 721 546 l 743 475 q 678 590 722 540 q 568 666 635 639 q 411 693 501 693 q 269 669 335 693 q 153 601 203 646 q 77 491 104 556 q 50 344 50 426 q 101 156 50 238 q 249 28 153 74 q 478 -17 344 -17 m 486 124 q 303 181 372 124 q 235 339 235 238 q 301 497 235 438 q 482 556 367 556 q 582 542 535 556 q 665 500 629 528 q 722 433 701 472 q 743 342 743 393 q 708 226 743 275 q 616 150 674 176 q 486 124 558 124 "},"%":{"ha":1317,"x_min":56,"x_max":1261,"o":"m 317 463 q 454 490 396 463 q 544 569 513 518 q 576 692 576 621 q 506 862 576 801 q 317 922 436 922 q 126 862 197 922 q 56 692 56 801 q 88 569 56 621 q 178 490 119 518 q 317 463 238 463 m 317 576 q 230 608 263 576 q 197 692 197 639 q 230 777 197 746 q 317 808 263 808 q 402 777 369 808 q 435 692 435 746 q 402 608 435 639 q 317 576 369 576 m 1003 -17 q 1191 44 1121 -17 q 1261 213 1261 104 q 1191 382 1261 321 q 1003 443 1121 443 q 813 382 883 443 q 742 213 742 321 q 813 44 742 104 q 1003 -17 883 -17 m 1003 97 q 916 128 949 97 q 883 213 883 158 q 916 298 883 267 q 1003 329 949 329 q 1088 297 1056 329 q 1121 213 1121 265 q 1088 128 1121 158 q 1003 97 1056 97 m 864 953 l 336 -3 l 408 -47 l 939 911 l 864 953 "},"‰":{"ha":1463,"x_min":56,"x_max":1407,"o":"m 317 463 q 454 490 396 463 q 544 569 513 518 q 576 692 576 621 q 506 862 576 801 q 317 922 436 922 q 126 862 197 922 q 56 692 56 801 q 88 569 56 621 q 178 490 119 518 q 317 463 238 463 m 317 576 q 230 608 263 576 q 197 692 197 639 q 230 777 197 746 q 317 808 263 808 q 402 777 369 808 q 435 692 435 746 q 402 608 435 639 q 317 576 369 576 m 1147 344 q 1285 372 1226 344 q 1375 451 1343 400 q 1407 574 1407 503 q 1337 743 1407 682 q 1147 804 1267 804 q 957 743 1028 804 q 886 574 886 682 q 918 451 886 503 q 1009 372 950 400 q 1147 344 1068 344 m 1147 458 q 1060 490 1093 458 q 1028 574 1028 521 q 1060 659 1028 628 q 1147 690 1093 690 q 1233 659 1200 690 q 1265 574 1265 628 q 1233 490 1265 521 q 1147 458 1200 458 m 878 -139 q 1015 -111 957 -139 q 1106 -32 1074 -83 q 1138 92 1138 19 q 1067 260 1138 199 q 878 321 997 321 q 688 260 760 321 q 617 92 617 200 q 649 -32 617 19 q 740 -111 682 -83 q 878 -139 799 -139 m 878 -25 q 791 6 824 -25 q 758 92 758 38 q 792 176 758 144 q 878 207 825 207 q 963 176 931 207 q 996 92 996 144 q 963 6 996 38 q 878 -25 931 -25 m 858 953 l 331 -3 l 403 -47 l 933 911 l 858 953 "},"↑":{"ha":976,"x_min":126,"x_max":851,"o":"m 421 -64 l 557 -64 l 557 660 l 554 767 l 757 575 l 851 675 l 489 1010 l 126 675 l 222 575 l 424 765 l 421 660 l 421 -64 "},"↗":{"ha":1106,"x_min":139,"x_max":967,"o":"m 236 72 l 747 585 l 821 661 l 828 383 l 967 388 l 947 881 l 453 900 l 450 763 l 728 754 l 651 682 l 139 169 l 236 72 "},"→":{"ha":1213,"x_min":56,"x_max":1129,"o":"m 794 25 l 1129 388 l 794 750 l 694 654 l 885 453 l 779 456 l 56 456 l 56 319 l 779 319 l 886 322 l 694 119 l 794 25 "},"↘":{"ha":1106,"x_min":139,"x_max":967,"o":"m 453 -7 l 947 13 l 967 507 l 828 508 l 821 232 l 747 308 l 236 821 l 139 724 l 651 213 l 728 139 l 450 132 l 453 -7 "},"↓":{"ha":976,"x_min":125,"x_max":851,"o":"m 488 -92 l 851 244 l 754 344 l 553 153 l 556 260 l 556 983 l 419 983 l 419 260 l 422 154 l 221 344 l 125 244 l 488 -92 "},"↙":{"ha":1106,"x_min":139,"x_max":967,"o":"m 651 -7 l 656 132 l 378 139 l 454 213 l 967 724 l 869 821 l 358 308 l 285 232 l 278 508 l 139 507 l 158 13 l 651 -7 "},"←":{"ha":1213,"x_min":83,"x_max":1157,"o":"m 418 25 l 518 119 l 326 322 l 433 319 l 1157 319 l 1157 456 l 433 456 l 328 453 l 518 654 l 418 750 l 83 388 l 418 25 "},"↖":{"ha":1106,"x_min":139,"x_max":967,"o":"m 869 76 l 967 172 l 454 685 l 379 757 l 654 765 l 651 903 l 158 883 l 139 390 l 278 386 l 285 665 l 358 588 l 869 76 "},"↔":{"ha":1492,"x_min":83,"x_max":1408,"o":"m 418 25 l 518 119 l 326 322 l 413 319 l 1079 319 l 1164 322 l 972 119 l 1074 25 l 1408 388 l 1074 750 l 974 654 l 1164 453 l 1079 456 l 413 456 l 328 453 l 518 654 l 418 750 l 83 388 l 418 25 "},"↕":{"ha":976,"x_min":125,"x_max":851,"o":"m 488 -197 l 851 138 l 754 238 l 553 46 l 556 132 l 556 754 l 553 840 l 754 649 l 851 749 l 488 1083 l 125 749 l 221 649 l 422 839 l 419 754 l 419 132 l 422 47 l 221 238 l 125 138 l 488 -197 "},"◊":{"ha":961,"x_min":69,"x_max":892,"o":"m 481 -8 l 892 468 l 479 944 l 69 468 l 481 -8 m 481 201 l 251 468 l 479 735 l 710 468 l 481 201 "},"΄":{"ha":672,"x_min":132,"x_max":560,"o":"m 132 835 l 304 835 l 560 1054 l 321 1054 l 132 835 "},"΅":{"ha":844,"x_min":0,"x_max":844,"o":"m 210 968 l 0 968 l 0 810 l 210 810 l 210 968 m 844 968 l 635 968 l 635 810 l 844 810 l 844 968 m 246 810 l 418 810 l 674 1029 l 435 1029 l 246 810 "},"̈":{"ha":0,"x_min":111,"x_max":622,"o":"m 321 994 l 111 994 l 111 836 l 321 836 l 321 994 m 622 994 l 413 994 l 413 836 l 622 836 l 622 994 "},"̇":{"ha":0,"x_min":104,"x_max":314,"o":"m 314 996 l 104 996 l 104 838 l 314 838 l 314 996 "},"̀":{"ha":0,"x_min":139,"x_max":567,"o":"m 394 835 l 567 835 l 378 1054 l 139 1054 l 394 835 "},"́":{"ha":0,"x_min":132,"x_max":560,"o":"m 132 835 l 304 835 l 560 1054 l 321 1054 l 132 835 "},"̋":{"ha":0,"x_min":139,"x_max":796,"o":"m 439 835 l 581 835 l 796 1054 l 607 1054 l 439 835 m 139 835 l 281 835 l 488 1054 l 299 1054 l 139 835 "},"̂":{"ha":0,"x_min":143,"x_max":783,"o":"m 558 1054 l 369 1054 l 143 835 l 339 835 l 521 1017 l 407 1018 l 588 835 l 783 835 l 558 1054 "},"̌":{"ha":0,"x_min":149,"x_max":779,"o":"m 521 874 l 344 1054 l 149 1054 l 369 835 l 558 835 l 779 1054 l 583 1054 l 407 874 l 521 874 "},"̆":{"ha":0,"x_min":151,"x_max":735,"o":"m 735 1014 l 603 1014 q 555 941 593 967 q 443 915 517 915 q 333 941 371 915 q 283 1014 294 967 l 151 1014 q 194 906 161 954 q 289 831 228 858 q 443 804 350 804 q 598 831 536 804 q 693 906 660 858 q 735 1014 726 954 "},"̊":{"ha":0,"x_min":143,"x_max":536,"o":"m 340 801 q 483 844 431 801 q 536 957 536 886 q 483 1069 536 1026 q 340 1111 431 1111 q 197 1069 250 1111 q 143 957 143 1026 q 197 844 143 886 q 340 801 250 801 m 340 882 q 269 901 290 882 q 247 957 247 919 q 269 1012 247 993 q 340 1031 290 1031 q 410 1012 389 1031 q 432 957 432 993 q 410 901 432 919 q 340 882 389 882 "},"̃":{"ha":0,"x_min":118,"x_max":792,"o":"m 588 833 q 688 860 646 833 q 755 932 729 888 q 792 1026 781 976 l 663 1026 q 645 989 656 1008 q 617 956 635 969 q 569 943 600 943 q 513 956 539 943 q 458 985 486 968 q 397 1015 429 1003 q 321 1028 364 1028 q 222 1001 264 1028 q 155 930 181 974 q 118 835 129 886 l 246 835 q 264 874 254 854 q 291 906 274 893 q 338 918 308 918 q 399 906 371 918 q 454 876 426 893 q 514 846 482 858 q 588 833 546 833 "},"̄":{"ha":0,"x_min":139,"x_max":565,"o":"m 139 846 l 565 846 l 565 958 l 139 958 l 139 846 "},"̒":{"ha":0,"x_min":322,"x_max":535,"o":"m 504 1054 q 369 988 415 1036 q 322 865 322 940 l 322 793 l 535 793 l 535 921 l 450 936 q 475 977 451 957 q 521 1007 499 997 l 504 1054 "},"̦":{"ha":0,"x_min":42,"x_max":254,"o":"m 72 -346 l 72 -346 q 208 -280 161 -328 q 254 -157 254 -232 l 254 -85 l 42 -85 l 42 -212 l 128 -228 q 106 -266 126 -247 q 56 -299 85 -285 l 72 -346 "},"̧":{"ha":0,"x_min":146,"x_max":583,"o":"m 481 24 l 329 24 l 329 -89 q 397 -111 376 -97 q 424 -139 418 -125 q 431 -162 431 -153 q 415 -201 431 -185 q 360 -218 399 -218 q 311 -207 328 -218 q 288 -182 294 -196 q 279 -161 282 -168 l 149 -161 q 171 -244 146 -204 q 245 -308 196 -283 q 364 -332 294 -332 q 528 -288 474 -332 q 583 -186 583 -244 q 571 -128 583 -153 q 535 -87 558 -104 q 483 -60 513 -71 q 421 -44 454 -50 l 481 -140 l 481 24 "},"̨":{"ha":0,"x_min":139,"x_max":447,"o":"m 447 -310 l 447 -214 q 359 -201 397 -214 q 300 -166 321 -189 q 279 -110 279 -143 q 316 -36 279 -62 q 410 0 353 -10 l 410 31 q 272 6 333 24 q 175 -47 211 -12 q 139 -136 139 -81 q 222 -263 139 -217 q 447 -310 306 -310 "},"̵":{"ha":0,"x_min":104,"x_max":603,"o":"m 104 592 l 104 496 l 603 496 l 603 592 l 104 592 "},"̶":{"ha":0,"x_min":104,"x_max":660,"o":"m 104 589 l 104 506 l 660 506 l 660 589 l 104 589 "},"̷":{"ha":0,"x_min":104,"x_max":722,"o":"m 671 783 l 104 394 l 153 321 l 722 710 l 671 783 "},"̸":{"ha":0,"x_min":104,"x_max":729,"o":"m 654 1000 l 104 4 l 176 -40 l 729 958 l 654 1000 "},"¨":{"ha":751,"x_min":111,"x_max":622,"o":"m 321 994 l 111 994 l 111 836 l 321 836 l 321 994 m 622 994 l 413 994 l 413 836 l 622 836 l 622 994 "},"˙":{"ha":422,"x_min":104,"x_max":314,"o":"m 314 996 l 104 996 l 104 838 l 314 838 l 314 996 "},"`":{"ha":706,"x_min":139,"x_max":567,"o":"m 394 835 l 567 835 l 378 1054 l 139 1054 l 394 835 "},"´":{"ha":672,"x_min":132,"x_max":560,"o":"m 132 835 l 304 835 l 560 1054 l 321 1054 l 132 835 "},"˝":{"ha":886,"x_min":139,"x_max":796,"o":"m 439 835 l 581 835 l 796 1054 l 607 1054 l 439 835 m 139 835 l 281 835 l 488 1054 l 299 1054 l 139 835 "},"ˆ":{"ha":928,"x_min":143,"x_max":783,"o":"m 558 1054 l 369 1054 l 143 835 l 339 835 l 521 1017 l 407 1018 l 588 835 l 783 835 l 558 1054 "},"ˇ":{"ha":919,"x_min":149,"x_max":779,"o":"m 521 874 l 344 1054 l 149 1054 l 369 835 l 558 835 l 779 1054 l 583 1054 l 407 874 l 521 874 "},"˘":{"ha":888,"x_min":151,"x_max":735,"o":"m 735 1014 l 603 1014 q 555 941 593 967 q 443 915 517 915 q 333 941 371 915 q 283 1014 294 967 l 151 1014 q 194 906 161 954 q 289 831 228 858 q 443 804 350 804 q 598 831 536 804 q 693 906 660 858 q 735 1014 726 954 "},"˚":{"ha":681,"x_min":143,"x_max":536,"o":"m 340 801 q 483 844 431 801 q 536 957 536 886 q 483 1069 536 1026 q 340 1111 431 1111 q 197 1069 250 1111 q 143 957 143 1026 q 197 844 143 886 q 340 801 250 801 m 340 882 q 269 901 290 882 q 247 957 247 919 q 269 1012 247 993 q 340 1031 290 1031 q 410 1012 389 1031 q 432 957 432 993 q 410 901 432 919 q 340 882 389 882 "},"˜":{"ha":935,"x_min":118,"x_max":792,"o":"m 588 833 q 688 860 646 833 q 755 932 729 888 q 792 1026 781 976 l 663 1026 q 645 989 656 1008 q 617 956 635 969 q 569 943 600 943 q 513 956 539 943 q 458 985 486 968 q 397 1015 429 1003 q 321 1028 364 1028 q 222 1001 264 1028 q 155 930 181 974 q 118 835 129 886 l 246 835 q 264 874 254 854 q 291 906 274 893 q 338 918 308 918 q 399 906 371 918 q 454 876 426 893 q 514 846 482 858 q 588 833 546 833 "},"¯":{"ha":704,"x_min":139,"x_max":565,"o":"m 139 846 l 565 846 l 565 958 l 139 958 l 139 846 "},"¸":{"ha":710,"x_min":146,"x_max":583,"o":"m 481 24 l 329 24 l 329 -89 q 397 -111 376 -97 q 424 -139 418 -125 q 431 -162 431 -153 q 415 -201 431 -185 q 360 -218 399 -218 q 311 -207 328 -218 q 288 -182 294 -196 q 279 -161 282 -168 l 149 -161 q 171 -244 146 -204 q 245 -308 196 -283 q 364 -332 294 -332 q 528 -288 474 -332 q 583 -186 583 -244 q 571 -128 583 -153 q 535 -87 558 -104 q 483 -60 513 -71 q 421 -44 454 -50 l 481 -140 l 481 24 "},"˛":{"ha":586,"x_min":139,"x_max":447,"o":"m 447 -310 l 447 -214 q 359 -201 397 -214 q 300 -166 321 -189 q 279 -110 279 -143 q 316 -36 279 -62 q 410 0 353 -10 l 410 31 q 272 6 333 24 q 175 -47 211 -12 q 139 -136 139 -81 q 222 -263 139 -217 q 447 -310 306 -310 "}}}
